<svg version="1.1" xmlns="http://www.w3.org/2000/svg" viewBox="0 0 1675.224903107468 817.4094762959899" width="3350.449806214936" height="1634.8189525919797">
  <!-- svg-source:excalidraw -->
  
  <defs>
    <style class="style-fonts">
      @font-face {
        font-family: "Virgil";
        src: url("https://excalidraw.com/Virgil.woff2");
      }
      @font-face {
        font-family: "Cascadia";
        src: url("https://excalidraw.com/Cascadia.woff2");
      }
      @font-face {
        font-family: "Assistant";
        src: url("https://excalidraw.com/Assistant-Regular.woff2");
      }
    </style>
    
  </defs>
  <rect x="0" y="0" width="1675.224903107468" height="817.4094762959899" fill="#ffffff"></rect><g stroke-linecap="round" transform="translate(12.286411824803508 507.38798147730404) rotate(0 73.29043215200272 55.568086828452806)"><path d="M27.78 0 C49.36 1.88, 70.29 0.09, 118.8 0 M27.78 0 C58.72 -1.29, 89.59 0.02, 118.8 0 M118.8 0 C135.68 -1.52, 144.93 8.04, 146.58 27.78 M118.8 0 C137.9 -0.66, 146.36 10.89, 146.58 27.78 M146.58 27.78 C148.49 41.11, 148.51 57.7, 146.58 83.35 M146.58 27.78 C146.19 41.93, 145.89 54.98, 146.58 83.35 M146.58 83.35 C146.48 103.58, 137.93 111.92, 118.8 111.14 M146.58 83.35 C147.13 100.97, 135.6 113.42, 118.8 111.14 M118.8 111.14 C84.35 111.13, 47.16 111.78, 27.78 111.14 M118.8 111.14 C89.18 112.04, 60.15 110.63, 27.78 111.14 M27.78 111.14 C9.61 111.66, 0.78 101.26, 0 83.35 M27.78 111.14 C10.83 111.82, 1.28 103.19, 0 83.35 M0 83.35 C0.82 70.71, 1.41 55.16, 0 27.78 M0 83.35 C0.88 63.82, -0.2 44.94, 0 27.78 M0 27.78 C0.7 11.2, 9.11 1.58, 27.78 0 M0 27.78 C0.18 7.62, 9.97 2.19, 27.78 0" stroke="#1e1e1e" stroke-width="2" fill="none"></path></g><g transform="translate(44.52545543805718 466.7590590046034) rotate(0 50.51995849609375 12.5)"><text x="0" y="17.52" font-family="Virgil, Segoe UI Emoji" font-size="20px" fill="#1e1e1e" text-anchor="start" style="white-space: pre;" direction="ltr" dominant-baseline="alphabetic">Browser 2</text></g><g transform="translate(27.10881420250189 553.3837090503798) rotate(0 56.039939880371094 12.5)"><text x="0" y="17.52" font-family="Virgil, Segoe UI Emoji" font-size="20px" fill="#1e1e1e" text-anchor="start" style="white-space: pre;" direction="ltr" dominant-baseline="alphabetic">ts-frontend</text></g><g stroke-linecap="round" transform="translate(439.4059734366492 604.8014382952751) rotate(0 96.16728807037543 92.18039725609356)"><path d="M91.79 -0.56 C103.25 -2.22, 116.86 2.17, 128.53 6.24 C140.19 10.32, 152.51 15.93, 161.8 23.89 C171.08 31.86, 179.2 43.23, 184.22 54.03 C189.24 64.84, 191.45 77.21, 191.93 88.74 C192.41 100.26, 191.4 112.23, 187.1 123.19 C182.79 134.14, 174.38 145.6, 166.1 154.47 C157.82 163.34, 148.57 171.44, 137.41 176.41 C126.25 181.38, 111.66 183.81, 99.15 184.29 C86.65 184.77, 73.87 183.23, 62.38 179.32 C50.89 175.41, 39.11 169.03, 30.23 160.84 C21.35 152.66, 14.16 140.97, 9.08 130.22 C4.01 119.48, 0.44 107.9, -0.2 96.38 C-0.84 84.87, 0.86 72.14, 5.23 61.14 C9.59 50.15, 17.42 39.04, 25.97 30.41 C34.53 21.78, 42.8 14.36, 56.56 9.37 C70.31 4.37, 97.08 1.08, 108.5 0.46 C119.92 -0.16, 125.39 4.2, 125.08 5.67 M124.51 5.77 C136.11 7.79, 147.25 15.56, 156.9 22.79 C166.54 30.03, 176.51 39.16, 182.38 49.18 C188.26 59.2, 191.15 70.95, 192.14 82.91 C193.13 94.88, 192.13 109.6, 188.32 120.98 C184.51 132.36, 177.08 142.36, 169.29 151.19 C161.5 160.03, 152.39 168.33, 141.56 174 C130.73 179.67, 116.79 184.29, 104.33 185.22 C91.88 186.16, 78.31 183.3, 66.84 179.58 C55.37 175.87, 44.96 170.5, 35.51 162.93 C26.05 155.36, 15.86 144.67, 10.1 134.14 C4.34 123.61, 1.89 111.4, 0.94 99.75 C-0.02 88.1, 0.6 75.48, 4.37 64.25 C8.13 53.01, 15.85 41.2, 23.52 32.34 C31.19 23.48, 39.76 16.44, 50.39 11.07 C61.01 5.71, 74.6 1.43, 87.27 0.13 C99.95 -1.17, 120.4 2.19, 126.44 3.27 C132.47 4.36, 124.34 4.86, 123.49 6.62" stroke="#1e1e1e" stroke-width="2" fill="none"></path></g><g transform="translate(482.9127697277945 684.3004515591151) rotate(0 52.659950256347656 12.5)"><text x="52.659950256347656" y="17.52" font-family="Virgil, Segoe UI Emoji" font-size="20px" fill="#1e1e1e" text-anchor="middle" style="white-space: pre;" direction="ltr" dominant-baseline="alphabetic">ts-backend</text></g><g stroke-linecap="round" transform="translate(658.8802791672751 443.9289078774532) rotate(0 201.0874786046952 34.35561983361413)"><path d="M17.18 0 C124.52 -1.5, 233.69 -1.99, 385 0 M17.18 0 C92.5 1.71, 168.67 2.21, 385 0 M385 0 C394.9 -0.12, 401.62 4.91, 402.17 17.18 M385 0 C394.84 -1.35, 400.92 5.52, 402.17 17.18 M402.17 17.18 C403.86 27.17, 402.88 35.32, 402.17 51.53 M402.17 17.18 C402.48 30.56, 402.68 42.15, 402.17 51.53 M402.17 51.53 C401.17 63.09, 397.15 66.9, 385 68.71 M402.17 51.53 C403.99 62.55, 397.14 70.31, 385 68.71 M385 68.71 C261.44 70.38, 134.69 68.92, 17.18 68.71 M385 68.71 C276.35 66.65, 167.1 66.7, 17.18 68.71 M17.18 68.71 C4.16 68.64, -0.13 64.78, 0 51.53 M17.18 68.71 C7.4 66.41, -2.07 64.77, 0 51.53 M0 51.53 C-1.56 40.7, -1.98 27.87, 0 17.18 M0 51.53 C0.77 39.71, 0.19 26.83, 0 17.18 M0 17.18 C1.79 4.07, 7.67 0.99, 17.18 0 M0 17.18 C-0.86 6.85, 6.55 -0.79, 17.18 0" stroke="#1e1e1e" stroke-width="2" fill="none"></path></g><g stroke-linecap="round" transform="translate(676.5346902490492 461.4304669152284) rotate(0 24.182467127522614 18.807170246924898)"><path d="M9.4 0 C18.46 0.25, 26.42 -1.97, 38.96 0 M9.4 0 C20.53 0, 30.7 -0.97, 38.96 0 M38.96 0 C44.04 0.99, 48.73 3.87, 48.36 9.4 M38.96 0 C43.02 -1.36, 47.16 3.41, 48.36 9.4 M48.36 9.4 C49.24 15.49, 46.85 26.28, 48.36 28.21 M48.36 9.4 C47.6 14.01, 49 19.47, 48.36 28.21 M48.36 28.21 C47.9 34.51, 45.04 38.17, 38.96 37.61 M48.36 28.21 C49.8 32.66, 43.89 36.03, 38.96 37.61 M38.96 37.61 C28.79 35.93, 21.78 36.14, 9.4 37.61 M38.96 37.61 C31.55 38.43, 23.66 38.74, 9.4 37.61 M9.4 37.61 C4.3 38.28, -0.83 33.45, 0 28.21 M9.4 37.61 C2.35 39.47, 0.72 36.32, 0 28.21 M0 28.21 C1.52 25.76, -0.34 21.85, 0 9.4 M0 28.21 C0.21 24.34, -1.01 18.42, 0 9.4 M0 9.4 C0.71 5.02, 2.56 -1.03, 9.4 0 M0 9.4 C1.49 2.44, 4.65 0.2, 9.4 0" stroke="#1e1e1e" stroke-width="2" fill="none"></path></g><g stroke-linecap="round" transform="translate(740.5860655193919 460.79146045351445) rotate(0 24.182467127522614 18.807170246924898)"><path d="M9.4 0 C20.27 1.17, 30.36 -0.37, 38.96 0 M9.4 0 C18.82 0.78, 28.29 -0.04, 38.96 0 M38.96 0 C44.08 0.86, 47.46 4.05, 48.36 9.4 M38.96 0 C46.95 1.5, 49.58 2.04, 48.36 9.4 M48.36 9.4 C46.93 16.39, 46.71 21.05, 48.36 28.21 M48.36 9.4 C47.86 15.32, 47.69 20.03, 48.36 28.21 M48.36 28.21 C47.5 35.82, 45.33 37.78, 38.96 37.61 M48.36 28.21 C48.62 32.58, 43.51 38.61, 38.96 37.61 M38.96 37.61 C26.18 38.11, 16 39.01, 9.4 37.61 M38.96 37.61 C33.2 37.46, 25.4 37.92, 9.4 37.61 M9.4 37.61 C1.47 39.02, -0.98 34.5, 0 28.21 M9.4 37.61 C2.97 38.74, -0.17 35.95, 0 28.21 M0 28.21 C-0.26 25.17, 0.05 20.11, 0 9.4 M0 28.21 C-0.91 23.26, 0.07 17.55, 0 9.4 M0 9.4 C1.44 3.2, 3.97 -0.54, 9.4 0 M0 9.4 C1.61 3.37, 0.96 -0.82, 9.4 0" stroke="#1e1e1e" stroke-width="2" fill="none"></path></g><g stroke-linecap="round" transform="translate(803.9729589873532 460.3541337720758) rotate(0 24.182467127522614 18.807170246924898)"><path d="M9.4 0 C21.29 0.02, 32.14 1.01, 38.96 0 M9.4 0 C15.03 -0.5, 20.63 -1.03, 38.96 0 M38.96 0 C43.69 1.54, 49.54 2.92, 48.36 9.4 M38.96 0 C44.34 0.21, 50.23 5.14, 48.36 9.4 M48.36 9.4 C48.62 17.14, 47.7 21.96, 48.36 28.21 M48.36 9.4 C48.16 14.31, 48.54 20.29, 48.36 28.21 M48.36 28.21 C49.52 34.31, 44.88 36.41, 38.96 37.61 M48.36 28.21 C48.92 35.53, 45.99 38.98, 38.96 37.61 M38.96 37.61 C28.56 36.72, 18.7 36.27, 9.4 37.61 M38.96 37.61 C30.28 37.67, 21.41 37.35, 9.4 37.61 M9.4 37.61 C1.58 38.64, 1.72 34.19, 0 28.21 M9.4 37.61 C1.22 35.94, 1.48 35.1, 0 28.21 M0 28.21 C1.81 21.28, -0.57 18.22, 0 9.4 M0 28.21 C0.29 21.92, -0.01 16.24, 0 9.4 M0 9.4 C1.33 1.26, 1.51 -0.47, 9.4 0 M0 9.4 C-0.26 0.93, 1.43 0.92, 9.4 0" stroke="#1e1e1e" stroke-width="2" fill="none"></path></g><g stroke-linecap="round" transform="translate(868.8501598843031 461.78075284938996) rotate(0 24.182467127522614 18.807170246924898)"><path d="M9.4 0 C20.87 0, 32.07 -0.17, 38.96 0 M9.4 0 C20.43 0.38, 30.58 -0.12, 38.96 0 M38.96 0 C46.04 0.72, 46.79 4.53, 48.36 9.4 M38.96 0 C43.16 -1.83, 47.37 4.03, 48.36 9.4 M48.36 9.4 C49.95 14.2, 50.32 19.63, 48.36 28.21 M48.36 9.4 C48.67 14.35, 47.27 19.58, 48.36 28.21 M48.36 28.21 C48.59 34.55, 43.79 37.14, 38.96 37.61 M48.36 28.21 C48.43 32.55, 44.89 39.31, 38.96 37.61 M38.96 37.61 C30.13 39.43, 18.68 37.71, 9.4 37.61 M38.96 37.61 C27.34 37.6, 17.64 38.37, 9.4 37.61 M9.4 37.61 C1.68 36.62, 0.6 32.73, 0 28.21 M9.4 37.61 C1.77 37.42, 0.21 35.35, 0 28.21 M0 28.21 C0.79 24, 1.69 18.62, 0 9.4 M0 28.21 C-0.56 21.03, -0.81 13.76, 0 9.4 M0 9.4 C0.77 3.68, 4.68 0.57, 9.4 0 M0 9.4 C-0.6 5.36, 4.94 1.89, 9.4 0" stroke="#1e1e1e" stroke-width="2" fill="none"></path></g><g stroke-linecap="round" transform="translate(930.7425000331696 461.55572067350477) rotate(0 24.182467127522614 18.807170246924898)"><path d="M9.4 0 C21.92 0.5, 33.09 -1.32, 38.96 0 M9.4 0 C18.76 -0.45, 26.55 0.92, 38.96 0 M38.96 0 C46.34 -1.46, 47.38 3.74, 48.36 9.4 M38.96 0 C43.22 -1.36, 48.17 3.35, 48.36 9.4 M48.36 9.4 C48.71 16.37, 49.5 23.62, 48.36 28.21 M48.36 9.4 C47.86 15.58, 48.8 22.13, 48.36 28.21 M48.36 28.21 C49.24 35.25, 45.78 39.16, 38.96 37.61 M48.36 28.21 C49.02 33.88, 47.45 39.42, 38.96 37.61 M38.96 37.61 C25.88 37.8, 15.15 38.54, 9.4 37.61 M38.96 37.61 C30.02 38.21, 23.3 37.8, 9.4 37.61 M9.4 37.61 C4.36 37.52, -0.32 32.88, 0 28.21 M9.4 37.61 C4.84 36.52, -0.43 35.47, 0 28.21 M0 28.21 C0.06 21.64, -0.62 18.26, 0 9.4 M0 28.21 C0.01 22.89, 0.27 18.47, 0 9.4 M0 9.4 C1.17 4.08, 2.54 0.16, 9.4 0 M0 9.4 C-0.01 1.44, 3.04 -1.09, 9.4 0" stroke="#1e1e1e" stroke-width="2" fill="none"></path></g><g stroke-linecap="round" transform="translate(994.808735918903 461.7637692889466) rotate(0 24.182467127522614 18.807170246924898)"><path d="M9.4 0 C18.08 -0.36, 24.39 -0.74, 38.96 0 M9.4 0 C17.75 -0.27, 25.72 1.09, 38.96 0 M38.96 0 C46.39 -0.15, 49.92 1.38, 48.36 9.4 M38.96 0 C44.21 2.28, 49.32 3.21, 48.36 9.4 M48.36 9.4 C47.81 17.5, 46.98 25.06, 48.36 28.21 M48.36 9.4 C47.68 15.73, 49 20.51, 48.36 28.21 M48.36 28.21 C48.53 35.59, 43.52 38.9, 38.96 37.61 M48.36 28.21 C46.71 36.55, 45.22 37.23, 38.96 37.61 M38.96 37.61 C27.18 38.6, 15.87 38.66, 9.4 37.61 M38.96 37.61 C29.7 37.17, 18.77 36.81, 9.4 37.61 M9.4 37.61 C4.22 36.57, -0.08 36.39, 0 28.21 M9.4 37.61 C5.34 37.86, -2.22 33.17, 0 28.21 M0 28.21 C1.22 24.53, -0.96 18.32, 0 9.4 M0 28.21 C0.1 22.66, -0.25 14.8, 0 9.4 M0 9.4 C0.9 3.54, 2.59 -0.86, 9.4 0 M0 9.4 C-2.1 3.39, 3.19 0.75, 9.4 0" stroke="#1e1e1e" stroke-width="2" fill="none"></path></g><g stroke-linecap="round"><g transform="translate(168.71774118646135 582.2098395527187) rotate(0 127.63150842076448 51.787589985001205)"><path d="M-0.84 0.14 C41.29 17.34, 211.24 85.85, 253.74 103.39 M0.92 -0.84 C43.35 16.48, 214.05 87.01, 256.1 104.41" stroke="#1e1e1e" stroke-width="2" fill="none"></path></g><g transform="translate(168.71774118646135 582.2098395527187) rotate(0 127.63150842076448 51.787589985001205)"><path d="M231.12 103.34 C240.9 102.83, 248.6 103.88, 256.1 104.41 M231.12 103.34 C241.67 103.49, 251.11 104.29, 256.1 104.41" stroke="#1e1e1e" stroke-width="2" fill="none"></path></g><g transform="translate(168.71774118646135 582.2098395527187) rotate(0 127.63150842076448 51.787589985001205)"><path d="M237.66 87.54 C244.95 93.02, 250.15 100.11, 256.1 104.41 M237.66 87.54 C245.81 93.8, 252.74 100.68, 256.1 104.41" stroke="#1e1e1e" stroke-width="2" fill="none"></path></g></g><mask></mask><g stroke-linecap="round"><g transform="translate(567.9078376477773 657.2594106173792) rotate(0 45.85682292751335 -72.09412514989458)"><path d="M-0.27 -0.72 C15.15 -24.93, 76.6 -121.83, 91.98 -145.71 M1.8 1.52 C17.16 -22.52, 76.46 -120.07, 91.44 -144.64" stroke="#1e1e1e" stroke-width="2" fill="none"></path></g><g transform="translate(567.9078376477773 657.2594106173792) rotate(0 45.85682292751335 -72.09412514989458)"><path d="M86.52 -120.13 C86.69 -125.15, 87.67 -131.39, 91.44 -144.64 M86.52 -120.13 C88.53 -128.84, 90.9 -138.73, 91.44 -144.64" stroke="#1e1e1e" stroke-width="2" fill="none"></path></g><g transform="translate(567.9078376477773 657.2594106173792) rotate(0 45.85682292751335 -72.09412514989458)"><path d="M71.91 -129.02 C75.82 -131.71, 80.57 -135.66, 91.44 -144.64 M71.91 -129.02 C79.35 -134.34, 87.12 -140.94, 91.44 -144.64" stroke="#1e1e1e" stroke-width="2" fill="none"></path></g></g><mask></mask><g stroke-linecap="round"><g transform="translate(1034.957039160603 422.1575026077935) rotate(0 56.08870011355975 -94.77482857775294)"><path d="M-0.74 -0.35 C7.16 -19.55, 29.11 -84.77, 48.05 -116.24 C67 -147.71, 102.29 -177.05, 112.92 -189.19 M1.08 -1.59 C8.84 -21, 29.06 -86.65, 47.6 -117.77 C66.14 -148.88, 101.65 -176.52, 112.32 -188.28" stroke="#1e1e1e" stroke-width="2" fill="none"></path></g><g transform="translate(1034.957039160603 422.1575026077935) rotate(0 56.08870011355975 -94.77482857775294)"><path d="M101.27 -165.85 C104.8 -172.19, 111.23 -181.21, 112.32 -188.28 M101.27 -165.85 C103.5 -171.38, 106.83 -175.76, 112.32 -188.28" stroke="#1e1e1e" stroke-width="2" fill="none"></path></g><g transform="translate(1034.957039160603 422.1575026077935) rotate(0 56.08870011355975 -94.77482857775294)"><path d="M89.44 -178.2 C97.08 -180.07, 107.71 -184.69, 112.32 -188.28 M89.44 -178.2 C94.39 -180.75, 100.52 -182.2, 112.32 -188.28" stroke="#1e1e1e" stroke-width="2" fill="none"></path></g></g><mask></mask><g stroke-linecap="round"><g transform="translate(1097.8008795736023 478.8768496088769) rotate(343.2519028083086 124.5563677028822 63.41822064861026)"><path d="M-0.49 0.72 C20.94 15.97, 87.94 69.54, 129.63 90.55 C171.31 111.56, 229.51 120.86, 249.6 126.78 M1.45 0.05 C23.19 15, 90.76 67.76, 131.97 88.54 C173.18 109.31, 228.95 118.28, 248.73 124.7" stroke="#1e1e1e" stroke-width="2" fill="none"></path></g><g transform="translate(1097.8008795736023 478.8768496088769) rotate(343.2519028083086 124.5563677028822 63.41822064861026)"><path d="M223.84 127.14 C234.63 125.14, 243.33 125.01, 248.73 124.7 M223.84 127.14 C232.7 127.27, 240.34 125.7, 248.73 124.7" stroke="#1e1e1e" stroke-width="2" fill="none"></path></g><g transform="translate(1097.8008795736023 478.8768496088769) rotate(343.2519028083086 124.5563677028822 63.41822064861026)"><path d="M228.1 110.58 C237.11 114.92, 244.18 121.16, 248.73 124.7 M228.1 110.58 C235.55 116.36, 241.74 120.45, 248.73 124.7" stroke="#1e1e1e" stroke-width="2" fill="none"></path></g></g><mask></mask><g stroke-linecap="round"><g transform="translate(1080.0640864038633 493.78742339108976) rotate(0 92.83766182187082 -57.54742729355985)"><path d="M0.61 0.88 C15.84 -12.4, 60.96 -59.62, 91.51 -79.09 C122.06 -98.56, 168.28 -110.08, 183.91 -115.97 M-0.53 0.29 C14.64 -12.82, 60.07 -58.22, 91.19 -77.46 C122.31 -96.7, 170.46 -108.59, 186.21 -115.14" stroke="#1e1e1e" stroke-width="2" fill="none"></path></g><g transform="translate(1080.0640864038633 493.78742339108976) rotate(0 92.83766182187082 -57.54742729355985)"><path d="M166.75 -99.44 C174.17 -102.43, 179.04 -111.18, 186.21 -115.14 M166.75 -99.44 C170.97 -102.62, 175.11 -107.02, 186.21 -115.14" stroke="#1e1e1e" stroke-width="2" fill="none"></path></g><g transform="translate(1080.0640864038633 493.78742339108976) rotate(0 92.83766182187082 -57.54742729355985)"><path d="M161.21 -115.62 C170.43 -113.62, 177.02 -117.35, 186.21 -115.14 M161.21 -115.62 C166.7 -115.21, 172.08 -116, 186.21 -115.14" stroke="#1e1e1e" stroke-width="2" fill="none"></path></g></g><mask></mask><g stroke-linecap="round" transform="translate(1158.7234466012978 152.6268791380844) rotate(0 61.91993843459386 54.3049345204131)"><path d="M63.55 0.06 C72.55 -0.37, 83.66 3.52, 92 7.76 C100.34 12, 108.44 18.5, 113.58 25.48 C118.72 32.45, 121.92 41.36, 122.83 49.63 C123.74 57.9, 122.72 67.28, 119.04 75.09 C115.35 82.89, 107.99 91.07, 100.71 96.47 C93.43 101.86, 84.72 105.88, 75.37 107.47 C66.02 109.05, 54.05 108.11, 44.62 105.98 C35.18 103.85, 25.65 100.18, 18.74 94.68 C11.83 89.18, 6.1 81.03, 3.16 72.98 C0.21 64.94, -0.51 55, 1.06 46.39 C2.63 37.78, 6.98 28.1, 12.56 21.33 C18.15 14.57, 25.02 9.26, 34.58 5.81 C44.14 2.36, 63.02 1.3, 69.93 0.62 C76.83 -0.07, 76.23 0.89, 75.99 1.73 M51.01 0.91 C59.86 -1.29, 72.69 1.06, 81.59 3.76 C90.49 6.46, 97.95 11.54, 104.42 17.09 C110.9 22.65, 117.2 29.28, 120.46 37.07 C123.71 44.86, 125.81 55.4, 123.94 63.84 C122.07 72.27, 115.58 81.26, 109.24 87.7 C102.9 94.14, 94.6 98.8, 85.9 102.47 C77.2 106.15, 66.34 109.88, 57.03 109.76 C47.73 109.64, 38.03 106.3, 30.07 101.75 C22.1 97.2, 14.23 89.7, 9.23 82.48 C4.22 75.25, 0.71 66.91, 0.05 58.41 C-0.6 49.91, 1.23 39.09, 5.3 31.49 C9.37 23.9, 16.83 18.02, 24.47 12.83 C32.11 7.64, 46.79 2.29, 51.12 0.34 C55.45 -1.6, 50.52 0.2, 50.44 1.15" stroke="#1e1e1e" stroke-width="2" fill="none"></path></g><g transform="translate(1182.5794084164172 195.03344124032674) rotate(0 38.27996826171875 12.5)"><text x="38.27996826171875" y="17.52" font-family="Virgil, Segoe UI Emoji" font-size="20px" fill="#1e1e1e" text-anchor="middle" style="white-space: pre;" direction="ltr" dominant-baseline="alphabetic">worker 1</text></g><g stroke-linecap="round" transform="translate(1275.0714503695272 303.3941910915919) rotate(0 61.91993843459386 54.3049345204131)"><path d="M48.53 1.98 C57.32 -0.7, 69.69 -1.01, 78.98 1.17 C88.28 3.34, 97.45 9.03, 104.29 15.03 C111.14 21.04, 116.75 29.5, 120.03 37.19 C123.31 44.87, 125.14 53.09, 123.96 61.14 C122.78 69.19, 118.76 78.48, 112.94 85.48 C107.11 92.49, 97.69 99.28, 89.01 103.18 C80.33 107.09, 70.26 109.13, 60.87 108.91 C51.47 108.69, 41.06 106, 32.64 101.87 C24.23 97.73, 15.73 91.06, 10.38 84.12 C5.03 77.18, 1.47 68.53, 0.56 60.23 C-0.35 51.92, 1.36 42.21, 4.94 34.3 C8.52 26.38, 13.58 18.46, 22.03 12.73 C30.48 6.99, 49.08 1.87, 55.63 -0.09 C62.17 -2.06, 61.41 0.08, 61.33 0.94 M79.41 1.26 C88.23 2.63, 97.78 9.42, 104.93 15.56 C112.08 21.7, 119.33 30.19, 122.28 38.12 C125.24 46.05, 124.32 55, 122.65 63.13 C120.99 71.26, 117.96 80.22, 112.29 86.9 C106.63 93.58, 97.76 99.76, 88.69 103.21 C79.62 106.66, 67.61 107.94, 57.88 107.61 C48.14 107.27, 38.23 105.47, 30.28 101.19 C22.32 96.91, 15.17 88.92, 10.14 81.93 C5.11 74.94, 0.78 67.55, 0.07 59.24 C-0.63 50.92, 1.88 39.99, 5.91 32.02 C9.95 24.05, 17.12 16.52, 24.26 11.41 C31.4 6.3, 39.45 2.67, 48.73 1.38 C58.01 0.09, 74.72 3.55, 79.92 3.67 C85.11 3.79, 80.17 1.32, 79.9 2.08" stroke="#1e1e1e" stroke-width="2" fill="none"></path></g><g transform="translate(1301.6374112691192 332.79973816072925) rotate(0 35.569969177246094 25)"><text x="35.569969177246094" y="17.52" font-family="Virgil, Segoe UI Emoji" font-size="20px" fill="#1e1e1e" text-anchor="middle" style="white-space: pre;" direction="ltr" dominant-baseline="alphabetic">worker </text><text x="35.569969177246094" y="42.519999999999996" font-family="Virgil, Segoe UI Emoji" font-size="20px" fill="#1e1e1e" text-anchor="middle" style="white-space: pre;" direction="ltr" dominant-baseline="alphabetic">2</text></g><g stroke-linecap="round" transform="translate(1361.3988881075275 510.56390728037513) rotate(0 61.91993843459386 54.3049345204131)"><path d="M47.47 2.35 C56.23 -0.38, 67.76 -0.65, 76.85 1.27 C85.95 3.19, 94.93 8.26, 102.04 13.86 C109.15 19.46, 115.87 27.02, 119.52 34.86 C123.16 42.69, 125.02 52.43, 123.92 60.87 C122.81 69.31, 118.32 78.53, 112.9 85.49 C107.47 92.45, 99.7 98.91, 91.36 102.64 C83.03 106.37, 72.68 107.77, 62.88 107.87 C53.07 107.96, 41.11 106.93, 32.54 103.23 C23.96 99.53, 16.66 92.76, 11.43 85.64 C6.2 78.53, 2.28 68.99, 1.15 60.55 C0.02 52.11, 1.22 42.69, 4.62 35 C8.02 27.31, 13.03 20.28, 21.54 14.42 C30.05 8.56, 48.46 2.03, 55.68 -0.16 C62.89 -2.35, 64.8 0.35, 64.84 1.27 M33.42 4.94 C41.09 0.79, 52.17 0.57, 61.94 0.81 C71.7 1.05, 83.45 2.52, 92.02 6.38 C100.59 10.24, 108.16 17.13, 113.34 23.96 C118.51 30.78, 121.78 38.87, 123.07 47.32 C124.36 55.77, 124.68 66.74, 121.08 74.65 C117.48 82.56, 108.92 89.47, 101.46 94.79 C94 100.11, 85.25 104.38, 76.34 106.6 C67.43 108.81, 57.47 110.17, 47.99 108.07 C38.5 105.97, 26.62 99.68, 19.44 93.98 C12.27 88.28, 7.93 81.63, 4.96 73.87 C1.99 66.1, 0.37 55.67, 1.63 47.39 C2.88 39.11, 7.03 31.34, 12.49 24.21 C17.94 17.09, 30.91 7.6, 34.36 4.64 C37.81 1.69, 32.63 5.21, 33.17 6.47" stroke="#1e1e1e" stroke-width="2" fill="none"></path></g><g transform="translate(1387.9648490071195 539.9694543495125) rotate(0 35.569969177246094 25)"><text x="35.569969177246094" y="17.52" font-family="Virgil, Segoe UI Emoji" font-size="20px" fill="#1e1e1e" text-anchor="middle" style="white-space: pre;" direction="ltr" dominant-baseline="alphabetic">worker </text><text x="35.569969177246094" y="42.519999999999996" font-family="Virgil, Segoe UI Emoji" font-size="20px" fill="#1e1e1e" text-anchor="middle" style="white-space: pre;" direction="ltr" dominant-baseline="alphabetic">3</text></g><g stroke-linecap="round" transform="translate(754.935051149705 205.6230180317648) rotate(0 93.07415712447073 92.34598697042475)"><path d="M117.5 23.25 C135.75 41.79, 153.29 59.66, 162.65 69.75 M117.5 23.25 C129.92 35.95, 142.66 50.46, 162.65 69.75 M162.65 69.75 C184.58 91.79, 184.35 93.97, 162.65 116.25 M162.65 69.75 C185.36 92.21, 184.74 93.93, 162.65 116.25 M162.65 116.25 C146.92 134.74, 126.78 150.69, 117.5 161.44 M162.65 116.25 C152.8 126.25, 142.91 135.87, 117.5 161.44 M117.5 161.44 C92.81 183.08, 94.36 183.99, 70.5 161.44 M117.5 161.44 C92 186.25, 95.72 184.19, 70.5 161.44 M70.5 161.44 C58.81 151.24, 47.55 138.37, 23.5 116.25 M70.5 161.44 C52.13 143.93, 33.69 125.55, 23.5 116.25 M23.5 116.25 C-0.21 91.9, 0.12 94.52, 23.5 69.75 M23.5 116.25 C-0.23 91.04, -0.21 93.26, 23.5 69.75 M23.5 69.75 C40.33 52.78, 56.62 35.48, 70.5 23.25 M23.5 69.75 C36.04 56.91, 50.23 43.08, 70.5 23.25 M70.5 23.25 C94.36 1.32, 94.47 0.65, 117.5 23.25 M70.5 23.25 C92.77 -0.98, 94.84 -0.23, 117.5 23.25" stroke="#1e1e1e" stroke-width="2" fill="none"></path></g><g transform="translate(811.0921706054942 272.79601151697716) rotate(0 36.87995910644531 25)"><text x="36.87995910644531" y="17.52" font-family="Virgil, Segoe UI Emoji" font-size="20px" fill="#1e1e1e" text-anchor="middle" style="white-space: pre;" direction="ltr" dominant-baseline="alphabetic">redis</text><text x="36.87995910644531" y="42.519999999999996" font-family="Virgil, Segoe UI Emoji" font-size="20px" fill="#1e1e1e" text-anchor="middle" style="white-space: pre;" direction="ltr" dominant-baseline="alphabetic">pub/sub</text></g><g transform="translate(747.9208406862435 414.51656560563606) rotate(0 100.64990234375 12.5)"><text x="0" y="17.52" font-family="Virgil, Segoe UI Emoji" font-size="20px" fill="#1e1e1e" text-anchor="start" style="white-space: pre;" direction="ltr" dominant-baseline="alphabetic">redis message queue</text></g><g stroke-linecap="round" transform="translate(260.9278596733311 86.64680828479322) rotate(0 57.10085315854394 51.15236111295417)"><path d="M45.54 1.04 C54.2 -1.43, 65.62 -0.44, 74.72 2.12 C83.82 4.67, 93.81 9.99, 100.13 16.37 C106.46 22.75, 110.97 31.72, 112.66 40.38 C114.35 49.03, 113.22 60.09, 110.27 68.28 C107.32 76.47, 101.9 84.12, 94.95 89.51 C88 94.91, 77.78 99.06, 68.57 100.65 C59.37 102.23, 48.85 101.54, 39.73 99.02 C30.6 96.51, 20.28 91.96, 13.81 85.57 C7.35 79.19, 2.88 69.09, 0.94 60.71 C-1.01 52.33, -0.78 43.26, 2.13 35.29 C5.05 27.32, 10.63 18.56, 18.42 12.9 C26.2 7.24, 42.84 3.41, 48.86 1.35 C54.88 -0.71, 54.36 -0.16, 54.54 0.55 M79.21 2.59 C88.06 4.77, 97 11.87, 102.92 18.8 C108.84 25.74, 113.64 35.42, 114.71 44.19 C115.78 52.96, 113.19 63.34, 109.33 71.43 C105.48 79.53, 99.14 87.7, 91.6 92.75 C84.06 97.81, 73.55 100.9, 64.1 101.79 C54.66 102.68, 43.5 101.41, 34.92 98.09 C26.35 94.77, 18.25 88.77, 12.65 81.87 C7.05 74.98, 2.65 65.12, 1.31 56.71 C-0.02 48.31, 1.15 39.33, 4.66 31.43 C8.17 23.53, 14.76 14.35, 22.38 9.31 C30 4.27, 40.93 2.24, 50.37 1.2 C59.82 0.16, 74.54 2.61, 79.07 3.06 C83.6 3.52, 77.73 3.03, 77.54 3.93" stroke="#1e1e1e" stroke-width="2" fill="none"></path></g><g transform="translate(298.9223242537864 125.12898798107426) rotate(0 19.22998809814453 12.5)"><text x="19.22998809814453" y="17.52" font-family="Virgil, Segoe UI Emoji" font-size="20px" fill="#1e1e1e" text-anchor="middle" style="white-space: pre;" direction="ltr" dominant-baseline="alphabetic">ws 1</text></g><g stroke-linecap="round" transform="translate(432.42360714902134 10) rotate(0 57.10085315854394 51.15236111295417)"><path d="M67.31 0.61 C76.23 1.2, 86.64 5.59, 93.72 11.11 C100.81 16.64, 106.69 25.74, 109.84 33.76 C112.99 41.77, 114.12 50.69, 112.64 59.21 C111.16 67.74, 107.12 78.29, 100.95 84.92 C94.79 91.54, 84.7 96.14, 75.66 98.94 C66.63 101.75, 56.1 103.37, 46.77 101.75 C37.44 100.13, 26.96 94.7, 19.66 89.23 C12.37 83.76, 6.15 76.94, 3.01 68.92 C-0.12 60.91, -0.88 49.72, 0.84 41.14 C2.55 32.56, 7.01 23.85, 13.29 17.46 C19.57 11.07, 29.03 5.34, 38.52 2.79 C48 0.25, 64.59 2.31, 70.2 2.19 C75.8 2.08, 72.57 1.54, 72.16 2.08 M38.73 1.41 C47.21 -2.06, 58.94 -1.31, 68.18 0.35 C77.43 2.01, 87.17 5.83, 94.21 11.36 C101.25 16.9, 107.27 25.4, 110.43 33.57 C113.59 41.73, 114.98 51.95, 113.19 60.33 C111.4 68.71, 106.19 77.23, 99.69 83.83 C93.18 90.43, 82.96 97.08, 74.17 99.93 C65.37 102.78, 55.86 102.82, 46.94 100.94 C38.03 99.05, 27.96 94.04, 20.67 88.61 C13.38 83.17, 6.7 76.05, 3.21 68.32 C-0.28 60.58, -2.15 50.82, -0.27 42.2 C1.62 33.58, 8.01 23.11, 14.53 16.59 C21.05 10.07, 34.99 5.08, 38.86 3.1 C42.74 1.12, 37.55 3.93, 37.8 4.72" stroke="#1e1e1e" stroke-width="2" fill="none"></path></g><g transform="translate(466.0080756967618 48.48217969628104) rotate(0 23.639984130859375 12.5)"><text x="23.639984130859375" y="17.52" font-family="Virgil, Segoe UI Emoji" font-size="20px" fill="#1e1e1e" text-anchor="middle" style="white-space: pre;" direction="ltr" dominant-baseline="alphabetic">ws 2</text></g><g stroke-linecap="round" transform="translate(617.4043016174164 51.38893680257888) rotate(0 57.10085315854394 51.15236111295417)"><path d="M61.34 0.78 C70.42 0.64, 81.18 3.71, 88.88 8.28 C96.59 12.86, 103.25 20.48, 107.54 28.23 C111.83 35.97, 115.02 46.06, 114.61 54.75 C114.2 63.45, 110.52 73.19, 105.09 80.39 C99.67 87.59, 90.58 94.29, 82.07 97.94 C73.55 101.58, 63.49 102.99, 54.01 102.24 C44.54 101.49, 33.27 98.26, 25.21 93.44 C17.14 88.63, 9.67 81.13, 5.63 73.37 C1.6 65.61, 0.38 55.37, 0.99 46.87 C1.6 38.38, 4.04 29.53, 9.28 22.42 C14.52 15.31, 22.99 7.8, 32.42 4.21 C41.85 0.63, 59.42 1.35, 65.87 0.91 C72.32 0.48, 71.11 0.64, 71.13 1.6 M38.34 4.13 C46.78 0.87, 58.83 1.09, 68.01 2.25 C77.18 3.41, 86.46 5.75, 93.41 11.09 C100.35 16.43, 106.14 26.02, 109.67 34.31 C113.21 42.59, 116.07 52.46, 114.6 60.78 C113.14 69.09, 107.11 77.83, 100.87 84.18 C94.63 90.53, 86.27 95.96, 77.18 98.87 C68.09 101.78, 56.12 103.16, 46.34 101.63 C36.56 100.1, 25.71 95.47, 18.49 89.68 C11.27 83.89, 6 74.68, 3.02 66.87 C0.04 59.06, -1.24 51.24, 0.61 42.82 C2.46 34.4, 7.66 22.89, 14.1 16.36 C20.55 9.82, 35.01 5.81, 39.28 3.62 C43.56 1.43, 39.64 2.32, 39.75 3.21" stroke="#1e1e1e" stroke-width="2" fill="none"></path></g><g transform="translate(651.2987677237506 89.87111649885992) rotate(0 23.329986572265625 12.5)"><text x="23.329986572265625" y="17.52" font-family="Virgil, Segoe UI Emoji" font-size="20px" fill="#1e1e1e" text-anchor="middle" style="white-space: pre;" direction="ltr" dominant-baseline="alphabetic">ws 3</text></g><g stroke-linecap="round"><g transform="translate(773.3719513731867 255.1864733882926) rotate(0 -197.4705304582585 -44.39121908628863)"><path d="M0.96 -0.95 C-34.18 -5.97, -144.01 -16.27, -210 -31.1 C-275.99 -45.94, -364.13 -80.15, -394.99 -89.94 M0 1.16 C-35.36 -3.63, -144.96 -15.01, -210.95 -29.94 C-276.93 -44.88, -365.2 -78.68, -395.9 -88.45" stroke="#1e1e1e" stroke-width="2" fill="none"></path></g><g transform="translate(773.3719513731867 255.1864733882926) rotate(0 -197.4705304582585 -44.39121908628863)"><path d="M-23.42 4.59 C-16.01 2.35, -6.65 -0.13, 0.96 -0.95 M-23.42 4.59 C-16.35 2.72, -7.86 0.8, 0.96 -0.95" stroke="#1e1e1e" stroke-width="2" fill="none"></path></g><g transform="translate(773.3719513731867 255.1864733882926) rotate(0 -197.4705304582585 -44.39121908628863)"><path d="M-21.28 -12.38 C-14.79 -8.36, -6.22 -4.6, 0.96 -0.95 M-21.28 -12.38 C-14.97 -8.68, -7.18 -5.06, 0.96 -0.95" stroke="#1e1e1e" stroke-width="2" fill="none"></path></g><g transform="translate(773.3719513731867 255.1864733882926) rotate(0 -197.4705304582585 -44.39121908628863)"><path d="M-370.9 -88.89 C-381.68 -88.53, -390.47 -88.82, -395.9 -88.45 M-370.9 -88.89 C-380.02 -88.64, -387.68 -88.61, -395.9 -88.45" stroke="#1e1e1e" stroke-width="2" fill="none"></path></g><g transform="translate(773.3719513731867 255.1864733882926) rotate(0 -197.4705304582585 -44.39121908628863)"><path d="M-376.47 -72.72 C-385.07 -78.35, -391.81 -84.58, -395.9 -88.45 M-376.47 -72.72 C-383.7 -77.78, -389.55 -83.05, -395.9 -88.45" stroke="#1e1e1e" stroke-width="2" fill="none"></path></g></g><mask></mask><g stroke-linecap="round"><g transform="translate(803.600781745974 234.51049696982955) rotate(0 -133.89992307663306 -58.440321681108344)"><path d="M0.61 -0.87 C-29.44 -10.99, -134.71 -40.54, -179.37 -60.09 C-224.03 -79.64, -252.71 -108.59, -267.32 -118.17 M-0.52 1.29 C-30.82 -8.77, -135.72 -39.37, -180.37 -59.12 C-225.02 -78.86, -253.98 -107.6, -268.41 -117.17" stroke="#1e1e1e" stroke-width="2" fill="none"></path></g><g transform="translate(803.600781745974 234.51049696982955) rotate(0 -133.89992307663306 -58.440321681108344)"><path d="M-24.36 0.29 C-16.36 -0.45, -7.26 -1.74, 0.61 -0.87 M-24.36 0.29 C-18.95 0.05, -11.6 -1.1, 0.61 -0.87" stroke="#1e1e1e" stroke-width="2" fill="none"></path></g><g transform="translate(803.600781745974 234.51049696982955) rotate(0 -133.89992307663306 -58.440321681108344)"><path d="M-19.26 -16.04 C-13.1 -10.57, -5.94 -5.69, 0.61 -0.87 M-19.26 -16.04 C-15.17 -12.18, -9.1 -9.24, 0.61 -0.87" stroke="#1e1e1e" stroke-width="2" fill="none"></path></g><g transform="translate(803.600781745974 234.51049696982955) rotate(0 -133.89992307663306 -58.440321681108344)"><path d="M-244.58 -109.63 C-255.08 -112.53, -264.44 -116.24, -268.41 -117.17 M-244.58 -109.63 C-251.39 -111.47, -256.28 -114.22, -268.41 -117.17" stroke="#1e1e1e" stroke-width="2" fill="none"></path></g><g transform="translate(803.600781745974 234.51049696982955) rotate(0 -133.89992307663306 -58.440321681108344)"><path d="M-255 -96.07 C-261.63 -104.16, -267.05 -112.99, -268.41 -117.17 M-255 -96.07 C-259.16 -101.31, -261.44 -107.46, -268.41 -117.17" stroke="#1e1e1e" stroke-width="2" fill="none"></path></g></g><mask></mask><g stroke-linecap="round"><g transform="translate(829.3353820261309 205.15189649389868) rotate(0 -44.48442984813937 -40.0730740456263)"><path d="M0.08 0.9 C-7.18 -9.82, -28.17 -50.52, -42.88 -64.17 C-57.59 -77.83, -80.46 -78.37, -88.16 -81.04 M-1.34 0.32 C-8.75 -10.24, -28.8 -49.47, -43.42 -62.91 C-58.04 -76.35, -81.38 -77.58, -89.05 -80.32" stroke="#1e1e1e" stroke-width="2" fill="none"></path></g><g transform="translate(829.3353820261309 205.15189649389868) rotate(0 -44.48442984813937 -40.0730740456263)"><path d="M-19.43 -14.74 C-10.95 -7.88, -6.34 -4, 0.08 0.9 M-19.43 -14.74 C-15.71 -11.38, -11.79 -7.64, 0.08 0.9" stroke="#1e1e1e" stroke-width="2" fill="none"></path></g><g transform="translate(829.3353820261309 205.15189649389868) rotate(0 -44.48442984813937 -40.0730740456263)"><path d="M-4.81 -23.62 C-1.54 -13.59, -2.15 -6.53, 0.08 0.9 M-4.81 -23.62 C-4.2 -18.47, -3.3 -12.89, 0.08 0.9" stroke="#1e1e1e" stroke-width="2" fill="none"></path></g><g transform="translate(829.3353820261309 205.15189649389868) rotate(0 -44.48442984813937 -40.0730740456263)"><path d="M-65.65 -83.17 C-72.5 -80.85, -83.21 -81.52, -89.05 -80.32 M-65.65 -83.17 C-70.67 -82.57, -75.62 -81.47, -89.05 -80.32" stroke="#1e1e1e" stroke-width="2" fill="none"></path></g><g transform="translate(829.3353820261309 205.15189649389868) rotate(0 -44.48442984813937 -40.0730740456263)"><path d="M-69.29 -67.46 C-74.85 -70.75, -84.26 -77.03, -89.05 -80.32 M-69.29 -67.46 C-73.41 -70.1, -77.6 -72.24, -89.05 -80.32" stroke="#1e1e1e" stroke-width="2" fill="none"></path></g></g><mask></mask><g stroke-linecap="round" transform="translate(305.03628909204417 315.2391630289103) rotate(0 86.06843844122704 80.57637958257601)"><path d="M108.75 20.25 C124.47 34.85, 137.76 47.53, 150.39 60.75 M108.75 20.25 C119.67 29.53, 129.25 40.21, 150.39 60.75 M150.39 60.75 C172.13 79.23, 173.9 79.41, 150.39 101.25 M150.39 60.75 C173.15 79.56, 170.22 78.98, 150.39 101.25 M150.39 101.25 C138.37 110.27, 130.64 121.29, 108.75 140.9 M150.39 101.25 C138.45 113.48, 125.34 123.75, 108.75 140.9 M108.75 140.9 C85.38 160.98, 88.93 159.88, 65.25 140.9 M108.75 140.9 C89.1 159.76, 85.92 160.01, 65.25 140.9 M65.25 140.9 C55.37 132.88, 43.95 124.28, 21.75 101.25 M65.25 140.9 C48.39 125.85, 33.57 111.79, 21.75 101.25 M21.75 101.25 C1.35 79.34, -0.32 79.96, 21.75 60.75 M21.75 101.25 C1.56 82.99, -0.71 82.92, 21.75 60.75 M21.75 60.75 C32.72 52.55, 40.44 40.33, 65.25 20.25 M21.75 60.75 C35.92 47.5, 51.27 33.42, 65.25 20.25 M65.25 20.25 C86.92 -1.25, 85.03 0.09, 108.75 20.25 M65.25 20.25 C85.27 0.68, 85.04 -0.88, 108.75 20.25" stroke="#1e1e1e" stroke-width="2" fill="none"></path></g><g transform="translate(354.3805440182241 383.5273528201983) rotate(0 36.689964294433594 12.5)"><text x="36.689964294433594" y="17.52" font-family="Virgil, Segoe UI Emoji" font-size="20px" fill="#1e1e1e" text-anchor="middle" style="white-space: pre;" direction="ltr" dominant-baseline="alphabetic">haproxy</text></g><g stroke-linecap="round" transform="translate(10 292.8771212865049) rotate(0 73.29043215200272 55.568086828452806)"><path d="M27.78 0 C56.85 2.16, 84.39 1.06, 118.8 0 M27.78 0 C47.5 0.17, 68.4 -0.57, 118.8 0 M118.8 0 C137.07 -1.83, 145.94 7.28, 146.58 27.78 M118.8 0 C138.84 1.16, 145 7.15, 146.58 27.78 M146.58 27.78 C145.64 45.79, 147.26 63.88, 146.58 83.35 M146.58 27.78 C146.43 44.54, 146.78 62.25, 146.58 83.35 M146.58 83.35 C147.99 102.87, 139.13 111.69, 118.8 111.14 M146.58 83.35 C146.06 102.18, 136.89 110.14, 118.8 111.14 M118.8 111.14 C94.14 110.54, 73.47 110, 27.78 111.14 M118.8 111.14 C100.44 111.29, 81.66 111.77, 27.78 111.14 M27.78 111.14 C9.93 110.86, -1.15 99.87, 0 83.35 M27.78 111.14 C10.83 112.78, 1.41 103.05, 0 83.35 M0 83.35 C0.73 67.13, -1.21 51.26, 0 27.78 M0 83.35 C0.4 64.99, 1.03 44.05, 0 27.78 M0 27.78 C0.52 8.62, 10.74 -0.65, 27.78 0 M0 27.78 C2.05 10.99, 7.45 0.93, 27.78 0" stroke="#1e1e1e" stroke-width="2" fill="none"></path></g><g transform="translate(42.23904361325185 251.9976912972511) rotate(0 46.109962463378906 12.5)"><text x="0" y="17.52" font-family="Virgil, Segoe UI Emoji" font-size="20px" fill="#1e1e1e" text-anchor="start" style="white-space: pre;" direction="ltr" dominant-baseline="alphabetic">Browser 1</text></g><g transform="translate(24.822402377696562 338.8728488595807) rotate(0 56.039939880371094 12.5)"><text x="0" y="17.52" font-family="Virgil, Segoe UI Emoji" font-size="20px" fill="#1e1e1e" text-anchor="start" style="white-space: pre;" direction="ltr" dominant-baseline="alphabetic">ts-frontend</text></g><g stroke-linecap="round"><g transform="translate(163.92837714119014 349.7510846922387) rotate(0 73.79783264125945 15.19416289922765)"><path d="M-0.33 -1.19 C23.89 3.93, 121.16 25.12, 145.71 30.4 M1.7 0.81 C26.26 6.09, 123.81 26.46, 147.92 31.57" stroke="#1e1e1e" stroke-width="2" fill="none"></path></g><g transform="translate(163.92837714119014 349.7510846922387) rotate(0 73.79783264125945 15.19416289922765)"><path d="M24.44 -4.58 C14.23 -5.1, 6.83 -1.86, -0.33 -1.19 M24.44 -4.58 C17.34 -3.07, 11.91 -2.11, -0.33 -1.19" stroke="#1e1e1e" stroke-width="2" fill="none"></path></g><g transform="translate(163.92837714119014 349.7510846922387) rotate(0 73.79783264125945 15.19416289922765)"><path d="M20.83 12.13 C11.85 6.07, 5.66 3.76, -0.33 -1.19 M20.83 12.13 C14.57 9.44, 10.04 6.2, -0.33 -1.19" stroke="#1e1e1e" stroke-width="2" fill="none"></path></g><g transform="translate(163.92837714119014 349.7510846922387) rotate(0 73.79783264125945 15.19416289922765)"><path d="M123.17 35.11 C129.43 32.42, 138.48 33.36, 147.92 31.57 M123.17 35.11 C128.51 34.98, 135.53 34.2, 147.92 31.57" stroke="#1e1e1e" stroke-width="2" fill="none"></path></g><g transform="translate(163.92837714119014 349.7510846922387) rotate(0 73.79783264125945 15.19416289922765)"><path d="M126.7 18.37 C131.74 21.23, 139.63 27.74, 147.92 31.57 M126.7 18.37 C131.21 22.45, 137.35 25.88, 147.92 31.57" stroke="#1e1e1e" stroke-width="2" fill="none"></path></g></g><mask></mask><g stroke-linecap="round"><g transform="translate(179.9141534093178 537.3514933591619) rotate(0 71.66106245811807 -55.954431225976805)"><path d="M-0.55 -1.17 C23.26 -19.74, 119.7 -92.55, 143.87 -111.19 M1.37 0.83 C24.91 -18.08, 119.08 -93.92, 142.85 -112.74" stroke="#1e1e1e" stroke-width="2" fill="none"></path></g><g transform="translate(179.9141534093178 537.3514933591619) rotate(0 71.66106245811807 -55.954431225976805)"><path d="M12.96 -22.21 C5.82 -14.34, 4.36 -5.16, -0.55 -1.17 M12.96 -22.21 C9.59 -17.16, 6.4 -12.95, -0.55 -1.17" stroke="#1e1e1e" stroke-width="2" fill="none"></path></g><g transform="translate(179.9141534093178 537.3514933591619) rotate(0 71.66106245811807 -55.954431225976805)"><path d="M23.32 -8.6 C12.13 -6.06, 6.65 -2.16, -0.55 -1.17 M23.32 -8.6 C17.54 -6.8, 11.88 -5.83, -0.55 -1.17" stroke="#1e1e1e" stroke-width="2" fill="none"></path></g><g transform="translate(179.9141534093178 537.3514933591619) rotate(0 71.66106245811807 -55.954431225976805)"><path d="M129.84 -91.39 C132.89 -99.85, 141.71 -107.11, 142.85 -112.74 M129.84 -91.39 C132.96 -96.42, 136.08 -102.3, 142.85 -112.74" stroke="#1e1e1e" stroke-width="2" fill="none"></path></g><g transform="translate(179.9141534093178 537.3514933591619) rotate(0 71.66106245811807 -55.954431225976805)"><path d="M119.16 -104.75 C126.38 -107.97, 139.34 -110.05, 142.85 -112.74 M119.16 -104.75 C124.76 -106.58, 130.43 -109.29, 142.85 -112.74" stroke="#1e1e1e" stroke-width="2" fill="none"></path></g></g><mask></mask><g stroke-linecap="round"><g transform="translate(364.51415992409056 307.25767912439915) rotate(0 -11.93916709750738 -60.60311494434882)"><path d="M-0.79 -1.2 C-4.61 -21.24, -19.99 -100.27, -24.07 -120.34 M0.99 0.79 C-2.85 -19.58, -20.89 -101.77, -24.87 -121.99" stroke="#1e1e1e" stroke-width="2" fill="none"></path></g><g transform="translate(364.51415992409056 307.25767912439915) rotate(0 -11.93916709750738 -60.60311494434882)"><path d="M-13.67 -22.63 C-13.09 -17.75, -7.01 -15.47, -0.79 -1.2 M-13.67 -22.63 C-10.87 -17.94, -7.22 -10.81, -0.79 -1.2" stroke="#1e1e1e" stroke-width="2" fill="none"></path></g><g transform="translate(364.51415992409056 307.25767912439915) rotate(0 -11.93916709750738 -60.60311494434882)"><path d="M3.12 -25.89 C0.31 -20.46, 3.02 -17.53, -0.79 -1.2 M3.12 -25.89 C1.44 -20.3, 0.62 -12.29, -0.79 -1.2" stroke="#1e1e1e" stroke-width="2" fill="none"></path></g><g transform="translate(364.51415992409056 307.25767912439915) rotate(0 -11.93916709750738 -60.60311494434882)"><path d="M-11.68 -100.75 C-16.32 -104.63, -15.48 -110.94, -24.87 -121.99 M-11.68 -100.75 C-15.73 -107.36, -19.02 -111.59, -24.87 -121.99" stroke="#1e1e1e" stroke-width="2" fill="none"></path></g><g transform="translate(364.51415992409056 307.25767912439915) rotate(0 -11.93916709750738 -60.60311494434882)"><path d="M-28.42 -97.25 C-29.69 -101.72, -25.48 -108.73, -24.87 -121.99 M-28.42 -97.25 C-28 -104.83, -26.84 -109.99, -24.87 -121.99" stroke="#1e1e1e" stroke-width="2" fill="none"></path></g></g><mask></mask><g stroke-linecap="round"><g transform="translate(412.9837992755456 320.32282033250567) rotate(0 33.38170622332382 -104.39849012236209)"><path d="M-0.08 -0.45 C11.2 -35.29, 56.94 -173.87, 68.35 -208.35 M-1.59 -1.73 C9.47 -36.51, 55.81 -173.22, 67.34 -207.25" stroke="#1e1e1e" stroke-width="2" fill="none"></path></g><g transform="translate(412.9837992755456 320.32282033250567) rotate(0 33.38170622332382 -104.39849012236209)"><path d="M-0.87 -25.43 C-1.18 -16.79, -1.54 -7.85, -0.08 -0.45 M-0.87 -25.43 C-0.47 -18.14, -0.94 -8.87, -0.08 -0.45" stroke="#1e1e1e" stroke-width="2" fill="none"></path></g><g transform="translate(412.9837992755456 320.32282033250567) rotate(0 33.38170622332382 -104.39849012236209)"><path d="M15.38 -20.09 C9.28 -13.35, 3.17 -6.31, -0.08 -0.45 M15.38 -20.09 C10.66 -14.38, 5.05 -6.8, -0.08 -0.45" stroke="#1e1e1e" stroke-width="2" fill="none"></path></g><g transform="translate(412.9837992755456 320.32282033250567) rotate(0 33.38170622332382 -104.39849012236209)"><path d="M67.9 -182.25 C66.8 -191.31, 65.97 -200.08, 67.34 -207.25 M67.9 -182.25 C68.1 -190.77, 67.2 -197.31, 67.34 -207.25" stroke="#1e1e1e" stroke-width="2" fill="none"></path></g><g transform="translate(412.9837992755456 320.32282033250567) rotate(0 33.38170622332382 -104.39849012236209)"><path d="M51.71 -187.74 C56.38 -194.84, 61.28 -201.67, 67.34 -207.25 M51.71 -187.74 C57 -194.63, 61.23 -199.44, 67.34 -207.25" stroke="#1e1e1e" stroke-width="2" fill="none"></path></g></g><mask></mask><g stroke-linecap="round"><g transform="translate(446.1465041004558 346.212892214714) rotate(0 101.5091794526079 -98.12510421545971)"><path d="M0.82 -0.68 C34.81 -33.71, 169.51 -165.17, 203.23 -197.83 M-0.21 1.58 C33.74 -31.36, 168.8 -163.98, 202.61 -196.77" stroke="#1e1e1e" stroke-width="2" fill="none"></path></g><g transform="translate(446.1465041004558 346.212892214714) rotate(0 101.5091794526079 -98.12510421545971)"><path d="M11.68 -23.2 C7.99 -16.62, 4.98 -11.33, 0.82 -0.68 M11.68 -23.2 C8.68 -16.15, 4.34 -9.39, 0.82 -0.68" stroke="#1e1e1e" stroke-width="2" fill="none"></path></g><g transform="translate(446.1465041004558 346.212892214714) rotate(0 101.5091794526079 -98.12510421545971)"><path d="M23.61 -10.95 C17 -7.26, 11.1 -4.93, 0.82 -0.68 M23.61 -10.95 C16.78 -7.74, 8.59 -4.94, 0.82 -0.68" stroke="#1e1e1e" stroke-width="2" fill="none"></path></g><g transform="translate(446.1465041004558 346.212892214714) rotate(0 101.5091794526079 -98.12510421545971)"><path d="M191.78 -174.24 C193.2 -178.72, 195.44 -184.33, 202.61 -196.77 M191.78 -174.24 C195.8 -181.9, 198.44 -189.67, 202.61 -196.77" stroke="#1e1e1e" stroke-width="2" fill="none"></path></g><g transform="translate(446.1465041004558 346.212892214714) rotate(0 101.5091794526079 -98.12510421545971)"><path d="M179.83 -186.48 C184.18 -188.07, 189.31 -190.73, 202.61 -196.77 M179.83 -186.48 C187.69 -190.3, 194.19 -194.12, 202.61 -196.77" stroke="#1e1e1e" stroke-width="2" fill="none"></path></g></g><mask></mask><g stroke-linecap="round"><g transform="translate(871.8722231732754 215.30215481066443) rotate(0 148.91679267895506 -28.21038748916544)"><path d="M-0.47 0.63 C22.91 -8.11, 89.37 -44.85, 139.16 -52.91 C188.95 -60.98, 271.97 -48.75, 298.3 -47.76 M1.49 -0.09 C24.79 -9.13, 88.74 -46.88, 138.1 -54.7 C187.46 -62.51, 271.19 -48.44, 297.67 -46.99" stroke="#1e1e1e" stroke-width="2" fill="none"></path></g><g transform="translate(871.8722231732754 215.30215481066443) rotate(0 148.91679267895506 -28.21038748916544)"><path d="M17.65 -16.6 C14.88 -13.45, 11.15 -9.12, -0.47 0.63 M17.65 -16.6 C13.17 -12.93, 9.22 -9.94, -0.47 0.63" stroke="#1e1e1e" stroke-width="2" fill="none"></path></g><g transform="translate(871.8722231732754 215.30215481066443) rotate(0 148.91679267895506 -28.21038748916544)"><path d="M24.49 -0.92 C20.36 -1.05, 15.22 0.04, -0.47 0.63 M24.49 -0.92 C18.66 -0.6, 13.26 -0.95, -0.47 0.63" stroke="#1e1e1e" stroke-width="2" fill="none"></path></g><g transform="translate(871.8722231732754 215.30215481066443) rotate(0 148.91679267895506 -28.21038748916544)"><path d="M273.42 -40.89 C279.51 -42.41, 284.56 -42.9, 297.67 -46.99 M273.42 -40.89 C278.12 -42.09, 283.18 -44.06, 297.67 -46.99" stroke="#1e1e1e" stroke-width="2" fill="none"></path></g><g transform="translate(871.8722231732754 215.30215481066443) rotate(0 148.91679267895506 -28.21038748916544)"><path d="M275.17 -57.9 C280.83 -55.9, 285.51 -52.88, 297.67 -46.99 M275.17 -57.9 C279.37 -55.49, 284.06 -53.84, 297.67 -46.99" stroke="#1e1e1e" stroke-width="2" fill="none"></path></g></g><mask></mask><g stroke-linecap="round"><g transform="translate(950.9368250465341 289.1553348522202) rotate(0 161.4852573822527 27.460140924094503)"><path d="M0.66 0.86 C26.3 2.23, 100.05 -0.24, 153.43 8.73 C206.8 17.7, 292.82 47.29, 320.92 54.66 M-0.45 0.26 C25.03 1.76, 98.27 1.29, 152.24 10.03 C206.22 18.77, 295.05 45.45, 323.42 52.7" stroke="#1e1e1e" stroke-width="2" fill="none"></path></g><g transform="translate(950.9368250465341 289.1553348522202) rotate(0 161.4852573822527 27.460140924094503)"><path d="M24.36 -7.12 C19.53 -5.62, 11.05 -4.01, 0.66 0.86 M24.36 -7.12 C16.73 -3.65, 6.96 -2.56, 0.66 0.86" stroke="#1e1e1e" stroke-width="2" fill="none"></path></g><g transform="translate(950.9368250465341 289.1553348522202) rotate(0 161.4852573822527 27.460140924094503)"><path d="M23.94 9.98 C19.16 6.94, 10.79 4.01, 0.66 0.86 M23.94 9.98 C16.41 7.3, 6.8 2.23, 0.66 0.86" stroke="#1e1e1e" stroke-width="2" fill="none"></path></g><g transform="translate(950.9368250465341 289.1553348522202) rotate(0 161.4852573822527 27.460140924094503)"><path d="M298.5 54.74 C306.53 53.31, 310.94 52.26, 323.42 52.7 M298.5 54.74 C308.34 55.01, 316.06 52.49, 323.42 52.7" stroke="#1e1e1e" stroke-width="2" fill="none"></path></g><g transform="translate(950.9368250465341 289.1553348522202) rotate(0 161.4852573822527 27.460140924094503)"><path d="M303.02 38.24 C309.91 41.22, 313.13 44.54, 323.42 52.7 M303.02 38.24 C311.28 44.41, 317.38 47.83, 323.42 52.7" stroke="#1e1e1e" stroke-width="2" fill="none"></path></g></g><mask></mask><g stroke-linecap="round"><g transform="translate(919.6779445864959 336.23422228729487) rotate(0 224.62826697259788 92.50112334963978)"><path d="M-1.14 -0.22 C34.04 10.57, 136.08 34.04, 210.95 65.14 C285.82 96.25, 408.18 166.48, 448.08 186.38 M0.46 -1.38 C35.52 9.02, 135.19 32.34, 210.18 63.33 C285.17 94.32, 410.84 164.23, 450.4 184.56" stroke="#1e1e1e" stroke-width="2" fill="none"></path></g><g transform="translate(919.6779445864959 336.23422228729487) rotate(0 224.62826697259788 92.50112334963978)"><path d="M23.79 -2.06 C16.21 -1.21, 10.34 -3.05, -1.14 -0.22 M23.79 -2.06 C13.72 -1.01, 4.74 0.05, -1.14 -0.22" stroke="#1e1e1e" stroke-width="2" fill="none"></path></g><g transform="translate(919.6779445864959 336.23422228729487) rotate(0 224.62826697259788 92.50112334963978)"><path d="M19.13 14.4 C12.85 10.53, 8.32 3.93, -1.14 -0.22 M19.13 14.4 C10.69 9.19, 3.48 3.96, -1.14 -0.22" stroke="#1e1e1e" stroke-width="2" fill="none"></path></g><g transform="translate(919.6779445864959 336.23422228729487) rotate(0 224.62826697259788 92.50112334963978)"><path d="M425.64 181.09 C432.45 182.89, 440.94 181.51, 450.4 184.56 M425.64 181.09 C434.58 183.1, 444.58 184.77, 450.4 184.56" stroke="#1e1e1e" stroke-width="2" fill="none"></path></g><g transform="translate(919.6779445864959 336.23422228729487) rotate(0 224.62826697259788 92.50112334963978)"><path d="M433.66 165.99 C438.2 172.08, 444.37 175.07, 450.4 184.56 M433.66 165.99 C439.68 173.71, 446.62 181.16, 450.4 184.56" stroke="#1e1e1e" stroke-width="2" fill="none"></path></g></g><mask></mask><g stroke-linecap="round" transform="translate(1550.1563018297147 219.37280242015595) rotate(0 56.676264147438815 79.35356323059159)"><path d="M28.34 0 C41.74 1.37, 52.29 0.36, 85.01 0 M28.34 0 C49.95 -0.21, 72.94 0.26, 85.01 0 M85.01 0 C105.56 1.35, 111.71 11.04, 113.35 28.34 M85.01 0 C102.08 0, 111.98 8.93, 113.35 28.34 M113.35 28.34 C111.12 61.79, 112.14 94.96, 113.35 130.37 M113.35 28.34 C114.03 66.41, 113.43 103.71, 113.35 130.37 M113.35 130.37 C111.7 150.9, 102.74 157.31, 85.01 158.71 M113.35 130.37 C115.27 147.79, 103.73 159.86, 85.01 158.71 M85.01 158.71 C72.66 158.64, 59.04 160.2, 28.34 158.71 M85.01 158.71 C68.51 159.17, 53.24 159.85, 28.34 158.71 M28.34 158.71 C11.08 159.54, -1.1 150.78, 0 130.37 M28.34 158.71 C11.19 156.82, -1.75 147.37, 0 130.37 M0 130.37 C-0.45 107.4, -0.98 83.36, 0 28.34 M0 130.37 C0 90.39, -1.32 49.16, 0 28.34 M0 28.34 C-1.48 9.38, 11.01 -0.66, 28.34 0 M0 28.34 C1.11 9.33, 11.4 0.7, 28.34 0" stroke="#1e1e1e" stroke-width="2" fill="none"></path></g><g stroke-linecap="round"><g transform="translate(1548.8740430161743 256.9998805843388) rotate(0 56.91940527861061 5.561318691261249)"><path d="M-0.75 -0.84 C7.97 1.31, 34.08 11.61, 53.31 11.96 C72.53 12.31, 104.52 2.82, 114.58 1.26 M1.06 1.33 C9.53 3.23, 33.54 10.04, 52.35 10.21 C71.16 10.37, 103.72 3.91, 113.93 2.3" stroke="#1e1e1e" stroke-width="2" fill="none"></path></g></g><mask></mask><g stroke-linecap="round"><g transform="translate(1546.3105229393095 300.69088718133344) rotate(0 56.87370215361079 5.508177210796248)"><path d="M-0.45 -1.12 C8.55 0.55, 34.75 10.16, 53.86 10.82 C72.97 11.49, 104.25 4.51, 114.2 2.86 M1.51 0.91 C10.41 2.68, 34.56 12.11, 53.19 12.13 C71.83 12.16, 103.31 2.83, 113.34 1.08" stroke="#1e1e1e" stroke-width="2" fill="none"></path></g></g><mask></mask><g stroke-linecap="round"><g transform="translate(1549.6435466764906 344.2239984899966) rotate(0 57.3539015906872 5.519906800669105)"><path d="M0.38 0.4 C9.25 1.94, 35.54 10.29, 54.36 10.38 C73.17 10.47, 103.37 2.4, 113.27 0.94 M-0.87 -0.43 C7.83 1.74, 34.54 11.08, 53.95 11.46 C73.36 11.83, 105.63 3.27, 115.58 1.81" stroke="#1e1e1e" stroke-width="2" fill="none"></path></g></g><mask></mask><g stroke-linecap="round" transform="translate(950.9497984365735 648.7023498348067) rotate(0 56.676264147438815 79.35356323059159)"><path d="M28.34 0 C39.01 -0.1, 52.22 -0.79, 85.01 0 M28.34 0 C41.28 -0.01, 53.97 -0.2, 85.01 0 M85.01 0 C105.74 0.77, 114.2 9.14, 113.35 28.34 M85.01 0 C105.3 -1.39, 113.26 10.63, 113.35 28.34 M113.35 28.34 C113.08 69.13, 114.79 107.89, 113.35 130.37 M113.35 28.34 C113.85 67.38, 113.41 106.19, 113.35 130.37 M113.35 130.37 C115.31 149.88, 102.67 156.98, 85.01 158.71 M113.35 130.37 C113.25 150.5, 102.06 158.75, 85.01 158.71 M85.01 158.71 C68.63 158.47, 55.24 160.33, 28.34 158.71 M85.01 158.71 C64.65 158.75, 43.46 158.78, 28.34 158.71 M28.34 158.71 C8.13 160.08, -1.73 150.01, 0 130.37 M28.34 158.71 C10.82 156.72, 0.54 150.36, 0 130.37 M0 130.37 C1.89 92.58, 2.05 59.1, 0 28.34 M0 130.37 C-0.84 104.26, -0.01 76.87, 0 28.34 M0 28.34 C-0.99 9.49, 7.82 0.13, 28.34 0 M0 28.34 C0.09 8.73, 10.75 0.89, 28.34 0" stroke="#1e1e1e" stroke-width="2" fill="none"></path></g><g stroke-linecap="round"><g transform="translate(949.6675396230348 686.32942799899) rotate(0 57.31905295787419 4.9927123948641565)"><path d="M-0.07 -0.33 C8.74 1.56, 33.88 10.16, 52.84 10.41 C71.79 10.66, 103.44 2.64, 113.68 1.14 M-1.57 -1.55 C7.05 0.55, 32 10.89, 51.63 11.51 C71.26 12.12, 105.73 3.65, 116.2 2.12" stroke="#1e1e1e" stroke-width="2" fill="none"></path></g></g><mask></mask><g stroke-linecap="round"><g transform="translate(947.1040195461683 730.0204345959842) rotate(0 56.89139014189277 5.475006838763193)"><path d="M-0.49 -0.84 C8.29 0.98, 33.5 10.22, 52.62 10.59 C71.75 10.97, 104.06 2.99, 114.27 1.42 M1.46 1.33 C10.63 3.33, 36.3 11.59, 54.97 11.79 C73.63 11.99, 103.64 4.18, 113.45 2.54" stroke="#1e1e1e" stroke-width="2" fill="none"></path></g></g><mask></mask><g stroke-linecap="round"><g transform="translate(950.437043283353 773.5535459046473) rotate(0 56.58494482939204 5.777997301143159)"><path d="M-0.7 -0.66 C8.25 1.3, 34.12 10.56, 53.22 10.87 C72.31 11.18, 103.49 2.63, 113.87 1.19 M1.13 1.61 C9.96 3.81, 33.59 12.12, 52.21 12.21 C70.83 12.31, 102.77 3.63, 112.84 2.19" stroke="#1e1e1e" stroke-width="2" fill="none"></path></g></g><mask></mask><g transform="translate(1557.9390184032818 185.72412329003237) rotate(0 41.75994873046875 12.5)"><text x="0" y="17.52" font-family="Virgil, Segoe UI Emoji" font-size="20px" fill="#1e1e1e" text-anchor="start" style="white-space: pre;" direction="ltr" dominant-baseline="alphabetic">postgres</text></g><g transform="translate(1572.4259954622066 392.4352833468215) rotate(0 34.179954528808594 12.5)"><text x="0" y="17.52" font-family="Virgil, Segoe UI Emoji" font-size="20px" fill="#1e1e1e" text-anchor="start" style="white-space: pre;" direction="ltr" dominant-baseline="alphabetic">postgis</text></g><g transform="translate(1086.1866599440073 724.8290365809953) rotate(0 42.15996551513672 12.5)"><text x="0" y="17.52" font-family="Virgil, Segoe UI Emoji" font-size="20px" fill="#1e1e1e" text-anchor="start" style="white-space: pre;" direction="ltr" dominant-baseline="alphabetic">mongoDB</text></g><g stroke-linecap="round"><g transform="translate(646.0491992516618 693.6344819350629) rotate(0 148.781315703799 13.752339826034813)"><path d="M-0.85 -0.69 C49.08 3.62, 248.72 22.14, 298.41 26.98 M0.91 1.57 C50.85 6.53, 248.66 24.05, 297.91 28.19" stroke="#1e1e1e" stroke-width="2" fill="none"></path></g><g transform="translate(646.0491992516618 693.6344819350629) rotate(0 148.781315703799 13.752339826034813)"><path d="M273.77 34.68 C277.5 34.94, 282.57 31.79, 297.91 28.19 M273.77 34.68 C283.57 32.38, 291.43 29.4, 297.91 28.19" stroke="#1e1e1e" stroke-width="2" fill="none"></path></g><g transform="translate(646.0491992516618 693.6344819350629) rotate(0 148.781315703799 13.752339826034813)"><path d="M275.25 17.64 C278.84 21.38, 283.6 21.72, 297.91 28.19 M275.25 17.64 C284.35 21.52, 291.67 24.72, 297.91 28.19" stroke="#1e1e1e" stroke-width="2" fill="none"></path></g></g><mask></mask><g stroke-linecap="round"><g transform="translate(1287.2465402629787 192.64917006116593) rotate(0 126.7452495081925 38.496948192339914)"><path d="M-0.7 -0.31 C41.84 12.6, 211.72 65.44, 254.19 78.51 M1.13 -1.52 C43.7 11.58, 211.63 63.93, 253.75 76.86" stroke="#1e1e1e" stroke-width="2" fill="none"></path></g><g transform="translate(1287.2465402629787 192.64917006116593) rotate(0 126.7452495081925 38.496948192339914)"><path d="M228.78 78.08 C233.51 79.58, 240.79 79.26, 253.75 76.86 M228.78 78.08 C237.79 77.65, 245.06 77.93, 253.75 76.86" stroke="#1e1e1e" stroke-width="2" fill="none"></path></g><g transform="translate(1287.2465402629787 192.64917006116593) rotate(0 126.7452495081925 38.496948192339914)"><path d="M233.84 61.75 C237.65 66.66, 243.87 69.77, 253.75 76.86 M233.84 61.75 C241.24 66.89, 246.78 72.79, 253.75 76.86" stroke="#1e1e1e" stroke-width="2" fill="none"></path></g></g><mask></mask><g stroke-linecap="round"><g transform="translate(1409.3116350657456 353.44527445698895) rotate(0 64.85025736764874 -22.91904986671784)"><path d="M-0.76 0.91 C21.09 -6.98, 108.68 -39.03, 130.46 -46.75 M1.04 0.35 C22.82 -7.47, 108.38 -37.73, 129.71 -45.71" stroke="#1e1e1e" stroke-width="2" fill="none"></path></g><g transform="translate(1409.3116350657456 353.44527445698895) rotate(0 64.85025736764874 -22.91904986671784)"><path d="M110.54 -29.67 C116.77 -32.91, 118.45 -37.86, 129.71 -45.71 M110.54 -29.67 C117.65 -34.54, 124.29 -39.75, 129.71 -45.71" stroke="#1e1e1e" stroke-width="2" fill="none"></path></g><g transform="translate(1409.3116350657456 353.44527445698895) rotate(0 64.85025736764874 -22.91904986671784)"><path d="M104.71 -45.75 C112.47 -44.94, 115.6 -45.88, 129.71 -45.71 M104.71 -45.75 C113.67 -45.31, 122.25 -45.16, 129.71 -45.71" stroke="#1e1e1e" stroke-width="2" fill="none"></path></g></g><mask></mask><g stroke-linecap="round"><g transform="translate(1465.8244324439092 513.1629227646035) rotate(0 35.41533551752673 -74.80530480816287)"><path d="M-0.92 0.75 C11.02 -24.13, 59.88 -125.25, 71.75 -150.36 M0.8 0.1 C12.62 -24.56, 59.1 -124.44, 71.1 -149.27" stroke="#1e1e1e" stroke-width="2" fill="none"></path></g><g transform="translate(1465.8244324439092 513.1629227646035) rotate(0 35.41533551752673 -74.80530480816287)"><path d="M68.78 -124.38 C70.96 -131.1, 69.01 -141.14, 71.1 -149.27 M68.78 -124.38 C69.23 -131.61, 70.38 -137.81, 71.1 -149.27" stroke="#1e1e1e" stroke-width="2" fill="none"></path></g><g transform="translate(1465.8244324439092 513.1629227646035) rotate(0 35.41533551752673 -74.80530480816287)"><path d="M53.32 -131.69 C60.2 -136.04, 63.01 -143.83, 71.1 -149.27 M53.32 -131.69 C57.78 -137.02, 63 -141.3, 71.1 -149.27" stroke="#1e1e1e" stroke-width="2" fill="none"></path></g></g><mask></mask><g stroke-linecap="round" transform="translate(628.1612642137825 177.88196425491105) rotate(0 224.35920230339525 204.84933724309008)"><path d="M32 0 C164.46 -1.41, 294.88 -2.42, 416.72 0 M416.72 0 C437.62 1.36, 449.59 12.02, 448.72 32 M448.72 32 C449.25 108.12, 447.95 183.06, 448.72 377.7 M448.72 377.7 C447.46 400.79, 438.51 410.7, 416.72 409.7 M416.72 409.7 C272.92 409.42, 127.79 407.69, 32 409.7 M32 409.7 C12.21 408.85, 1.57 398.95, 0 377.7 M0 377.7 C1.24 295.93, 1.11 212.88, 0 32 M0 32 C-1.56 9.71, 10.6 -0.99, 32 0" stroke="#1e1e1e" stroke-width="2.5" fill="none" stroke-dasharray="8 10"></path></g><g transform="translate(798.0732946780427 589.1176509612947) rotate(0 58.279937744140625 12.5)"><text x="0" y="17.52" font-family="Virgil, Segoe UI Emoji" font-size="20px" fill="#1e1e1e" text-anchor="start" style="white-space: pre;" direction="ltr" dominant-baseline="alphabetic">redis server</text></g><g stroke-linecap="round"><g transform="translate(160.85435270078415 408.27590324677794) rotate(0 144.24855963818482 113.99364609737245)"><path d="M-0.16 0.65 C48.2 38.55, 241.91 188.8, 290.19 226.48 M-1.7 -0.06 C46.57 38.14, 241.29 190.01, 289.72 228.05" stroke="#1e1e1e" stroke-width="2" fill="none"></path></g><g transform="translate(160.85435270078415 408.27590324677794) rotate(0 144.24855963818482 113.99364609737245)"><path d="M265.95 220.3 C274.24 224.22, 280.54 225.52, 289.72 228.05 M265.95 220.3 C274.51 223.52, 280.39 225.22, 289.72 228.05" stroke="#1e1e1e" stroke-width="2" fill="none"></path></g><g transform="translate(160.85435270078415 408.27590324677794) rotate(0 144.24855963818482 113.99364609737245)"><path d="M276.49 206.83 C281.45 214.86, 284.52 220.28, 289.72 228.05 M276.49 206.83 C281.61 214.36, 284.09 220.41, 289.72 228.05" stroke="#1e1e1e" stroke-width="2" fill="none"></path></g></g><mask></mask></svg>