<svg version="1.1" xmlns="http://www.w3.org/2000/svg" viewBox="0 0 1948.4527541864063 1032.458771044167" width="3896.9055083728126" height="2064.917542088334" filter="invert(93%) hue-rotate(180deg)">
  <!-- svg-source:excalidraw -->
  
  <defs>
    <style class="style-fonts">
      @font-face {
        font-family: "Virgil";
        src: url("https://excalidraw.com/Virgil.woff2");
      }
      @font-face {
        font-family: "Cascadia";
        src: url("https://excalidraw.com/Cascadia.woff2");
      }
      @font-face {
        font-family: "Assistant";
        src: url("https://excalidraw.com/Assistant-Regular.woff2");
      }
    </style>
    
  </defs>
  <rect x="0" y="0" width="1948.4527541864063" height="1032.458771044167" fill="#ffffff"></rect><g stroke-linecap="round" transform="translate(12.286411824803508 655.4149801489989) rotate(0 73.29043215200272 55.568086828452806)"><path d="M27.78 0 C49.36 1.88, 70.29 0.09, 118.8 0 M27.78 0 C58.72 -1.29, 89.59 0.02, 118.8 0 M118.8 0 C135.68 -1.52, 144.93 8.04, 146.58 27.78 M118.8 0 C137.9 -0.66, 146.36 10.89, 146.58 27.78 M146.58 27.78 C148.49 41.11, 148.51 57.7, 146.58 83.35 M146.58 27.78 C146.19 41.93, 145.89 54.98, 146.58 83.35 M146.58 83.35 C146.48 103.58, 137.93 111.92, 118.8 111.14 M146.58 83.35 C147.13 100.97, 135.6 113.42, 118.8 111.14 M118.8 111.14 C84.35 111.13, 47.16 111.78, 27.78 111.14 M118.8 111.14 C89.18 112.04, 60.15 110.63, 27.78 111.14 M27.78 111.14 C9.61 111.66, 0.78 101.26, 0 83.35 M27.78 111.14 C10.83 111.82, 1.28 103.19, 0 83.35 M0 83.35 C0.82 70.71, 1.41 55.16, 0 27.78 M0 83.35 C0.88 63.82, -0.2 44.94, 0 27.78 M0 27.78 C0.7 11.2, 9.11 1.58, 27.78 0 M0 27.78 C0.18 7.62, 9.97 2.19, 27.78 0" stroke="#1e1e1e" stroke-width="2" fill="none"></path></g><g transform="translate(44.52545543805718 614.7860576762982) rotate(0 50.51995849609375 12.5)"><text x="0" y="17.52" font-family="Virgil, Segoe UI Emoji" font-size="20px" fill="#1e1e1e" text-anchor="start" style="white-space: pre;" direction="ltr" dominant-baseline="alphabetic">Browser 2</text></g><g transform="translate(27.10881420250189 701.0717855233884) rotate(0 44.45997619628906 12.5)"><text x="0" y="17.52" font-family="Virgil, Segoe UI Emoji" font-size="20px" fill="#1e1e1e" text-anchor="start" style="white-space: pre;" direction="ltr" dominant-baseline="alphabetic">  User 2</text></g><g stroke-linecap="round" transform="translate(542.8174551441862 633.4301674807393) rotate(0 90.24189403741639 78.38798710278866)"><path d="M86.1 -0.57 C97.54 -1.96, 111.24 2.18, 122.77 6.13 C134.29 10.08, 146.43 15.5, 155.24 23.1 C164.05 30.7, 171.51 41.61, 175.64 51.72 C179.76 61.82, 180.78 73.33, 179.98 83.71 C179.18 94.1, 176.58 104.68, 170.83 114.01 C165.07 123.34, 155 132.88, 145.43 139.69 C135.87 146.51, 125.32 152.25, 113.44 154.91 C101.56 157.57, 86.47 157.45, 74.16 155.67 C61.85 153.89, 49.74 149.98, 39.58 144.24 C29.43 138.49, 19.64 130.39, 13.23 121.2 C6.83 112, 2.84 99.67, 1.15 89.08 C-0.55 78.49, -0.08 67.67, 3.08 57.67 C6.24 47.67, 12.17 37.23, 20.11 29.09 C28.05 20.96, 36.75 13.41, 50.73 8.84 C64.71 4.27, 92.7 2.24, 103.98 1.66 C115.27 1.07, 118.69 4.25, 118.43 5.34 M47.05 10.08 C56.79 4.44, 71.68 2.31, 83.93 1.65 C96.18 0.99, 108.84 2.74, 120.56 6.12 C132.28 9.49, 145.3 14.88, 154.26 21.9 C163.21 28.92, 169.87 38.11, 174.3 48.24 C178.73 58.38, 181.47 71.91, 180.85 82.7 C180.23 93.48, 175.9 103.6, 170.56 112.95 C165.22 122.31, 158.17 131.79, 148.81 138.81 C139.44 145.83, 126.37 152.32, 114.36 155.09 C102.34 157.86, 88.59 157.16, 76.71 155.44 C64.83 153.71, 53.49 150.45, 43.1 144.74 C32.7 139.04, 21.22 130.16, 14.34 121.22 C7.47 112.27, 3.78 101.46, 1.84 91.05 C-0.09 80.64, -0.37 69.05, 2.73 58.74 C5.84 48.42, 13.12 37.34, 20.5 29.16 C27.88 20.97, 42.3 12.78, 47 9.61 C51.7 6.43, 47.55 9.22, 48.7 10.1" stroke="#1e1e1e" stroke-width="2" fill="none"></path></g><g transform="translate(580.5887437042802 699.3894773395823) rotate(0 52.659950256347656 12.5)"><text x="52.659950256347656" y="17.52" font-family="Virgil, Segoe UI Emoji" font-size="20px" fill="#1e1e1e" text-anchor="middle" style="white-space: pre;" direction="ltr" dominant-baseline="alphabetic">ts-backend</text></g><g stroke-linecap="round" transform="translate(886.2338856010538 532.5870773386505) rotate(0 201.0874786046952 34.35561983361413)"><path d="M17.18 0 C124.52 -1.5, 233.69 -1.99, 385 0 M17.18 0 C92.5 1.71, 168.67 2.21, 385 0 M385 0 C394.9 -0.12, 401.62 4.91, 402.17 17.18 M385 0 C394.84 -1.35, 400.92 5.52, 402.17 17.18 M402.17 17.18 C403.86 27.17, 402.88 35.32, 402.17 51.53 M402.17 17.18 C402.48 30.56, 402.68 42.15, 402.17 51.53 M402.17 51.53 C401.17 63.09, 397.15 66.9, 385 68.71 M402.17 51.53 C403.99 62.55, 397.14 70.31, 385 68.71 M385 68.71 C261.44 70.38, 134.69 68.92, 17.18 68.71 M385 68.71 C276.35 66.65, 167.1 66.7, 17.18 68.71 M17.18 68.71 C4.16 68.64, -0.13 64.78, 0 51.53 M17.18 68.71 C7.4 66.41, -2.07 64.77, 0 51.53 M0 51.53 C-1.56 40.7, -1.98 27.87, 0 17.18 M0 51.53 C0.77 39.71, 0.19 26.83, 0 17.18 M0 17.18 C1.79 4.07, 7.67 0.99, 17.18 0 M0 17.18 C-0.86 6.85, 6.55 -0.79, 17.18 0" stroke="#1e1e1e" stroke-width="2" fill="none"></path></g><g stroke-linecap="round" transform="translate(903.8882966828278 550.0886363764257) rotate(0 24.182467127522614 18.807170246924898)"><path d="M9.4 0 C18.46 0.25, 26.42 -1.97, 38.96 0 M9.4 0 C20.53 0, 30.7 -0.97, 38.96 0 M38.96 0 C44.04 0.99, 48.73 3.87, 48.36 9.4 M38.96 0 C43.02 -1.36, 47.16 3.41, 48.36 9.4 M48.36 9.4 C49.24 15.49, 46.85 26.28, 48.36 28.21 M48.36 9.4 C47.6 14.01, 49 19.47, 48.36 28.21 M48.36 28.21 C47.9 34.51, 45.04 38.17, 38.96 37.61 M48.36 28.21 C49.8 32.66, 43.89 36.03, 38.96 37.61 M38.96 37.61 C28.79 35.93, 21.78 36.14, 9.4 37.61 M38.96 37.61 C31.55 38.43, 23.66 38.74, 9.4 37.61 M9.4 37.61 C4.3 38.28, -0.83 33.45, 0 28.21 M9.4 37.61 C2.35 39.47, 0.72 36.32, 0 28.21 M0 28.21 C1.52 25.76, -0.34 21.85, 0 9.4 M0 28.21 C0.21 24.34, -1.01 18.42, 0 9.4 M0 9.4 C0.71 5.02, 2.56 -1.03, 9.4 0 M0 9.4 C1.49 2.44, 4.65 0.2, 9.4 0" stroke="#1e1e1e" stroke-width="2" fill="none"></path></g><g stroke-linecap="round" transform="translate(967.9396719531705 549.4496299147117) rotate(0 24.182467127522614 18.807170246924898)"><path d="M9.4 0 C20.27 1.17, 30.36 -0.37, 38.96 0 M9.4 0 C18.82 0.78, 28.29 -0.04, 38.96 0 M38.96 0 C44.08 0.86, 47.46 4.05, 48.36 9.4 M38.96 0 C46.95 1.5, 49.58 2.04, 48.36 9.4 M48.36 9.4 C46.93 16.39, 46.71 21.05, 48.36 28.21 M48.36 9.4 C47.86 15.32, 47.69 20.03, 48.36 28.21 M48.36 28.21 C47.5 35.82, 45.33 37.78, 38.96 37.61 M48.36 28.21 C48.62 32.58, 43.51 38.61, 38.96 37.61 M38.96 37.61 C26.18 38.11, 16 39.01, 9.4 37.61 M38.96 37.61 C33.2 37.46, 25.4 37.92, 9.4 37.61 M9.4 37.61 C1.47 39.02, -0.98 34.5, 0 28.21 M9.4 37.61 C2.97 38.74, -0.17 35.95, 0 28.21 M0 28.21 C-0.26 25.17, 0.05 20.11, 0 9.4 M0 28.21 C-0.91 23.26, 0.07 17.55, 0 9.4 M0 9.4 C1.44 3.2, 3.97 -0.54, 9.4 0 M0 9.4 C1.61 3.37, 0.96 -0.82, 9.4 0" stroke="#1e1e1e" stroke-width="2" fill="none"></path></g><g stroke-linecap="round" transform="translate(1031.3265654211318 549.0123032332731) rotate(0 24.182467127522614 18.807170246924898)"><path d="M9.4 0 C21.29 0.02, 32.14 1.01, 38.96 0 M9.4 0 C15.03 -0.5, 20.63 -1.03, 38.96 0 M38.96 0 C43.69 1.54, 49.54 2.92, 48.36 9.4 M38.96 0 C44.34 0.21, 50.23 5.14, 48.36 9.4 M48.36 9.4 C48.62 17.14, 47.7 21.96, 48.36 28.21 M48.36 9.4 C48.16 14.31, 48.54 20.29, 48.36 28.21 M48.36 28.21 C49.52 34.31, 44.88 36.41, 38.96 37.61 M48.36 28.21 C48.92 35.53, 45.99 38.98, 38.96 37.61 M38.96 37.61 C28.56 36.72, 18.7 36.27, 9.4 37.61 M38.96 37.61 C30.28 37.67, 21.41 37.35, 9.4 37.61 M9.4 37.61 C1.58 38.64, 1.72 34.19, 0 28.21 M9.4 37.61 C1.22 35.94, 1.48 35.1, 0 28.21 M0 28.21 C1.81 21.28, -0.57 18.22, 0 9.4 M0 28.21 C0.29 21.92, -0.01 16.24, 0 9.4 M0 9.4 C1.33 1.26, 1.51 -0.47, 9.4 0 M0 9.4 C-0.26 0.93, 1.43 0.92, 9.4 0" stroke="#1e1e1e" stroke-width="2" fill="none"></path></g><g stroke-linecap="round" transform="translate(1096.2037663180818 550.4389223105873) rotate(0 24.182467127522614 18.807170246924898)"><path d="M9.4 0 C20.87 0, 32.07 -0.17, 38.96 0 M9.4 0 C20.43 0.38, 30.58 -0.12, 38.96 0 M38.96 0 C46.04 0.72, 46.79 4.53, 48.36 9.4 M38.96 0 C43.16 -1.83, 47.37 4.03, 48.36 9.4 M48.36 9.4 C49.95 14.2, 50.32 19.63, 48.36 28.21 M48.36 9.4 C48.67 14.35, 47.27 19.58, 48.36 28.21 M48.36 28.21 C48.59 34.55, 43.79 37.14, 38.96 37.61 M48.36 28.21 C48.43 32.55, 44.89 39.31, 38.96 37.61 M38.96 37.61 C30.13 39.43, 18.68 37.71, 9.4 37.61 M38.96 37.61 C27.34 37.6, 17.64 38.37, 9.4 37.61 M9.4 37.61 C1.68 36.62, 0.6 32.73, 0 28.21 M9.4 37.61 C1.77 37.42, 0.21 35.35, 0 28.21 M0 28.21 C0.79 24, 1.69 18.62, 0 9.4 M0 28.21 C-0.56 21.03, -0.81 13.76, 0 9.4 M0 9.4 C0.77 3.68, 4.68 0.57, 9.4 0 M0 9.4 C-0.6 5.36, 4.94 1.89, 9.4 0" stroke="#1e1e1e" stroke-width="2" fill="none"></path></g><g stroke-linecap="round" transform="translate(1158.0961064669482 550.2138901347021) rotate(0 24.182467127522614 18.807170246924898)"><path d="M9.4 0 C21.92 0.5, 33.09 -1.32, 38.96 0 M9.4 0 C18.76 -0.45, 26.55 0.92, 38.96 0 M38.96 0 C46.34 -1.46, 47.38 3.74, 48.36 9.4 M38.96 0 C43.22 -1.36, 48.17 3.35, 48.36 9.4 M48.36 9.4 C48.71 16.37, 49.5 23.62, 48.36 28.21 M48.36 9.4 C47.86 15.58, 48.8 22.13, 48.36 28.21 M48.36 28.21 C49.24 35.25, 45.78 39.16, 38.96 37.61 M48.36 28.21 C49.02 33.88, 47.45 39.42, 38.96 37.61 M38.96 37.61 C25.88 37.8, 15.15 38.54, 9.4 37.61 M38.96 37.61 C30.02 38.21, 23.3 37.8, 9.4 37.61 M9.4 37.61 C4.36 37.52, -0.32 32.88, 0 28.21 M9.4 37.61 C4.84 36.52, -0.43 35.47, 0 28.21 M0 28.21 C0.06 21.64, -0.62 18.26, 0 9.4 M0 28.21 C0.01 22.89, 0.27 18.47, 0 9.4 M0 9.4 C1.17 4.08, 2.54 0.16, 9.4 0 M0 9.4 C-0.01 1.44, 3.04 -1.09, 9.4 0" stroke="#1e1e1e" stroke-width="2" fill="none"></path></g><g stroke-linecap="round" transform="translate(1222.1623423526817 550.4219387501439) rotate(0 24.182467127522614 18.807170246924898)"><path d="M9.4 0 C18.08 -0.36, 24.39 -0.74, 38.96 0 M9.4 0 C17.75 -0.27, 25.72 1.09, 38.96 0 M38.96 0 C46.39 -0.15, 49.92 1.38, 48.36 9.4 M38.96 0 C44.21 2.28, 49.32 3.21, 48.36 9.4 M48.36 9.4 C47.81 17.5, 46.98 25.06, 48.36 28.21 M48.36 9.4 C47.68 15.73, 49 20.51, 48.36 28.21 M48.36 28.21 C48.53 35.59, 43.52 38.9, 38.96 37.61 M48.36 28.21 C46.71 36.55, 45.22 37.23, 38.96 37.61 M38.96 37.61 C27.18 38.6, 15.87 38.66, 9.4 37.61 M38.96 37.61 C29.7 37.17, 18.77 36.81, 9.4 37.61 M9.4 37.61 C4.22 36.57, -0.08 36.39, 0 28.21 M9.4 37.61 C5.34 37.86, -2.22 33.17, 0 28.21 M0 28.21 C1.22 24.53, -0.96 18.32, 0 9.4 M0 28.21 C0.1 22.66, -0.25 14.8, 0 9.4 M0 9.4 C0.9 3.54, 2.59 -0.86, 9.4 0 M0 9.4 C-2.1 3.39, 3.19 0.75, 9.4 0" stroke="#1e1e1e" stroke-width="2" fill="none"></path></g><g stroke-linecap="round"><g transform="translate(717.7904548330262 641.0563023989725) rotate(0 62.358483759536284 -29.37035562282358)"><path d="M-0.27 -0.72 C20.65 -10.69, 104.1 -50.62, 124.98 -60.26 M1.8 1.52 C22.66 -8.28, 103.96 -48.86, 124.44 -59.19" stroke="#1e1e1e" stroke-width="2" fill="none"></path></g><g transform="translate(717.7904548330262 641.0563023989725) rotate(0 62.358483759536284 -29.37035562282358)"><path d="M107.27 -41.03 C110.57 -44.38, 114.72 -48.98, 124.44 -59.19 M107.27 -41.03 C113.83 -47.3, 120.73 -54.84, 124.44 -59.19" stroke="#1e1e1e" stroke-width="2" fill="none"></path></g><g transform="translate(717.7904548330262 641.0563023989725) rotate(0 62.358483759536284 -29.37035562282358)"><path d="M99.61 -56.32 C104.83 -55.71, 110.96 -56.37, 124.44 -59.19 M99.61 -56.32 C109.06 -56.88, 118.79 -58.77, 124.44 -59.19" stroke="#1e1e1e" stroke-width="2" fill="none"></path></g></g><mask></mask><g stroke-linecap="round"><g transform="translate(1214.595258853422 405.06674585047995) rotate(0 87.57339139427677 -141.68201728206077)"><path d="M-0.74 -0.35 C10.06 -16.09, 36.03 -48.36, 65.46 -95.47 C94.9 -142.58, 157.67 -251.77, 175.88 -283.01 M1.08 -1.59 C11.74 -17.54, 35.98 -50.24, 65.01 -96.99 C94.05 -143.74, 157.03 -251.23, 175.29 -282.09" stroke="#1e1e1e" stroke-width="2" fill="none"></path></g><g transform="translate(1214.595258853422 405.06674585047995) rotate(0 87.57339139427677 -141.68201728206077)"><path d="M170.72 -257.51 C171.97 -264.65, 176.09 -274.44, 175.29 -282.09 M170.72 -257.51 C171.44 -263.59, 173.23 -268.47, 175.29 -282.09" stroke="#1e1e1e" stroke-width="2" fill="none"></path></g><g transform="translate(1214.595258853422 405.06674585047995) rotate(0 87.57339139427677 -141.68201728206077)"><path d="M155.99 -266.2 C162.41 -270.16, 171.76 -276.85, 175.29 -282.09 M155.99 -266.2 C160.13 -270.14, 165.41 -272.96, 175.29 -282.09" stroke="#1e1e1e" stroke-width="2" fill="none"></path></g></g><mask></mask><g stroke-linecap="round"><g transform="translate(1287.5395839654957 420.7699644811637) rotate(343.2519028083086 145.3568725952864 -9.148439967127842)"><path d="M-0.49 0.72 C21.91 0.28, 86.83 -0.63, 135.45 -3.57 C184.07 -6.52, 265.15 -14.59, 291.21 -16.94 M1.45 0.05 C24.16 -0.69, 89.65 -2.41, 137.79 -5.59 C185.94 -8.76, 264.59 -17.18, 290.33 -19.02" stroke="#1e1e1e" stroke-width="2" fill="none"></path></g><g transform="translate(1287.5395839654957 420.7699644811637) rotate(343.2519028083086 145.3568725952864 -9.148439967127842)"><path d="M267.68 -8.43 C277.67 -13.57, 285.52 -16.83, 290.33 -19.02 M267.68 -8.43 C275.75 -11.09, 282.63 -15.45, 290.33 -19.02" stroke="#1e1e1e" stroke-width="2" fill="none"></path></g><g transform="translate(1287.5395839654957 420.7699644811637) rotate(343.2519028083086 145.3568725952864 -9.148439967127842)"><path d="M266.17 -25.47 C276.6 -24.06, 285.03 -20.77, 290.33 -19.02 M266.17 -25.47 C274.81 -22.3, 282.2 -20.83, 290.33 -19.02" stroke="#1e1e1e" stroke-width="2" fill="none"></path></g></g><mask></mask><g stroke-linecap="round"><g transform="translate(1287.27767201403 418.1960333288098) rotate(0 98.30984090518086 -84.3030141523343)"><path d="M0.61 0.88 C12.59 -9.7, 39.65 -34.49, 72.02 -62.88 C104.4 -91.27, 174.16 -151.97, 194.85 -169.48 M-0.53 0.29 C11.39 -10.12, 38.75 -33.09, 71.7 -61.25 C104.65 -89.41, 176.34 -150.49, 197.15 -168.65" stroke="#1e1e1e" stroke-width="2" fill="none"></path></g><g transform="translate(1287.27767201403 418.1960333288098) rotate(0 98.30984090518086 -84.3030141523343)"><path d="M184.93 -146.84 C190.08 -151.69, 192.7 -162.34, 197.15 -168.65 M184.93 -146.84 C187.53 -151.34, 190.05 -157.11, 197.15 -168.65" stroke="#1e1e1e" stroke-width="2" fill="none"></path></g><g transform="translate(1287.27767201403 418.1960333288098) rotate(0 98.30984090518086 -84.3030141523343)"><path d="M173.77 -159.79 C182.44 -160.68, 188.53 -167.31, 197.15 -168.65 M173.77 -159.79 C178.88 -161.46, 183.9 -164.33, 197.15 -168.65" stroke="#1e1e1e" stroke-width="2" fill="none"></path></g></g><mask></mask><g stroke-linecap="round" transform="translate(1386.5710752229916 22.295352695788097) rotate(0 61.91993843459386 54.3049345204131)"><path d="M63.55 0.06 C72.55 -0.37, 83.66 3.52, 92 7.76 C100.34 12, 108.44 18.5, 113.58 25.48 C118.72 32.45, 121.92 41.36, 122.83 49.63 C123.74 57.9, 122.72 67.28, 119.04 75.09 C115.35 82.89, 107.99 91.07, 100.71 96.47 C93.43 101.86, 84.72 105.88, 75.37 107.47 C66.02 109.05, 54.05 108.11, 44.62 105.98 C35.18 103.85, 25.65 100.18, 18.74 94.68 C11.83 89.18, 6.1 81.03, 3.16 72.98 C0.21 64.94, -0.51 55, 1.06 46.39 C2.63 37.78, 6.98 28.1, 12.56 21.33 C18.15 14.57, 25.02 9.26, 34.58 5.81 C44.14 2.36, 63.02 1.3, 69.93 0.62 C76.83 -0.07, 76.23 0.89, 75.99 1.73 M51.01 0.91 C59.86 -1.29, 72.69 1.06, 81.59 3.76 C90.49 6.46, 97.95 11.54, 104.42 17.09 C110.9 22.65, 117.2 29.28, 120.46 37.07 C123.71 44.86, 125.81 55.4, 123.94 63.84 C122.07 72.27, 115.58 81.26, 109.24 87.7 C102.9 94.14, 94.6 98.8, 85.9 102.47 C77.2 106.15, 66.34 109.88, 57.03 109.76 C47.73 109.64, 38.03 106.3, 30.07 101.75 C22.1 97.2, 14.23 89.7, 9.23 82.48 C4.22 75.25, 0.71 66.91, 0.05 58.41 C-0.6 49.91, 1.23 39.09, 5.3 31.49 C9.37 23.9, 16.83 18.02, 24.47 12.83 C32.11 7.64, 46.79 2.29, 51.12 0.34 C55.45 -1.6, 50.52 0.2, 50.44 1.15" stroke="#1e1e1e" stroke-width="2" fill="none"></path></g><g transform="translate(1410.427037038111 64.70191479803043) rotate(0 38.27996826171875 12.5)"><text x="38.27996826171875" y="17.52" font-family="Virgil, Segoe UI Emoji" font-size="20px" fill="#1e1e1e" text-anchor="middle" style="white-space: pre;" direction="ltr" dominant-baseline="alphabetic">worker 1</text></g><g stroke-linecap="round" transform="translate(1456.7911933056566 139.22788922115478) rotate(0 61.91993843459386 54.3049345204131)"><path d="M48.53 1.98 C57.32 -0.7, 69.69 -1.01, 78.98 1.17 C88.28 3.34, 97.45 9.03, 104.29 15.03 C111.14 21.04, 116.75 29.5, 120.03 37.19 C123.31 44.87, 125.14 53.09, 123.96 61.14 C122.78 69.19, 118.76 78.48, 112.94 85.48 C107.11 92.49, 97.69 99.28, 89.01 103.18 C80.33 107.09, 70.26 109.13, 60.87 108.91 C51.47 108.69, 41.06 106, 32.64 101.87 C24.23 97.73, 15.73 91.06, 10.38 84.12 C5.03 77.18, 1.47 68.53, 0.56 60.23 C-0.35 51.92, 1.36 42.21, 4.94 34.3 C8.52 26.38, 13.58 18.46, 22.03 12.73 C30.48 6.99, 49.08 1.87, 55.63 -0.09 C62.17 -2.06, 61.41 0.08, 61.33 0.94 M79.41 1.26 C88.23 2.63, 97.78 9.42, 104.93 15.56 C112.08 21.7, 119.33 30.19, 122.28 38.12 C125.24 46.05, 124.32 55, 122.65 63.13 C120.99 71.26, 117.96 80.22, 112.29 86.9 C106.63 93.58, 97.76 99.76, 88.69 103.21 C79.62 106.66, 67.61 107.94, 57.88 107.61 C48.14 107.27, 38.23 105.47, 30.28 101.19 C22.32 96.91, 15.17 88.92, 10.14 81.93 C5.11 74.94, 0.78 67.55, 0.07 59.24 C-0.63 50.92, 1.88 39.99, 5.91 32.02 C9.95 24.05, 17.12 16.52, 24.26 11.41 C31.4 6.3, 39.45 2.67, 48.73 1.38 C58.01 0.09, 74.72 3.55, 79.92 3.67 C85.11 3.79, 80.17 1.32, 79.9 2.08" stroke="#1e1e1e" stroke-width="2" fill="none"></path></g><g transform="translate(1483.3571542052487 168.63343629029214) rotate(0 35.569969177246094 25)"><text x="35.569969177246094" y="17.52" font-family="Virgil, Segoe UI Emoji" font-size="20px" fill="#1e1e1e" text-anchor="middle" style="white-space: pre;" direction="ltr" dominant-baseline="alphabetic">worker </text><text x="35.569969177246094" y="42.519999999999996" font-family="Virgil, Segoe UI Emoji" font-size="20px" fill="#1e1e1e" text-anchor="middle" style="white-space: pre;" direction="ltr" dominant-baseline="alphabetic">2</text></g><g stroke-linecap="round" transform="translate(1536.1218981962083 269.0544107809933) rotate(0 61.91993843459386 54.3049345204131)"><path d="M47.47 2.35 C56.23 -0.38, 67.76 -0.65, 76.85 1.27 C85.95 3.19, 94.93 8.26, 102.04 13.86 C109.15 19.46, 115.87 27.02, 119.52 34.86 C123.16 42.69, 125.02 52.43, 123.92 60.87 C122.81 69.31, 118.32 78.53, 112.9 85.49 C107.47 92.45, 99.7 98.91, 91.36 102.64 C83.03 106.37, 72.68 107.77, 62.88 107.87 C53.07 107.96, 41.11 106.93, 32.54 103.23 C23.96 99.53, 16.66 92.76, 11.43 85.64 C6.2 78.53, 2.28 68.99, 1.15 60.55 C0.02 52.11, 1.22 42.69, 4.62 35 C8.02 27.31, 13.03 20.28, 21.54 14.42 C30.05 8.56, 48.46 2.03, 55.68 -0.16 C62.89 -2.35, 64.8 0.35, 64.84 1.27 M33.42 4.94 C41.09 0.79, 52.17 0.57, 61.94 0.81 C71.7 1.05, 83.45 2.52, 92.02 6.38 C100.59 10.24, 108.16 17.13, 113.34 23.96 C118.51 30.78, 121.78 38.87, 123.07 47.32 C124.36 55.77, 124.68 66.74, 121.08 74.65 C117.48 82.56, 108.92 89.47, 101.46 94.79 C94 100.11, 85.25 104.38, 76.34 106.6 C67.43 108.81, 57.47 110.17, 47.99 108.07 C38.5 105.97, 26.62 99.68, 19.44 93.98 C12.27 88.28, 7.93 81.63, 4.96 73.87 C1.99 66.1, 0.37 55.67, 1.63 47.39 C2.88 39.11, 7.03 31.34, 12.49 24.21 C17.94 17.09, 30.91 7.6, 34.36 4.64 C37.81 1.69, 32.63 5.21, 33.17 6.47" stroke="#1e1e1e" stroke-width="2" fill="none"></path></g><g transform="translate(1562.6878590958004 298.45995785013065) rotate(0 35.569969177246094 25)"><text x="35.569969177246094" y="17.52" font-family="Virgil, Segoe UI Emoji" font-size="20px" fill="#1e1e1e" text-anchor="middle" style="white-space: pre;" direction="ltr" dominant-baseline="alphabetic">worker </text><text x="35.569969177246094" y="42.519999999999996" font-family="Virgil, Segoe UI Emoji" font-size="20px" fill="#1e1e1e" text-anchor="middle" style="white-space: pre;" direction="ltr" dominant-baseline="alphabetic">3</text></g><g stroke-linecap="round" transform="translate(983.0813908617656 226.1233588928112) rotate(0 93.07415712447073 92.34598697042475)"><path d="M117.5 23.25 C135.75 41.79, 153.29 59.66, 162.65 69.75 M117.5 23.25 C129.92 35.95, 142.66 50.46, 162.65 69.75 M162.65 69.75 C184.58 91.79, 184.35 93.97, 162.65 116.25 M162.65 69.75 C185.36 92.21, 184.74 93.93, 162.65 116.25 M162.65 116.25 C146.92 134.74, 126.78 150.69, 117.5 161.44 M162.65 116.25 C152.8 126.25, 142.91 135.87, 117.5 161.44 M117.5 161.44 C92.81 183.08, 94.36 183.99, 70.5 161.44 M117.5 161.44 C92 186.25, 95.72 184.19, 70.5 161.44 M70.5 161.44 C58.81 151.24, 47.55 138.37, 23.5 116.25 M70.5 161.44 C52.13 143.93, 33.69 125.55, 23.5 116.25 M23.5 116.25 C-0.21 91.9, 0.12 94.52, 23.5 69.75 M23.5 116.25 C-0.23 91.04, -0.21 93.26, 23.5 69.75 M23.5 69.75 C40.33 52.78, 56.62 35.48, 70.5 23.25 M23.5 69.75 C36.04 56.91, 50.23 43.08, 70.5 23.25 M70.5 23.25 C94.36 1.32, 94.47 0.65, 117.5 23.25 M70.5 23.25 C92.77 -0.98, 94.84 -0.23, 117.5 23.25" stroke="#1e1e1e" stroke-width="2" fill="none"></path></g><g transform="translate(1039.2385103175548 293.2963523780236) rotate(0 36.87995910644531 25)"><text x="36.87995910644531" y="17.52" font-family="Virgil, Segoe UI Emoji" font-size="20px" fill="#1e1e1e" text-anchor="middle" style="white-space: pre;" direction="ltr" dominant-baseline="alphabetic">redis</text><text x="36.87995910644531" y="42.519999999999996" font-family="Virgil, Segoe UI Emoji" font-size="20px" fill="#1e1e1e" text-anchor="middle" style="white-space: pre;" direction="ltr" dominant-baseline="alphabetic">pub/sub</text></g><g transform="translate(977.2620247597733 499.3546797765589) rotate(0 100.64990234375 12.5)"><text x="0" y="17.52" font-family="Virgil, Segoe UI Emoji" font-size="20px" fill="#1e1e1e" text-anchor="start" style="white-space: pre;" direction="ltr" dominant-baseline="alphabetic">redis message queue</text></g><g stroke-linecap="round" transform="translate(489.0741993853917 107.14714914583965) rotate(0 57.10085315854394 51.15236111295417)"><path d="M45.54 1.04 C54.2 -1.43, 65.62 -0.44, 74.72 2.12 C83.82 4.67, 93.81 9.99, 100.13 16.37 C106.46 22.75, 110.97 31.72, 112.66 40.38 C114.35 49.03, 113.22 60.09, 110.27 68.28 C107.32 76.47, 101.9 84.12, 94.95 89.51 C88 94.91, 77.78 99.06, 68.57 100.65 C59.37 102.23, 48.85 101.54, 39.73 99.02 C30.6 96.51, 20.28 91.96, 13.81 85.57 C7.35 79.19, 2.88 69.09, 0.94 60.71 C-1.01 52.33, -0.78 43.26, 2.13 35.29 C5.05 27.32, 10.63 18.56, 18.42 12.9 C26.2 7.24, 42.84 3.41, 48.86 1.35 C54.88 -0.71, 54.36 -0.16, 54.54 0.55 M79.21 2.59 C88.06 4.77, 97 11.87, 102.92 18.8 C108.84 25.74, 113.64 35.42, 114.71 44.19 C115.78 52.96, 113.19 63.34, 109.33 71.43 C105.48 79.53, 99.14 87.7, 91.6 92.75 C84.06 97.81, 73.55 100.9, 64.1 101.79 C54.66 102.68, 43.5 101.41, 34.92 98.09 C26.35 94.77, 18.25 88.77, 12.65 81.87 C7.05 74.98, 2.65 65.12, 1.31 56.71 C-0.02 48.31, 1.15 39.33, 4.66 31.43 C8.17 23.53, 14.76 14.35, 22.38 9.31 C30 4.27, 40.93 2.24, 50.37 1.2 C59.82 0.16, 74.54 2.61, 79.07 3.06 C83.6 3.52, 77.73 3.03, 77.54 3.93" stroke="#1e1e1e" stroke-width="2" fill="none"></path></g><g transform="translate(527.068663965847 145.62932884212069) rotate(0 19.22998809814453 12.5)"><text x="19.22998809814453" y="17.52" font-family="Virgil, Segoe UI Emoji" font-size="20px" fill="#1e1e1e" text-anchor="middle" style="white-space: pre;" direction="ltr" dominant-baseline="alphabetic">ws 1</text></g><g stroke-linecap="round" transform="translate(660.5699468610819 30.500340861046425) rotate(0 57.10085315854394 51.15236111295417)"><path d="M67.31 0.61 C76.23 1.2, 86.64 5.59, 93.72 11.11 C100.81 16.64, 106.69 25.74, 109.84 33.76 C112.99 41.77, 114.12 50.69, 112.64 59.21 C111.16 67.74, 107.12 78.29, 100.95 84.92 C94.79 91.54, 84.7 96.14, 75.66 98.94 C66.63 101.75, 56.1 103.37, 46.77 101.75 C37.44 100.13, 26.96 94.7, 19.66 89.23 C12.37 83.76, 6.15 76.94, 3.01 68.92 C-0.12 60.91, -0.88 49.72, 0.84 41.14 C2.55 32.56, 7.01 23.85, 13.29 17.46 C19.57 11.07, 29.03 5.34, 38.52 2.79 C48 0.25, 64.59 2.31, 70.2 2.19 C75.8 2.08, 72.57 1.54, 72.16 2.08 M38.73 1.41 C47.21 -2.06, 58.94 -1.31, 68.18 0.35 C77.43 2.01, 87.17 5.83, 94.21 11.36 C101.25 16.9, 107.27 25.4, 110.43 33.57 C113.59 41.73, 114.98 51.95, 113.19 60.33 C111.4 68.71, 106.19 77.23, 99.69 83.83 C93.18 90.43, 82.96 97.08, 74.17 99.93 C65.37 102.78, 55.86 102.82, 46.94 100.94 C38.03 99.05, 27.96 94.04, 20.67 88.61 C13.38 83.17, 6.7 76.05, 3.21 68.32 C-0.28 60.58, -2.15 50.82, -0.27 42.2 C1.62 33.58, 8.01 23.11, 14.53 16.59 C21.05 10.07, 34.99 5.08, 38.86 3.1 C42.74 1.12, 37.55 3.93, 37.8 4.72" stroke="#1e1e1e" stroke-width="2" fill="none"></path></g><g transform="translate(694.1544154088224 68.98252055732746) rotate(0 23.639984130859375 12.5)"><text x="23.639984130859375" y="17.52" font-family="Virgil, Segoe UI Emoji" font-size="20px" fill="#1e1e1e" text-anchor="middle" style="white-space: pre;" direction="ltr" dominant-baseline="alphabetic">ws 2</text></g><g stroke-linecap="round" transform="translate(845.550641329477 71.88927766362531) rotate(0 57.10085315854394 51.15236111295417)"><path d="M61.34 0.78 C70.42 0.64, 81.18 3.71, 88.88 8.28 C96.59 12.86, 103.25 20.48, 107.54 28.23 C111.83 35.97, 115.02 46.06, 114.61 54.75 C114.2 63.45, 110.52 73.19, 105.09 80.39 C99.67 87.59, 90.58 94.29, 82.07 97.94 C73.55 101.58, 63.49 102.99, 54.01 102.24 C44.54 101.49, 33.27 98.26, 25.21 93.44 C17.14 88.63, 9.67 81.13, 5.63 73.37 C1.6 65.61, 0.38 55.37, 0.99 46.87 C1.6 38.38, 4.04 29.53, 9.28 22.42 C14.52 15.31, 22.99 7.8, 32.42 4.21 C41.85 0.63, 59.42 1.35, 65.87 0.91 C72.32 0.48, 71.11 0.64, 71.13 1.6 M38.34 4.13 C46.78 0.87, 58.83 1.09, 68.01 2.25 C77.18 3.41, 86.46 5.75, 93.41 11.09 C100.35 16.43, 106.14 26.02, 109.67 34.31 C113.21 42.59, 116.07 52.46, 114.6 60.78 C113.14 69.09, 107.11 77.83, 100.87 84.18 C94.63 90.53, 86.27 95.96, 77.18 98.87 C68.09 101.78, 56.12 103.16, 46.34 101.63 C36.56 100.1, 25.71 95.47, 18.49 89.68 C11.27 83.89, 6 74.68, 3.02 66.87 C0.04 59.06, -1.24 51.24, 0.61 42.82 C2.46 34.4, 7.66 22.89, 14.1 16.36 C20.55 9.82, 35.01 5.81, 39.28 3.62 C43.56 1.43, 39.64 2.32, 39.75 3.21" stroke="#1e1e1e" stroke-width="2" fill="none"></path></g><g transform="translate(879.4451074358112 110.37145735990634) rotate(0 23.329986572265625 12.5)"><text x="23.329986572265625" y="17.52" font-family="Virgil, Segoe UI Emoji" font-size="20px" fill="#1e1e1e" text-anchor="middle" style="white-space: pre;" direction="ltr" dominant-baseline="alphabetic">ws 3</text></g><g stroke-linecap="round"><g transform="translate(1001.5182910852473 275.686814249339) rotate(0 -197.4705304582585 -44.39121908628863)"><path d="M0.96 -0.95 C-34.18 -5.97, -144.01 -16.27, -210 -31.1 C-275.99 -45.94, -364.13 -80.15, -394.99 -89.94 M0 1.16 C-35.36 -3.63, -144.96 -15.01, -210.95 -29.94 C-276.93 -44.88, -365.2 -78.68, -395.9 -88.45" stroke="#1e1e1e" stroke-width="2" fill="none"></path></g><g transform="translate(1001.5182910852473 275.686814249339) rotate(0 -197.4705304582585 -44.39121908628863)"><path d="M-23.42 4.59 C-16.01 2.35, -6.65 -0.13, 0.96 -0.95 M-23.42 4.59 C-16.35 2.72, -7.86 0.8, 0.96 -0.95" stroke="#1e1e1e" stroke-width="2" fill="none"></path></g><g transform="translate(1001.5182910852473 275.686814249339) rotate(0 -197.4705304582585 -44.39121908628863)"><path d="M-21.28 -12.38 C-14.79 -8.36, -6.22 -4.6, 0.96 -0.95 M-21.28 -12.38 C-14.97 -8.68, -7.18 -5.06, 0.96 -0.95" stroke="#1e1e1e" stroke-width="2" fill="none"></path></g><g transform="translate(1001.5182910852473 275.686814249339) rotate(0 -197.4705304582585 -44.39121908628863)"><path d="M-370.9 -88.89 C-381.68 -88.53, -390.47 -88.82, -395.9 -88.45 M-370.9 -88.89 C-380.02 -88.64, -387.68 -88.61, -395.9 -88.45" stroke="#1e1e1e" stroke-width="2" fill="none"></path></g><g transform="translate(1001.5182910852473 275.686814249339) rotate(0 -197.4705304582585 -44.39121908628863)"><path d="M-376.47 -72.72 C-385.07 -78.35, -391.81 -84.58, -395.9 -88.45 M-376.47 -72.72 C-383.7 -77.78, -389.55 -83.05, -395.9 -88.45" stroke="#1e1e1e" stroke-width="2" fill="none"></path></g></g><mask></mask><g stroke-linecap="round"><g transform="translate(1031.7471214580346 255.01083783087597) rotate(0 -133.89992307663306 -58.440321681108344)"><path d="M0.61 -0.87 C-29.44 -10.99, -134.71 -40.54, -179.37 -60.09 C-224.03 -79.64, -252.71 -108.59, -267.32 -118.17 M-0.52 1.29 C-30.82 -8.77, -135.72 -39.37, -180.37 -59.12 C-225.02 -78.86, -253.98 -107.6, -268.41 -117.17" stroke="#1e1e1e" stroke-width="2" fill="none"></path></g><g transform="translate(1031.7471214580346 255.01083783087597) rotate(0 -133.89992307663306 -58.440321681108344)"><path d="M-24.36 0.29 C-16.36 -0.45, -7.26 -1.74, 0.61 -0.87 M-24.36 0.29 C-18.95 0.05, -11.6 -1.1, 0.61 -0.87" stroke="#1e1e1e" stroke-width="2" fill="none"></path></g><g transform="translate(1031.7471214580346 255.01083783087597) rotate(0 -133.89992307663306 -58.440321681108344)"><path d="M-19.26 -16.04 C-13.1 -10.57, -5.94 -5.69, 0.61 -0.87 M-19.26 -16.04 C-15.17 -12.18, -9.1 -9.24, 0.61 -0.87" stroke="#1e1e1e" stroke-width="2" fill="none"></path></g><g transform="translate(1031.7471214580346 255.01083783087597) rotate(0 -133.89992307663306 -58.440321681108344)"><path d="M-244.58 -109.63 C-255.08 -112.53, -264.44 -116.24, -268.41 -117.17 M-244.58 -109.63 C-251.39 -111.47, -256.28 -114.22, -268.41 -117.17" stroke="#1e1e1e" stroke-width="2" fill="none"></path></g><g transform="translate(1031.7471214580346 255.01083783087597) rotate(0 -133.89992307663306 -58.440321681108344)"><path d="M-255 -96.07 C-261.63 -104.16, -267.05 -112.99, -268.41 -117.17 M-255 -96.07 C-259.16 -101.31, -261.44 -107.46, -268.41 -117.17" stroke="#1e1e1e" stroke-width="2" fill="none"></path></g></g><mask></mask><g stroke-linecap="round"><g transform="translate(1057.4817217381915 225.6522373549451) rotate(0 -44.48442984813937 -40.0730740456263)"><path d="M0.08 0.9 C-7.18 -9.82, -28.17 -50.52, -42.88 -64.17 C-57.59 -77.83, -80.46 -78.37, -88.16 -81.04 M-1.34 0.32 C-8.75 -10.24, -28.8 -49.47, -43.42 -62.91 C-58.04 -76.35, -81.38 -77.58, -89.05 -80.32" stroke="#1e1e1e" stroke-width="2" fill="none"></path></g><g transform="translate(1057.4817217381915 225.6522373549451) rotate(0 -44.48442984813937 -40.0730740456263)"><path d="M-19.43 -14.74 C-10.95 -7.88, -6.34 -4, 0.08 0.9 M-19.43 -14.74 C-15.71 -11.38, -11.79 -7.64, 0.08 0.9" stroke="#1e1e1e" stroke-width="2" fill="none"></path></g><g transform="translate(1057.4817217381915 225.6522373549451) rotate(0 -44.48442984813937 -40.0730740456263)"><path d="M-4.81 -23.62 C-1.54 -13.59, -2.15 -6.53, 0.08 0.9 M-4.81 -23.62 C-4.2 -18.47, -3.3 -12.89, 0.08 0.9" stroke="#1e1e1e" stroke-width="2" fill="none"></path></g><g transform="translate(1057.4817217381915 225.6522373549451) rotate(0 -44.48442984813937 -40.0730740456263)"><path d="M-65.65 -83.17 C-72.5 -80.85, -83.21 -81.52, -89.05 -80.32 M-65.65 -83.17 C-70.67 -82.57, -75.62 -81.47, -89.05 -80.32" stroke="#1e1e1e" stroke-width="2" fill="none"></path></g><g transform="translate(1057.4817217381915 225.6522373549451) rotate(0 -44.48442984813937 -40.0730740456263)"><path d="M-69.29 -67.46 C-74.85 -70.75, -84.26 -77.03, -89.05 -80.32 M-69.29 -67.46 C-73.41 -70.1, -77.6 -72.24, -89.05 -80.32" stroke="#1e1e1e" stroke-width="2" fill="none"></path></g></g><mask></mask><g stroke-linecap="round" transform="translate(533.1826288041048 335.7395038899567) rotate(0 86.06843844122704 80.57637958257601)"><path d="M108.75 20.25 C124.47 34.85, 137.76 47.53, 150.39 60.75 M108.75 20.25 C119.67 29.53, 129.25 40.21, 150.39 60.75 M150.39 60.75 C172.13 79.23, 173.9 79.41, 150.39 101.25 M150.39 60.75 C173.15 79.56, 170.22 78.98, 150.39 101.25 M150.39 101.25 C138.37 110.27, 130.64 121.29, 108.75 140.9 M150.39 101.25 C138.45 113.48, 125.34 123.75, 108.75 140.9 M108.75 140.9 C85.38 160.98, 88.93 159.88, 65.25 140.9 M108.75 140.9 C89.1 159.76, 85.92 160.01, 65.25 140.9 M65.25 140.9 C55.37 132.88, 43.95 124.28, 21.75 101.25 M65.25 140.9 C48.39 125.85, 33.57 111.79, 21.75 101.25 M21.75 101.25 C1.35 79.34, -0.32 79.96, 21.75 60.75 M21.75 101.25 C1.56 82.99, -0.71 82.92, 21.75 60.75 M21.75 60.75 C32.72 52.55, 40.44 40.33, 65.25 20.25 M21.75 60.75 C35.92 47.5, 51.27 33.42, 65.25 20.25 M65.25 20.25 C86.92 -1.25, 85.03 0.09, 108.75 20.25 M65.25 20.25 C85.27 0.68, 85.04 -0.88, 108.75 20.25" stroke="#1e1e1e" stroke-width="2" fill="none"></path></g><g transform="translate(582.5268837302847 404.0276936812447) rotate(0 36.689964294433594 12.5)"><text x="36.689964294433594" y="17.52" font-family="Virgil, Segoe UI Emoji" font-size="20px" fill="#1e1e1e" text-anchor="middle" style="white-space: pre;" direction="ltr" dominant-baseline="alphabetic">haproxy</text></g><g stroke-linecap="round" transform="translate(10 440.9041199581998) rotate(0 73.29043215200272 55.568086828452806)"><path d="M27.78 0 C56.85 2.16, 84.39 1.06, 118.8 0 M27.78 0 C47.5 0.17, 68.4 -0.57, 118.8 0 M118.8 0 C137.07 -1.83, 145.94 7.28, 146.58 27.78 M118.8 0 C138.84 1.16, 145 7.15, 146.58 27.78 M146.58 27.78 C145.64 45.79, 147.26 63.88, 146.58 83.35 M146.58 27.78 C146.43 44.54, 146.78 62.25, 146.58 83.35 M146.58 83.35 C147.99 102.87, 139.13 111.69, 118.8 111.14 M146.58 83.35 C146.06 102.18, 136.89 110.14, 118.8 111.14 M118.8 111.14 C94.14 110.54, 73.47 110, 27.78 111.14 M118.8 111.14 C100.44 111.29, 81.66 111.77, 27.78 111.14 M27.78 111.14 C9.93 110.86, -1.15 99.87, 0 83.35 M27.78 111.14 C10.83 112.78, 1.41 103.05, 0 83.35 M0 83.35 C0.73 67.13, -1.21 51.26, 0 27.78 M0 83.35 C0.4 64.99, 1.03 44.05, 0 27.78 M0 27.78 C0.52 8.62, 10.74 -0.65, 27.78 0 M0 27.78 C2.05 10.99, 7.45 0.93, 27.78 0" stroke="#1e1e1e" stroke-width="2" fill="none"></path></g><g transform="translate(42.23904361325185 400.02468996894595) rotate(0 46.109962463378906 12.5)"><text x="0" y="17.52" font-family="Virgil, Segoe UI Emoji" font-size="20px" fill="#1e1e1e" text-anchor="start" style="white-space: pre;" direction="ltr" dominant-baseline="alphabetic">Browser 1</text></g><g transform="translate(24.822402377696562 486.2220031339034) rotate(0 45.04998016357422 12.5)"><text x="0" y="17.52" font-family="Virgil, Segoe UI Emoji" font-size="20px" fill="#1e1e1e" text-anchor="start" style="white-space: pre;" direction="ltr" dominant-baseline="alphabetic">   User 1</text></g><g stroke-linecap="round"><g transform="translate(454.01604548558134 506.2558595818018) rotate(0 48.71152726978653 -30.29946608059413)"><path d="M-0.55 -1.17 C15.61 -11.19, 81.45 -49.79, 97.97 -59.88 M1.37 0.83 C17.26 -9.52, 80.83 -51.16, 96.95 -61.43" stroke="#1e1e1e" stroke-width="2" fill="none"></path></g><g transform="translate(454.01604548558134 506.2558595818018) rotate(0 48.71152726978653 -30.29946608059413)"><path d="M15.26 -20.54 C7.23 -13.33, 4.87 -4.8, -0.55 -1.17 M15.26 -20.54 C11.35 -15.89, 7.61 -12.08, -0.55 -1.17" stroke="#1e1e1e" stroke-width="2" fill="none"></path></g><g transform="translate(454.01604548558134 506.2558595818018) rotate(0 48.71152726978653 -30.29946608059413)"><path d="M24.01 -5.84 C12.55 -4.37, 6.8 -1.54, -0.55 -1.17 M24.01 -5.84 C18.08 -4.7, 12.26 -4.39, -0.55 -1.17" stroke="#1e1e1e" stroke-width="2" fill="none"></path></g><g transform="translate(454.01604548558134 506.2558595818018) rotate(0 48.71152726978653 -30.29946608059413)"><path d="M81.87 -41.49 C85.73 -49.39, 95.35 -56.1, 96.95 -61.43 M81.87 -41.49 C85.48 -46.18, 89.09 -51.72, 96.95 -61.43" stroke="#1e1e1e" stroke-width="2" fill="none"></path></g><g transform="translate(454.01604548558134 506.2558595818018) rotate(0 48.71152726978653 -30.29946608059413)"><path d="M72.58 -55.84 C80.07 -58.13, 93.3 -59.28, 96.95 -61.43 M72.58 -55.84 C78.33 -57.11, 84.16 -59.24, 96.95 -61.43" stroke="#1e1e1e" stroke-width="2" fill="none"></path></g></g><mask></mask><g stroke-linecap="round"><g transform="translate(592.6604996361511 327.75801998544557) rotate(0 -11.93916709750738 -60.60311494434882)"><path d="M-0.79 -1.2 C-4.61 -21.24, -19.99 -100.27, -24.07 -120.34 M0.99 0.79 C-2.85 -19.58, -20.89 -101.77, -24.87 -121.99" stroke="#1e1e1e" stroke-width="2" fill="none"></path></g><g transform="translate(592.6604996361511 327.75801998544557) rotate(0 -11.93916709750738 -60.60311494434882)"><path d="M-13.67 -22.63 C-13.09 -17.75, -7.01 -15.47, -0.79 -1.2 M-13.67 -22.63 C-10.87 -17.94, -7.22 -10.81, -0.79 -1.2" stroke="#1e1e1e" stroke-width="2" fill="none"></path></g><g transform="translate(592.6604996361511 327.75801998544557) rotate(0 -11.93916709750738 -60.60311494434882)"><path d="M3.12 -25.89 C0.31 -20.46, 3.02 -17.53, -0.79 -1.2 M3.12 -25.89 C1.44 -20.3, 0.62 -12.29, -0.79 -1.2" stroke="#1e1e1e" stroke-width="2" fill="none"></path></g><g transform="translate(592.6604996361511 327.75801998544557) rotate(0 -11.93916709750738 -60.60311494434882)"><path d="M-11.68 -100.75 C-16.32 -104.63, -15.48 -110.94, -24.87 -121.99 M-11.68 -100.75 C-15.73 -107.36, -19.02 -111.59, -24.87 -121.99" stroke="#1e1e1e" stroke-width="2" fill="none"></path></g><g transform="translate(592.6604996361511 327.75801998544557) rotate(0 -11.93916709750738 -60.60311494434882)"><path d="M-28.42 -97.25 C-29.69 -101.72, -25.48 -108.73, -24.87 -121.99 M-28.42 -97.25 C-28 -104.83, -26.84 -109.99, -24.87 -121.99" stroke="#1e1e1e" stroke-width="2" fill="none"></path></g></g><mask></mask><g stroke-linecap="round"><g transform="translate(641.1301389876062 340.8231611935521) rotate(0 33.38170622332382 -104.39849012236209)"><path d="M-0.08 -0.45 C11.2 -35.29, 56.94 -173.87, 68.35 -208.35 M-1.59 -1.73 C9.47 -36.51, 55.81 -173.22, 67.34 -207.25" stroke="#1e1e1e" stroke-width="2" fill="none"></path></g><g transform="translate(641.1301389876062 340.8231611935521) rotate(0 33.38170622332382 -104.39849012236209)"><path d="M-0.87 -25.43 C-1.18 -16.79, -1.54 -7.85, -0.08 -0.45 M-0.87 -25.43 C-0.47 -18.14, -0.94 -8.87, -0.08 -0.45" stroke="#1e1e1e" stroke-width="2" fill="none"></path></g><g transform="translate(641.1301389876062 340.8231611935521) rotate(0 33.38170622332382 -104.39849012236209)"><path d="M15.38 -20.09 C9.28 -13.35, 3.17 -6.31, -0.08 -0.45 M15.38 -20.09 C10.66 -14.38, 5.05 -6.8, -0.08 -0.45" stroke="#1e1e1e" stroke-width="2" fill="none"></path></g><g transform="translate(641.1301389876062 340.8231611935521) rotate(0 33.38170622332382 -104.39849012236209)"><path d="M67.9 -182.25 C66.8 -191.31, 65.97 -200.08, 67.34 -207.25 M67.9 -182.25 C68.1 -190.77, 67.2 -197.31, 67.34 -207.25" stroke="#1e1e1e" stroke-width="2" fill="none"></path></g><g transform="translate(641.1301389876062 340.8231611935521) rotate(0 33.38170622332382 -104.39849012236209)"><path d="M51.71 -187.74 C56.38 -194.84, 61.28 -201.67, 67.34 -207.25 M51.71 -187.74 C57 -194.63, 61.23 -199.44, 67.34 -207.25" stroke="#1e1e1e" stroke-width="2" fill="none"></path></g></g><mask></mask><g stroke-linecap="round"><g transform="translate(674.2928438125164 366.7132330757604) rotate(0 101.5091794526079 -98.12510421545971)"><path d="M0.82 -0.68 C34.81 -33.71, 169.51 -165.17, 203.23 -197.83 M-0.21 1.58 C33.74 -31.36, 168.8 -163.98, 202.61 -196.77" stroke="#1e1e1e" stroke-width="2" fill="none"></path></g><g transform="translate(674.2928438125164 366.7132330757604) rotate(0 101.5091794526079 -98.12510421545971)"><path d="M11.68 -23.2 C7.99 -16.62, 4.98 -11.33, 0.82 -0.68 M11.68 -23.2 C8.68 -16.15, 4.34 -9.39, 0.82 -0.68" stroke="#1e1e1e" stroke-width="2" fill="none"></path></g><g transform="translate(674.2928438125164 366.7132330757604) rotate(0 101.5091794526079 -98.12510421545971)"><path d="M23.61 -10.95 C17 -7.26, 11.1 -4.93, 0.82 -0.68 M23.61 -10.95 C16.78 -7.74, 8.59 -4.94, 0.82 -0.68" stroke="#1e1e1e" stroke-width="2" fill="none"></path></g><g transform="translate(674.2928438125164 366.7132330757604) rotate(0 101.5091794526079 -98.12510421545971)"><path d="M191.78 -174.24 C193.2 -178.72, 195.44 -184.33, 202.61 -196.77 M191.78 -174.24 C195.8 -181.9, 198.44 -189.67, 202.61 -196.77" stroke="#1e1e1e" stroke-width="2" fill="none"></path></g><g transform="translate(674.2928438125164 366.7132330757604) rotate(0 101.5091794526079 -98.12510421545971)"><path d="M179.83 -186.48 C184.18 -188.07, 189.31 -190.73, 202.61 -196.77 M179.83 -186.48 C187.69 -190.3, 194.19 -194.12, 202.61 -196.77" stroke="#1e1e1e" stroke-width="2" fill="none"></path></g></g><mask></mask><g stroke-linecap="round"><g transform="translate(1100.018562885336 235.80249567171086) rotate(0 140.8069467799014 -78.97862485684254)"><path d="M-0.47 0.63 C22.91 -8.11, 92.07 -26.38, 139.16 -52.91 C186.25 -79.45, 258.45 -141.11, 282.08 -158.58 M1.49 -0.09 C24.79 -9.13, 91.44 -28.41, 138.1 -54.7 C184.76 -80.99, 257.67 -140.8, 281.45 -157.82" stroke="#1e1e1e" stroke-width="2" fill="none"></path></g><g transform="translate(1100.018562885336 235.80249567171086) rotate(0 140.8069467799014 -78.97862485684254)"><path d="M18.98 -15.08 C15.94 -12.25, 11.94 -8.23, -0.47 0.63 M18.98 -15.08 C14.23 -11.74, 9.99 -9.07, -0.47 0.63" stroke="#1e1e1e" stroke-width="2" fill="none"></path></g><g transform="translate(1100.018562885336 235.80249567171086) rotate(0 140.8069467799014 -78.97862485684254)"><path d="M24.53 1.1 C20.4 0.55, 15.25 1.22, -0.47 0.63 M24.53 1.1 C18.71 0.99, 13.3 0.21, -0.47 0.63" stroke="#1e1e1e" stroke-width="2" fill="none"></path></g><g transform="translate(1100.018562885336 235.80249567171086) rotate(0 140.8069467799014 -78.97862485684254)"><path d="M267.92 -136.79 C271.85 -141.44, 274.68 -145.02, 281.45 -157.82 M267.92 -136.79 C270.45 -141.19, 273.23 -146.34, 281.45 -157.82" stroke="#1e1e1e" stroke-width="2" fill="none"></path></g><g transform="translate(1100.018562885336 235.80249567171086) rotate(0 140.8069467799014 -78.97862485684254)"><path d="M257.57 -150.4 C263.59 -152.2, 268.56 -152.96, 281.45 -157.82 M257.57 -150.4 C262.2 -151.89, 267.18 -154.14, 281.45 -157.82" stroke="#1e1e1e" stroke-width="2" fill="none"></path></g></g><mask></mask><g stroke-linecap="round"><g transform="translate(1179.0831647585946 309.65567571326665) rotate(0 144.64776077864826 -32.963345759261074)"><path d="M0.66 0.86 C26.3 2.23, 105.66 21.93, 153.43 8.73 C201.19 -4.47, 264.76 -63.55, 287.24 -78.35 M-0.45 0.26 C25.03 1.76, 103.88 23.46, 152.24 10.03 C200.61 -3.4, 266.99 -65.4, 289.74 -80.32" stroke="#1e1e1e" stroke-width="2" fill="none"></path></g><g transform="translate(1179.0831647585946 309.65567571326665) rotate(0 144.64776077864826 -32.963345759261074)"><path d="M25 -4.87 C19.99 -3.97, 11.34 -2.96, 0.66 0.86 M25 -4.87 C17.13 -2.22, 7.14 -1.94, 0.66 0.86" stroke="#1e1e1e" stroke-width="2" fill="none"></path></g><g transform="translate(1179.0831647585946 309.65567571326665) rotate(0 144.64776077864826 -32.963345759261074)"><path d="M22.99 12.11 C18.45 8.5, 10.34 5, 0.66 0.86 M22.99 12.11 C15.8 8.67, 6.52 2.83, 0.66 0.86" stroke="#1e1e1e" stroke-width="2" fill="none"></path></g><g transform="translate(1179.0831647585946 309.65567571326665) rotate(0 144.64776077864826 -32.963345759261074)"><path d="M276.35 -59.21 C281.24 -65.63, 282.6 -71.74, 289.74 -80.32 M276.35 -59.21 C281.98 -65.9, 285.56 -75.28, 289.74 -80.32" stroke="#1e1e1e" stroke-width="2" fill="none"></path></g><g transform="translate(1179.0831647585946 309.65567571326665) rotate(0 144.64776077864826 -32.963345759261074)"><path d="M265.91 -72.76 C273.63 -75.65, 277.76 -78.16, 289.74 -80.32 M265.91 -72.76 C275.34 -74.48, 282.68 -78.99, 289.74 -80.32" stroke="#1e1e1e" stroke-width="2" fill="none"></path></g></g><mask></mask><g stroke-linecap="round"><g transform="translate(1147.8242842985564 356.7345631483413) rotate(0 190.13788838692835 13.267310244395048)"><path d="M-1.14 -0.22 C34.49 6.87, 150.3 45.32, 213.68 42.91 C277.05 40.51, 351.15 -4.77, 379.1 -14.66 M0.46 -1.38 C35.97 5.32, 149.41 43.61, 212.9 41.1 C276.4 38.58, 353.81 -7.01, 381.42 -16.49" stroke="#1e1e1e" stroke-width="2" fill="none"></path></g><g transform="translate(1147.8242842985564 356.7345631483413) rotate(0 190.13788838692835 13.267310244395048)"><path d="M23.71 -2.91 C16.16 -1.81, 10.31 -3.41, -1.14 -0.22 M23.71 -2.91 C13.68 -1.54, 4.73 -0.15, -1.14 -0.22" stroke="#1e1e1e" stroke-width="2" fill="none"></path></g><g transform="translate(1147.8242842985564 356.7345631483413) rotate(0 190.13788838692835 13.267310244395048)"><path d="M19.62 13.69 C13.2 10.03, 8.53 3.62, -1.14 -0.22 M19.62 13.69 C11 8.75, 3.6 3.79, -1.14 -0.22" stroke="#1e1e1e" stroke-width="2" fill="none"></path></g><g transform="translate(1147.8242842985564 356.7345631483413) rotate(0 190.13788838692835 13.267310244395048)"><path d="M363.38 0.82 C368.17 -3.46, 374.73 -10.84, 381.42 -16.49 M363.38 0.82 C369.55 -5.16, 376.98 -11.42, 381.42 -16.49" stroke="#1e1e1e" stroke-width="2" fill="none"></path></g><g transform="translate(1147.8242842985564 356.7345631483413) rotate(0 190.13788838692835 13.267310244395048)"><path d="M356.48 -14.82 C363.32 -14.51, 371.87 -17.37, 381.42 -16.49 M356.48 -14.82 C365.43 -14.78, 375.51 -15.06, 381.42 -16.49" stroke="#1e1e1e" stroke-width="2" fill="none"></path></g></g><mask></mask><g stroke-linecap="round" transform="translate(1799.4938956257156 43.64867913012358) rotate(0 56.676264147438815 79.35356323059159)"><path d="M28.34 0 C41.74 1.37, 52.29 0.36, 85.01 0 M28.34 0 C49.95 -0.21, 72.94 0.26, 85.01 0 M85.01 0 C105.56 1.35, 111.71 11.04, 113.35 28.34 M85.01 0 C102.08 0, 111.98 8.93, 113.35 28.34 M113.35 28.34 C111.12 61.79, 112.14 94.96, 113.35 130.37 M113.35 28.34 C114.03 66.41, 113.43 103.71, 113.35 130.37 M113.35 130.37 C111.7 150.9, 102.74 157.31, 85.01 158.71 M113.35 130.37 C115.27 147.79, 103.73 159.86, 85.01 158.71 M85.01 158.71 C72.66 158.64, 59.04 160.2, 28.34 158.71 M85.01 158.71 C68.51 159.17, 53.24 159.85, 28.34 158.71 M28.34 158.71 C11.08 159.54, -1.1 150.78, 0 130.37 M28.34 158.71 C11.19 156.82, -1.75 147.37, 0 130.37 M0 130.37 C-0.45 107.4, -0.98 83.36, 0 28.34 M0 130.37 C0 90.39, -1.32 49.16, 0 28.34 M0 28.34 C-1.48 9.38, 11.01 -0.66, 28.34 0 M0 28.34 C1.11 9.33, 11.4 0.7, 28.34 0" stroke="#1e1e1e" stroke-width="2" fill="none"></path></g><g stroke-linecap="round"><g transform="translate(1798.2116368121751 81.27575729430646) rotate(0 56.91940527861061 5.561318691261249)"><path d="M-0.75 -0.84 C7.97 1.31, 34.08 11.61, 53.31 11.96 C72.53 12.31, 104.52 2.82, 114.58 1.26 M1.06 1.33 C9.53 3.23, 33.54 10.04, 52.35 10.21 C71.16 10.37, 103.72 3.91, 113.93 2.3" stroke="#1e1e1e" stroke-width="2" fill="none"></path></g></g><mask></mask><g stroke-linecap="round"><g transform="translate(1795.6481167353104 124.96676389130107) rotate(0 56.87370215361079 5.508177210796248)"><path d="M-0.45 -1.12 C8.55 0.55, 34.75 10.16, 53.86 10.82 C72.97 11.49, 104.25 4.51, 114.2 2.86 M1.51 0.91 C10.41 2.68, 34.56 12.11, 53.19 12.13 C71.83 12.16, 103.31 2.83, 113.34 1.08" stroke="#1e1e1e" stroke-width="2" fill="none"></path></g></g><mask></mask><g stroke-linecap="round"><g transform="translate(1798.9811404724915 168.4998751999642) rotate(0 57.3539015906872 5.519906800669105)"><path d="M0.38 0.4 C9.25 1.94, 35.54 10.29, 54.36 10.38 C73.17 10.47, 103.37 2.4, 113.27 0.94 M-0.87 -0.43 C7.83 1.74, 34.54 11.08, 53.95 11.46 C73.36 11.83, 105.63 3.27, 115.58 1.81" stroke="#1e1e1e" stroke-width="2" fill="none"></path></g></g><mask></mask><g stroke-linecap="round" transform="translate(1823.1919267530957 816.3581138100594) rotate(0 56.676264147438815 79.35356323059159)"><path d="M28.34 0 C39.01 -0.1, 52.22 -0.79, 85.01 0 M28.34 0 C41.28 -0.01, 53.97 -0.2, 85.01 0 M85.01 0 C105.74 0.77, 114.2 9.14, 113.35 28.34 M85.01 0 C105.3 -1.39, 113.26 10.63, 113.35 28.34 M113.35 28.34 C113.08 69.13, 114.79 107.89, 113.35 130.37 M113.35 28.34 C113.85 67.38, 113.41 106.19, 113.35 130.37 M113.35 130.37 C115.31 149.88, 102.67 156.98, 85.01 158.71 M113.35 130.37 C113.25 150.5, 102.06 158.75, 85.01 158.71 M85.01 158.71 C68.63 158.47, 55.24 160.33, 28.34 158.71 M85.01 158.71 C64.65 158.75, 43.46 158.78, 28.34 158.71 M28.34 158.71 C8.13 160.08, -1.73 150.01, 0 130.37 M28.34 158.71 C10.82 156.72, 0.54 150.36, 0 130.37 M0 130.37 C1.89 92.58, 2.05 59.1, 0 28.34 M0 130.37 C-0.84 104.26, -0.01 76.87, 0 28.34 M0 28.34 C-0.99 9.49, 7.82 0.13, 28.34 0 M0 28.34 C0.09 8.73, 10.75 0.89, 28.34 0" stroke="#1e1e1e" stroke-width="2" fill="none"></path></g><g stroke-linecap="round"><g transform="translate(1822.2485901382424 853.9851919742428) rotate(0 57.31905295787419 4.9927123948641565)"><path d="M-0.07 -0.33 C8.74 1.56, 33.88 10.16, 52.84 10.41 C71.79 10.66, 103.44 2.64, 113.68 1.14 M-1.57 -1.55 C7.05 0.55, 32 10.89, 51.63 11.51 C71.26 12.12, 105.73 3.65, 116.2 2.12" stroke="#1e1e1e" stroke-width="2" fill="none"></path></g></g><mask></mask><g stroke-linecap="round"><g transform="translate(1819.3461478626905 897.6761985712369) rotate(0 56.89139014189277 5.475006838763193)"><path d="M-0.49 -0.84 C8.29 0.98, 33.5 10.22, 52.62 10.59 C71.75 10.97, 104.06 2.99, 114.27 1.42 M1.46 1.33 C10.63 3.33, 36.3 11.59, 54.97 11.79 C73.63 11.99, 103.64 4.18, 113.45 2.54" stroke="#1e1e1e" stroke-width="2" fill="none"></path></g></g><mask></mask><g stroke-linecap="round"><g transform="translate(1822.6791715998752 941.2093098799) rotate(0 56.58494482939204 5.777997301143159)"><path d="M-0.7 -0.66 C8.25 1.3, 34.12 10.56, 53.22 10.87 C72.31 11.18, 103.49 2.63, 113.87 1.19 M1.13 1.61 C9.96 3.81, 33.59 12.12, 52.21 12.21 C70.83 12.31, 102.77 3.63, 112.84 2.19" stroke="#1e1e1e" stroke-width="2" fill="none"></path></g></g><mask></mask><g transform="translate(1807.2766121992827 10) rotate(0 41.75994873046875 12.5)"><text x="0" y="17.52" font-family="Virgil, Segoe UI Emoji" font-size="20px" fill="#1e1e1e" text-anchor="start" style="white-space: pre;" direction="ltr" dominant-baseline="alphabetic">postgres</text></g><g transform="translate(1821.7635892582075 216.71116005678914) rotate(0 34.179954528808594 12.5)"><text x="0" y="17.52" font-family="Virgil, Segoe UI Emoji" font-size="20px" fill="#1e1e1e" text-anchor="start" style="white-space: pre;" direction="ltr" dominant-baseline="alphabetic">postgis</text></g><g transform="translate(1834.1190191153746 997.458771044167) rotate(0 42.15996551513672 12.5)"><text x="0" y="17.52" font-family="Virgil, Segoe UI Emoji" font-size="20px" fill="#1e1e1e" text-anchor="start" style="white-space: pre;" direction="ltr" dominant-baseline="alphabetic">mongoDB</text></g><g stroke-linecap="round"><g transform="translate(737.2430968546869 723.1177011725813) rotate(0 64.90473710099559 30.72219603732151)"><path d="M-0.85 -0.69 C21.12 9.28, 108.92 50.42, 130.66 60.92 M0.91 1.57 C22.89 12.19, 108.86 52.34, 130.16 62.13" stroke="#1e1e1e" stroke-width="2" fill="none"></path></g><g transform="translate(737.2430968546869 723.1177011725813) rotate(0 64.90473710099559 30.72219603732151)"><path d="M105.25 59.99 C109.22 62.03, 114.45 60.64, 130.16 62.13 M105.25 59.99 C115.25 60.82, 123.38 60.97, 130.16 62.13" stroke="#1e1e1e" stroke-width="2" fill="none"></path></g><g transform="translate(737.2430968546869 723.1177011725813) rotate(0 64.90473710099559 30.72219603732151)"><path d="M112.45 44.48 C115.1 49.64, 118.84 51.43, 130.16 62.13 M112.45 44.48 C119.69 50.96, 125.22 56.73, 130.16 62.13" stroke="#1e1e1e" stroke-width="2" fill="none"></path></g></g><mask></mask><g stroke-linecap="round"><g transform="translate(1512.3130360392825 54.458656928552955) rotate(0 138.88079851804196 24.317787848194257)"><path d="M-0.7 -0.31 C45.89 7.87, 231.94 41.81, 278.46 50.15 M1.13 -1.52 C47.74 6.85, 231.85 40.3, 278.02 48.5" stroke="#1e1e1e" stroke-width="2" fill="none"></path></g><g transform="translate(1512.3130360392825 54.458656928552955) rotate(0 138.88079851804196 24.317787848194257)"><path d="M253.39 52.76 C258.02 53.62, 265.23 52.65, 278.02 48.5 M253.39 52.76 C262.25 51.29, 269.41 50.52, 278.02 48.5" stroke="#1e1e1e" stroke-width="2" fill="none"></path></g><g transform="translate(1512.3130360392825 54.458656928552955) rotate(0 138.88079851804196 24.317787848194257)"><path d="M256.41 35.93 C260.56 40.31, 267.14 42.89, 278.02 48.5 M256.41 35.93 C264.38 40.22, 270.5 45.23, 278.02 48.5" stroke="#1e1e1e" stroke-width="2" fill="none"></path></g></g><mask></mask><g stroke-linecap="round"><g transform="translate(1591.1559388321493 191.63252344077046) rotate(0 98.5969023824473 -31.00735456036614)"><path d="M-0.76 0.91 C32.33 -9.67, 164.93 -52.51, 197.95 -62.93 M1.04 0.35 C34.07 -10.17, 164.62 -51.21, 197.21 -61.89" stroke="#1e1e1e" stroke-width="2" fill="none"></path></g><g transform="translate(1591.1559388321493 191.63252344077046) rotate(0 98.5969023824473 -31.00735456036614)"><path d="M177.44 -46.58 C183.82 -49.64, 185.64 -54.4, 197.21 -61.89 M177.44 -46.58 C184.74 -51.22, 191.58 -56.17, 197.21 -61.89" stroke="#1e1e1e" stroke-width="2" fill="none"></path></g><g transform="translate(1591.1559388321493 191.63252344077046) rotate(0 98.5969023824473 -31.00735456036614)"><path d="M172.22 -62.87 C179.98 -61.83, 183.11 -62.53, 197.21 -61.89 M172.22 -62.87 C181.17 -62.12, 189.75 -61.65, 197.21 -61.89" stroke="#1e1e1e" stroke-width="2" fill="none"></path></g></g><mask></mask><g stroke-linecap="round"><g transform="translate(1652.8317190383896 281.9733254495195) rotate(0 66.43113357310358 -56.711900723809094)"><path d="M-0.92 0.75 C21.36 -18.1, 111.57 -95.09, 133.78 -114.18 M0.8 0.1 C22.96 -18.53, 110.79 -94.29, 133.13 -113.08" stroke="#1e1e1e" stroke-width="2" fill="none"></path></g><g transform="translate(1652.8317190383896 281.9733254495195) rotate(0 66.43113357310358 -56.711900723809094)"><path d="M120.81 -91.33 C126.05 -97.01, 127.17 -106.09, 133.13 -113.08 M120.81 -91.33 C123.86 -97.75, 127.65 -103.13, 133.13 -113.08" stroke="#1e1e1e" stroke-width="2" fill="none"></path></g><g transform="translate(1652.8317190383896 281.9733254495195) rotate(0 66.43113357310358 -56.711900723809094)"><path d="M109.71 -104.34 C118.25 -105.92, 122.8 -111, 133.13 -113.08 M109.71 -104.34 C115.58 -107.35, 122.29 -109.3, 133.13 -113.08" stroke="#1e1e1e" stroke-width="2" fill="none"></path></g></g><mask></mask><g stroke-linecap="round" transform="translate(863.5570923112955 212.19769304544434) rotate(0 224.35920230339525 204.84933724309008)"><path d="M32 0 C164.46 -1.41, 294.88 -2.42, 416.72 0 M416.72 0 C437.62 1.36, 449.59 12.02, 448.72 32 M448.72 32 C449.25 108.12, 447.95 183.06, 448.72 377.7 M448.72 377.7 C447.46 400.79, 438.51 410.7, 416.72 409.7 M416.72 409.7 C272.92 409.42, 127.79 407.69, 32 409.7 M32 409.7 C12.21 408.85, 1.57 398.95, 0 377.7 M0 377.7 C1.24 295.93, 1.11 212.88, 0 32 M0 32 C-1.56 9.71, 10.6 -0.99, 32 0" stroke="#1e1e1e" stroke-width="2.5" fill="none" stroke-dasharray="8 10"></path></g><g transform="translate(1028.2124897378217 623.9905908242445) rotate(0 57.159950256347656 12.5)"><text x="57.159950256347656" y="17.52" font-family="Virgil, Segoe UI Emoji" font-size="20px" fill="#1e1e1e" text-anchor="middle" style="white-space: pre;" direction="ltr" dominant-baseline="alphabetic">redis node 1</text></g><g stroke-linecap="round"><g transform="translate(461.1794184780265 607.2979164452527) rotate(0 44.33240336959443 27.0979397467338)"><path d="M-0.16 0.65 C14.89 9.59, 75.38 43.98, 90.36 52.68 M-1.7 -0.06 C13.27 9.18, 74.76 45.18, 89.89 54.25" stroke="#1e1e1e" stroke-width="2" fill="none"></path></g><g transform="translate(461.1794184780265 607.2979164452527) rotate(0 44.33240336959443 27.0979397467338)"><path d="M65.32 49.65 C73.88 52.6, 80.42 52.95, 89.89 54.25 M65.32 49.65 C74.14 51.85, 80.29 52.54, 89.89 54.25" stroke="#1e1e1e" stroke-width="2" fill="none"></path></g><g transform="translate(461.1794184780265 607.2979164452527) rotate(0 44.33240336959443 27.0979397467338)"><path d="M74.03 34.93 C79.81 42.38, 83.68 47.22, 89.89 54.25 M74.03 34.93 C80 41.85, 83.33 47.3, 89.89 54.25" stroke="#1e1e1e" stroke-width="2" fill="none"></path></g></g><mask></mask><g stroke-linecap="round" transform="translate(290.40014166007313 486.0641996839272) rotate(0 73.29043215200272 55.568086828452806)"><path d="M27.78 0 C60.46 0.49, 92.43 -2.41, 118.8 0 M27.78 0 C58.2 -1.34, 88.5 -0.88, 118.8 0 M118.8 0 C135.78 0.75, 146.91 9.46, 146.58 27.78 M118.8 0 C135.78 2.07, 147.79 8.61, 146.58 27.78 M146.58 27.78 C144.22 40.38, 145.14 53.59, 146.58 83.35 M146.58 27.78 C147.33 46.3, 146.78 63.74, 146.58 83.35 M146.58 83.35 C146.05 100.38, 139.26 109.99, 118.8 111.14 M146.58 83.35 C148.51 103.03, 136.07 113.26, 118.8 111.14 M118.8 111.14 C87.99 112.19, 55.43 112.98, 27.78 111.14 M118.8 111.14 C82.47 111.24, 47.15 111.5, 27.78 111.14 M27.78 111.14 C7.34 112.23, -0.39 102.78, 0 83.35 M27.78 111.14 C8.89 109.88, 0.26 100.68, 0 83.35 M0 83.35 C-0.08 69.42, 1.22 53.67, 0 27.78 M0 83.35 C0.76 61.22, -0.4 40.78, 0 27.78 M0 27.78 C-1.61 8.97, 8.29 0.36, 27.78 0 M0 27.78 C1.86 11.2, 10.27 0.46, 27.78 0" stroke="#1e1e1e" stroke-width="2" fill="none"></path></g><g transform="translate(307.65063393170385 529.1322865123802) rotate(0 56.039939880371094 12.5)"><text x="56.039939880371094" y="17.52" font-family="Virgil, Segoe UI Emoji" font-size="20px" fill="#1e1e1e" text-anchor="middle" style="white-space: pre;" direction="ltr" dominant-baseline="alphabetic">ts-frontend</text></g><g stroke-linecap="round"><g transform="translate(163.08884329831199 488.9108643031327) rotate(0 59.682027072483834 19.176085359162244)"><path d="M-0.42 -1.02 C19.72 5.4, 99.82 32.71, 119.79 39.37 M1.55 1.06 C21.64 7.1, 99.38 31.85, 118.86 37.83" stroke="#1e1e1e" stroke-width="2" fill="none"></path></g><g transform="translate(163.08884329831199 488.9108643031327) rotate(0 59.682027072483834 19.176085359162244)"><path d="M93.89 38.97 C97.43 38.89, 106.24 38.01, 118.86 37.83 M93.89 38.97 C101.96 37.6, 112.01 37.07, 118.86 37.83" stroke="#1e1e1e" stroke-width="2" fill="none"></path></g><g transform="translate(163.08884329831199 488.9108643031327) rotate(0 59.682027072483834 19.176085359162244)"><path d="M99 22.65 C101.59 25.98, 109.32 28.54, 118.86 37.83 M99 22.65 C105.15 27.17, 113.37 32.49, 118.86 37.83" stroke="#1e1e1e" stroke-width="2" fill="none"></path></g></g><mask></mask><g stroke-linecap="round"><g transform="translate(166.74230971126235 666.8926026942108) rotate(0 58.05602880841616 -45.77042264786019)"><path d="M0.58 -1.01 C20 -16.06, 97.36 -75.6, 116.68 -90.67 M-0.57 1.07 C18.68 -14.32, 96.4 -77.36, 115.78 -92.61" stroke="#1e1e1e" stroke-width="2" fill="none"></path></g><g transform="translate(166.74230971126235 666.8926026942108) rotate(0 58.05602880841616 -45.77042264786019)"><path d="M102.78 -71.25 C105.26 -77.91, 111.63 -84.94, 115.78 -92.61 M102.78 -71.25 C106.32 -77.32, 108.92 -83.18, 115.78 -92.61" stroke="#1e1e1e" stroke-width="2" fill="none"></path></g><g transform="translate(166.74230971126235 666.8926026942108) rotate(0 58.05602880841616 -45.77042264786019)"><path d="M92.09 -84.6 C97.89 -87.11, 107.64 -89.93, 115.78 -92.61 M92.09 -84.6 C98.44 -87.22, 103.83 -89.58, 115.78 -92.61" stroke="#1e1e1e" stroke-width="2" fill="none"></path></g></g><mask></mask><g stroke-linecap="round" transform="translate(1021.7207141919298 693.1649759892762) rotate(0 64.5014899651751 33.58201989013742)"><path d="M16.79 0 C45.66 -2.79, 72.6 -2.44, 112.21 0 M112.21 0 C122.17 -1.07, 128.74 5.18, 129 16.79 M129 16.79 C128.92 25.52, 130.08 37.44, 129 50.37 M129 50.37 C127.41 62.98, 124.08 65.58, 112.21 67.16 M112.21 67.16 C83.75 65.04, 56.32 66.41, 16.79 67.16 M16.79 67.16 C3.91 67.47, 0.77 59.95, 0 50.37 M0 50.37 C-1.1 42.16, 2.24 33.07, 0 16.79 M0 16.79 C-1.96 5.84, 7.18 0.44, 16.79 0" stroke="#1e1e1e" stroke-width="2.5" fill="none" stroke-dasharray="8 10"></path></g><g stroke-linecap="round" transform="translate(1029.900802512755 835.4773660370274) rotate(0 64.5014899651751 33.58201989013742)"><path d="M16.79 0 C39.86 -1, 65.18 0.65, 112.21 0 M112.21 0 C125.35 1.1, 130.45 6.15, 129 16.79 M129 16.79 C128.08 28.77, 127.79 42.08, 129 50.37 M129 50.37 C128.3 61.86, 125.38 67.44, 112.21 67.16 M112.21 67.16 C86.43 68.16, 65.08 67.09, 16.79 67.16 M16.79 67.16 C6.35 65.31, -0.44 59.71, 0 50.37 M0 50.37 C0.11 40.12, 1.51 30.97, 0 16.79 M0 16.79 C1.25 5.8, 3.97 -1.1, 16.79 0" stroke="#1e1e1e" stroke-width="2.5" fill="none" stroke-dasharray="8 10"></path></g><g stroke-linecap="round" transform="translate(1489.5070209313162 566.8176247133924) rotate(0 93.07415712447073 92.34598697042475)"><path d="M117.5 23.25 C128.71 33.87, 140.01 44.84, 162.65 69.75 M117.5 23.25 C128.33 35.86, 141.43 48.29, 162.65 69.75 M162.65 69.75 C185.2 93.22, 186.34 94.99, 162.65 116.25 M162.65 69.75 C185.52 91.59, 187.69 94.03, 162.65 116.25 M162.65 116.25 C146.32 132.29, 130.61 148.82, 117.5 161.44 M162.65 116.25 C149.03 129.86, 134.18 143.63, 117.5 161.44 M117.5 161.44 C95.69 184.92, 93.87 185.79, 70.5 161.44 M117.5 161.44 C93.63 184.34, 93.11 184.01, 70.5 161.44 M70.5 161.44 C55.47 147.64, 39.94 134.2, 23.5 116.25 M70.5 161.44 C51.79 143.54, 33.71 127.23, 23.5 116.25 M23.5 116.25 C-0.96 94.9, 0.2 94.52, 23.5 69.75 M23.5 116.25 C-0.8 91.88, -1.05 93.92, 23.5 69.75 M23.5 69.75 C39.82 53.23, 57.58 37.61, 70.5 23.25 M23.5 69.75 C34.52 59.21, 43.25 48.12, 70.5 23.25 M70.5 23.25 C94.77 0.35, 95.89 -1.21, 117.5 23.25 M70.5 23.25 C95.98 0.02, 94.8 1.56, 117.5 23.25" stroke="#1e1e1e" stroke-width="2" fill="none"></path></g><g transform="translate(1554.6041199403298 633.9906181986048) rotate(0 27.939979553222656 25)"><text x="27.939979553222656" y="17.52" font-family="Virgil, Segoe UI Emoji" font-size="20px" fill="#1e1e1e" text-anchor="middle" style="white-space: pre;" direction="ltr" dominant-baseline="alphabetic">kafka</text><text x="27.939979553222656" y="42.519999999999996" font-family="Virgil, Segoe UI Emoji" font-size="20px" fill="#1e1e1e" text-anchor="middle" style="white-space: pre;" direction="ltr" dominant-baseline="alphabetic">cdc</text></g><g stroke-linecap="round" transform="translate(842.9954960825689 194.03597731767968) rotate(0 248.8981438265173 411.2275158869779)"><path d="M32 0 C175.55 -2.2, 321.01 -1.95, 465.8 0 M465.8 0 C487.31 0.27, 499.16 10.58, 497.8 32 M497.8 32 C497.57 183.77, 497.46 335.4, 497.8 790.46 M497.8 790.46 C497.6 812.69, 487.03 821.68, 465.8 822.46 M465.8 822.46 C355.52 824.61, 245.91 823.62, 32 822.46 M32 822.46 C9.28 821.22, 0.98 809.96, 0 790.46 M0 790.46 C1.2 521.22, 1.42 252.41, 0 32 M0 32 C-1.02 9.4, 12.26 -0.14, 32 0" stroke="#1e1e1e" stroke-width="2.5" fill="none" stroke-dasharray="1.5 8"></path></g><g transform="translate(1037.3587603628966 992.3930663206588) rotate(0 62.25993347167969 12.5)"><text x="0" y="17.52" font-family="Virgil, Segoe UI Emoji" font-size="20px" fill="#1e1e1e" text-anchor="start" style="white-space: pre;" direction="ltr" dominant-baseline="alphabetic">redis cluster</text></g><g stroke-linecap="round"><g transform="translate(1807.9586957379051 884.8042866848136) rotate(0 -85.79376914516251 -86.12411566150286)"><path d="M-1.14 -0.69 C-29.49 -29.27, -142.64 -143.19, -170.85 -172.03 M0.47 1.56 C-28.03 -27.32, -143.45 -144.73, -172.06 -173.81" stroke="#1e1e1e" stroke-width="2" fill="none"></path></g><g transform="translate(1807.9586957379051 884.8042866848136) rotate(0 -85.79376914516251 -86.12411566150286)"><path d="M-149.49 -163.06 C-156.03 -166.69, -159.24 -168.54, -172.06 -173.81 M-149.49 -163.06 C-155.33 -164.38, -159.23 -167.9, -172.06 -173.81" stroke="#1e1e1e" stroke-width="2" fill="none"></path></g><g transform="translate(1807.9586957379051 884.8042866848136) rotate(0 -85.79376914516251 -86.12411566150286)"><path d="M-161.68 -151.06 C-165.23 -157.47, -165.5 -162.21, -172.06 -173.81 M-161.68 -151.06 C-164.89 -155, -166.16 -161.11, -172.06 -173.81" stroke="#1e1e1e" stroke-width="2" fill="none"></path></g></g><mask></mask><g stroke-linecap="round"><g transform="translate(1790.9534697262934 220.18499838189018) rotate(0 -95.80349997698977 171.3125796704942)"><path d="M0.69 0.72 C-31.53 57.65, -160.14 284.61, -192.29 341.6 M-0.41 0.05 C-32.35 57.08, -158.53 285.25, -190.09 342.58" stroke="#1e1e1e" stroke-width="2" fill="none"></path></g><g transform="translate(1790.9534697262934 220.18499838189018) rotate(0 -95.80349997698977 171.3125796704942)"><path d="M-186.22 317.88 C-186.5 325.78, -190.98 335.41, -190.09 342.58 M-186.22 317.88 C-187.61 325.79, -187.47 332.7, -190.09 342.58" stroke="#1e1e1e" stroke-width="2" fill="none"></path></g><g transform="translate(1790.9534697262934 220.18499838189018) rotate(0 -95.80349997698977 171.3125796704942)"><path d="M-171.25 326.14 C-177.29 330.96, -187.53 337.4, -190.09 342.58 M-171.25 326.14 C-177.2 331.45, -181.55 335.89, -190.09 342.58" stroke="#1e1e1e" stroke-width="2" fill="none"></path></g></g><mask></mask><g stroke-linecap="round" transform="translate(1459.7419865862848 549.697485952297) rotate(0 130.19207984777222 112.9874699314255)"><path d="M32 0 C106.72 1.89, 185.1 0.25, 228.38 0 M228.38 0 C250.35 1.8, 258.68 10.51, 260.38 32 M260.38 32 C259.63 91.11, 260.02 153.51, 260.38 193.97 M260.38 193.97 C258.67 214.82, 250.75 225.18, 228.38 225.97 M228.38 225.97 C173.52 224.03, 120.31 226.6, 32 225.97 M32 225.97 C11.74 226.66, 1.46 216.84, 0 193.97 M0 193.97 C3.24 130.49, 3.08 66.97, 0 32 M0 32 C0.36 12.35, 10.67 -0.61, 32 0" stroke="#1e1e1e" stroke-width="2.5" fill="none" stroke-dasharray="8 10"></path></g><g transform="translate(1030.17469722832 766.331870040186) rotate(0 61.5699462890625 12.5)"><text x="61.5699462890625" y="17.52" font-family="Virgil, Segoe UI Emoji" font-size="20px" fill="#1e1e1e" text-anchor="middle" style="white-space: pre;" direction="ltr" dominant-baseline="alphabetic">redis node 2</text></g><g transform="translate(1031.0938082756038 919.099614986872) rotate(0 61.25994873046875 12.5)"><text x="61.25994873046875" y="17.52" font-family="Virgil, Segoe UI Emoji" font-size="20px" fill="#1e1e1e" text-anchor="middle" style="white-space: pre;" direction="ltr" dominant-baseline="alphabetic">redis node 3</text></g><g transform="translate(1494.2373730796608 790.9255403809038) rotate(0 104.17992401123047 12.5)"><text x="0" y="17.52" font-family="Virgil, Segoe UI Emoji" font-size="20px" fill="#1e1e1e" text-anchor="start" style="white-space: pre;" direction="ltr" dominant-baseline="alphabetic">change data capture</text></g><g stroke-linecap="round" transform="translate(1012.7093509635506 428.76132108675256) rotate(0 136.60287940257786 26.57379815459717)"><path d="M13.29 0 C102.19 0.28, 187.13 -0.25, 259.92 0 M259.92 0 C270.69 0.88, 274.29 5.67, 273.21 13.29 M273.21 13.29 C271.31 22.02, 271.51 31.09, 273.21 39.86 M273.21 39.86 C274.93 47.4, 267.64 54.7, 259.92 53.15 M259.92 53.15 C174.73 54.91, 89.12 54.16, 13.29 53.15 M13.29 53.15 C4.24 53.73, -0.94 47.14, 0 39.86 M0 39.86 C-1.64 33.49, 1.35 27.11, 0 13.29 M0 13.29 C-0.14 2.7, 4.78 -1.61, 13.29 0" stroke="#1e1e1e" stroke-width="2.5" fill="none" stroke-dasharray="1.5 8"></path></g><g transform="translate(1037.7666158901302 446.620797624289) rotate(0 113.21988677978516 12.5)"><text x="0" y="17.52" font-family="Virgil, Segoe UI Emoji" font-size="20px" fill="#1e1e1e" text-anchor="start" style="white-space: pre;" direction="ltr" dominant-baseline="alphabetic">distributed redis cache</text></g><g stroke-linecap="round"><g transform="translate(1292.3848667125258 533.4825360366676) rotate(0 18.80323564698483 -24.060760994989096)"><path d="M0.36 -0.78 C6.39 -4.32, 36.95 -13.42, 36.67 -21.55 C36.38 -29.68, 4.73 -44.96, -1.35 -49.55 M-0.91 1.43 C5.46 -1.98, 38.63 -12.24, 38.96 -20.58 C39.28 -28.92, 7.41 -44.02, 1.03 -48.62" stroke="#1e1e1e" stroke-width="2" fill="none"></path></g><g transform="translate(1292.3848667125258 533.4825360366676) rotate(0 18.80323564698483 -24.060760994989096)"><path d="M24.29 -44.32 C15.07 -47.06, 6.61 -48.81, 1.03 -48.62 M24.29 -44.32 C19.07 -45.91, 12.76 -46.95, 1.03 -48.62" stroke="#1e1e1e" stroke-width="2" fill="none"></path></g><g transform="translate(1292.3848667125258 533.4825360366676) rotate(0 18.80323564698483 -24.060760994989096)"><path d="M16.09 -30.38 C9.7 -37.9, 4.04 -44.41, 1.03 -48.62 M16.09 -30.38 C12.77 -35.28, 8.43 -39.67, 1.03 -48.62" stroke="#1e1e1e" stroke-width="2" fill="none"></path></g></g><mask></mask><g stroke-linecap="round" transform="translate(767.0884124650038 800.3004730632015) rotate(269.8984424044384 136.60287940257786 26.57379815459717)"><path d="M13.29 0 C104.46 -1.12, 197 -1, 259.92 0 M259.92 0 C267.88 -0.88, 273.57 3, 273.21 13.29 M273.21 13.29 C271.88 23.29, 275.14 32.05, 273.21 39.86 M273.21 39.86 C271.75 49.57, 269.78 51.55, 259.92 53.15 M259.92 53.15 C191.08 53.24, 119.74 52.39, 13.29 53.15 M13.29 53.15 C6.12 54.29, -0.44 46.86, 0 39.86 M0 39.86 C2 30.12, 1.45 17.97, 0 13.29 M0 13.29 C-0.91 3.74, 2.83 -0.36, 13.29 0" stroke="#1e1e1e" stroke-width="2.5" fill="none" stroke-dasharray="1.5 8"></path></g><g transform="translate(794.5930246620392 812.6910532198322) rotate(269.8984424044384 113.21988677978516 12.5)"><text x="0" y="17.52" font-family="Virgil, Segoe UI Emoji" font-size="20px" fill="#1e1e1e" text-anchor="start" style="white-space: pre;" direction="ltr" dominant-baseline="alphabetic">distributed redis cache</text></g><g stroke-linecap="round"><g transform="translate(940.2317004411652 803.1669506419171) rotate(0 433.8403688770495 55.863172435908155)"><path d="M0.36 -0.46 C144.64 18.11, 721.76 93.46, 866.5 112.14 M-0.91 -1.75 C143.65 16.93, 723.68 94.44, 868.59 113.47" stroke="#1e1e1e" stroke-width="2" fill="none"></path></g><g transform="translate(940.2317004411652 803.1669506419171) rotate(0 433.8403688770495 55.863172435908155)"><path d="M844.18 118.86 C852.33 114.85, 861.39 116.67, 868.59 113.47 M844.18 118.86 C849.86 117.13, 855.62 117.46, 868.59 113.47" stroke="#1e1e1e" stroke-width="2" fill="none"></path></g><g transform="translate(940.2317004411652 803.1669506419171) rotate(0 433.8403688770495 55.863172435908155)"><path d="M846.43 101.91 C853.86 104.12, 862.1 112.15, 868.59 113.47 M846.43 101.91 C851.45 103.94, 856.71 108.04, 868.59 113.47" stroke="#1e1e1e" stroke-width="2" fill="none"></path></g></g><mask></mask><g stroke-linecap="round"><g transform="translate(1463.0680196886424 666.8570378856612) rotate(0 -119.82517081390688 -0.6894408133591696)"><path d="M1.73 -0.76 C-38.57 -1.31, -201.55 -0.88, -241.38 -1.12 M-0.77 -3.64 C-40.2 -3.94, -196.42 1.65, -235.92 2.27" stroke="#1e1e1e" stroke-width="2" fill="none"></path></g></g><mask></mask><g stroke-linecap="round"><g transform="translate(1226.82775831644 666.6789601202499) rotate(0 -1.6093839729946922 -86.3050981746951)"><path d="M-0.21 -0.37 C-0.59 -28.96, -1.57 -143.58, -2 -172.24 M-1.78 -1.61 C-2.34 -29.94, -3.2 -142.46, -2.97 -170.7" stroke="#1e1e1e" stroke-width="2" fill="none"></path></g><g transform="translate(1226.82775831644 666.6789601202499) rotate(0 -1.6093839729946922 -86.3050981746951)"><path d="M5.61 -147.22 C2.38 -154.83, 0.24 -163.7, -2.97 -170.7 M5.61 -147.22 C3.87 -153.32, 1.19 -161.81, -2.97 -170.7" stroke="#1e1e1e" stroke-width="2" fill="none"></path></g><g transform="translate(1226.82775831644 666.6789601202499) rotate(0 -1.6093839729946922 -86.3050981746951)"><path d="M-11.49 -147.2 C-9.24 -154.79, -5.89 -163.67, -2.97 -170.7 M-11.49 -147.2 C-8.27 -153.15, -5.98 -161.64, -2.97 -170.7" stroke="#1e1e1e" stroke-width="2" fill="none"></path></g></g><mask></mask><g stroke-linecap="round"><g transform="translate(1226.2016139154766 666.219404596608) rotate(0 -143.78780399452535 51.32257856924866)"><path d="M-1.11 0.35 C-49.04 17.13, -239.76 84.88, -287.69 101.65 M0.51 -0.51 C-47.47 16.99, -239.76 86.09, -288.09 103.15" stroke="#1e1e1e" stroke-width="2" fill="none"></path></g><g transform="translate(1226.2016139154766 666.219404596608) rotate(0 -143.78780399452535 51.32257856924866)"><path d="M-268.83 87.2 C-273.69 93.4, -279.97 96.32, -288.09 103.15 M-268.83 87.2 C-272.48 91.2, -277.25 94.24, -288.09 103.15" stroke="#1e1e1e" stroke-width="2" fill="none"></path></g><g transform="translate(1226.2016139154766 666.219404596608) rotate(0 -143.78780399452535 51.32257856924866)"><path d="M-263.09 103.31 C-269.75 104.78, -277.7 103.04, -288.09 103.15 M-263.09 103.31 C-268.25 103.5, -274.38 102.75, -288.09 103.15" stroke="#1e1e1e" stroke-width="2" fill="none"></path></g></g><mask></mask></svg>