<svg version="1.1" xmlns="http://www.w3.org/2000/svg" viewBox="0 0 886.5358797523713 541.7796319951044" width="886.5358797523713" height="541.7796319951044">
  <!-- svg-source:excalidraw -->
  
  <defs>
    <style class="style-fonts">
      @font-face {
        font-family: "Virgil";
        src: url("https://excalidraw.com/Virgil.woff2");
      }
      @font-face {
        font-family: "Cascadia";
        src: url("https://excalidraw.com/Cascadia.woff2");
      }
      @font-face {
        font-family: "Assistant";
        src: url("https://excalidraw.com/Assistant-Regular.woff2");
      }
    </style>
    
  </defs>
  <g stroke-linecap="round" transform="translate(30.640805161716344 61.88301593165238) rotate(0 74.44877646664213 31.617021310001746)"><path d="M15.81 0 C48.16 -1.01, 81.96 1.68, 133.09 0 M15.81 0 C55.73 0.73, 94.48 -0.25, 133.09 0 M133.09 0 C145.07 -0.66, 149.69 5.14, 148.9 15.81 M133.09 0 C145.85 -0.35, 150.31 4.97, 148.9 15.81 M148.9 15.81 C146.85 22.9, 150.12 30.83, 148.9 47.43 M148.9 15.81 C148.92 26.68, 149.41 38.65, 148.9 47.43 M148.9 47.43 C150.45 56.43, 144.62 64.21, 133.09 63.23 M148.9 47.43 C149.07 57.78, 143.72 61.18, 133.09 63.23 M133.09 63.23 C104.57 63.46, 78.02 63.85, 15.81 63.23 M133.09 63.23 C85.99 64.41, 41.32 63.78, 15.81 63.23 M15.81 63.23 C5.2 64.54, 1.04 59.15, 0 47.43 M15.81 63.23 C4.62 61.45, 0.08 56.08, 0 47.43 M0 47.43 C1.55 35.68, -1.15 28.66, 0 15.81 M0 47.43 C0.09 36.6, 1.1 23.58, 0 15.81 M0 15.81 C0.64 3.6, 3.72 -1.31, 15.81 0 M0 15.81 C-0.18 6.91, 3.94 -0.35, 15.81 0" stroke="#e03131" stroke-width="2" fill="none"></path></g><g transform="translate(47.667706628358474 76.70003724165417) rotate(0 57.421874999999886 16.799999999999955)"><text x="57.421875" y="27.0375" font-family="Cascadia, Segoe UI Emoji" font-size="28px" fill="#e03131" text-anchor="middle" style="white-space: pre;" direction="ltr" dominant-baseline="alphabetic">Program</text></g><g stroke-linecap="round" transform="translate(249.60656119125406 61.88301593165238) rotate(0 74.44877646664213 31.617021310001746)"><path d="M15.81 0 C53.45 1.41, 92.02 -1.01, 133.09 0 M15.81 0 C45.25 1.08, 75.63 -0.52, 133.09 0 M133.09 0 C143.15 -0.79, 149.53 7.24, 148.9 15.81 M133.09 0 C142.85 -0.69, 146.78 4.58, 148.9 15.81 M148.9 15.81 C147.37 27.38, 149.08 35.06, 148.9 47.43 M148.9 15.81 C148.17 25.78, 149.11 35.84, 148.9 47.43 M148.9 47.43 C148.5 56.53, 143.32 62.34, 133.09 63.23 M148.9 47.43 C149 56.74, 145.69 65.01, 133.09 63.23 M133.09 63.23 C85.79 62.33, 43.23 64.83, 15.81 63.23 M133.09 63.23 C105.54 63.9, 76.6 64.58, 15.81 63.23 M15.81 63.23 C6.61 64.25, 1.83 58.28, 0 47.43 M15.81 63.23 C7.11 63.2, 1.39 58.97, 0 47.43 M0 47.43 C-1.61 41.7, -0.4 33.78, 0 15.81 M0 47.43 C-0.28 40.8, 0.67 34.6, 0 15.81 M0 15.81 C0.17 6.08, 5.42 -1.59, 15.81 0 M0 15.81 C1.9 5.07, 5.26 -0.99, 15.81 0" stroke="#e03131" stroke-width="2" fill="none"></path></g><g transform="translate(274.83658765789596 76.70003724165417) rotate(0 49.21875 16.799999999999955)"><text x="49.21875" y="27.0375" font-family="Cascadia, Segoe UI Emoji" font-size="28px" fill="#e03131" text-anchor="middle" style="white-space: pre;" direction="ltr" dominant-baseline="alphabetic">Task A</text></g><g stroke-linecap="round"><g transform="translate(106.00996805458362 134.90461091459088) rotate(0 1.8109531424095167 185.8658326236939)"><path d="M-0.65 2.41 C0.08 63.5, 3.31 305.98, 3.33 366.7 M4.19 1.25 C4.81 62.83, 1.91 309.03, 2.07 370.49" stroke="#1e1e1e" stroke-width="2" fill="none"></path></g></g><mask></mask><g stroke-linecap="round"><g transform="translate(328.04353428695003 140.4768248535347) rotate(0 1.5699110599980486 179.17431048445894)"><path d="M-0.81 -1.63 C-0.58 58.46, 3.02 297.58, 2.83 357.79 M3.95 3.66 C3.91 64.24, 2.08 300.2, 2.05 359.98" stroke="#1e1e1e" stroke-width="2" fill="none"></path></g></g><mask></mask><g stroke-linecap="round" transform="translate(101.9695881480659 152.09137111671157) rotate(0 7.2279460611412105 52.67639477892328)"><path d="M3.61 0 C4.2 -0.25, 7 0.04, 10.84 0 C11.07 1.57, 12.27 1.71, 14.46 3.61 C11.78 39.41, 12.46 74.3, 14.46 101.74 C13.62 103.12, 10.94 105.64, 10.84 105.35 C8.82 104.29, 7.56 106.58, 3.61 105.35 C-1.6 106.62, 0.1 106.2, 0 101.74 C-2.51 74.57, 1.7 55.74, 0 3.61 C2.41 2.88, 1.03 2.87, 3.61 0" stroke="none" stroke-width="0" fill="#e03131"></path><path d="M3.61 0 C7 -0.3, 9.39 0.16, 10.84 0 M3.61 0 C5.18 -0.01, 6.87 -0.17, 10.84 0 M10.84 0 C11.7 -1.22, 12.54 1.16, 14.46 3.61 M10.84 0 C14.14 0.27, 13.03 -1.06, 14.46 3.61 M14.46 3.61 C15.42 26.39, 15.52 50.77, 14.46 101.74 M14.46 3.61 C14.06 34.98, 13.98 67.53, 14.46 101.74 M14.46 101.74 C13.4 102.39, 11.53 104.06, 10.84 105.35 M14.46 101.74 C12.9 104.86, 13.5 106.59, 10.84 105.35 M10.84 105.35 C7.67 105.93, 6.31 105.17, 3.61 105.35 M10.84 105.35 C9.12 105.3, 6.77 105.32, 3.61 105.35 M3.61 105.35 C-0.48 104.31, 0.54 105.82, 0 101.74 M3.61 105.35 C0.83 104.4, -0.49 104.57, 0 101.74 M0 101.74 C-0.65 75.12, -0.63 46.92, 0 3.61 M0 101.74 C0.21 78.18, 1.31 54.9, 0 3.61 M0 3.61 C0.16 1.73, 2.04 0.37, 3.61 0 M0 3.61 C0.12 -0.68, 0.47 -1.83, 3.61 0" stroke="#e03131" stroke-width="2" fill="none"></path></g><g stroke-linecap="round" transform="translate(101.6853168974335 370.23227450097374) rotate(0 7.2279460611412105 52.67639477892328)"><path d="M3.61 0 C6.51 -1.11, 7.3 1.38, 10.84 0 C14.18 -1.54, 15.31 3.56, 14.46 3.61 C16.65 28.99, 18 60.27, 14.46 101.74 C16.12 100.6, 11.41 102.92, 10.84 105.35 C8.04 105.46, 6.18 105.15, 3.61 105.35 C1.5 103.54, 0.45 104.18, 0 101.74 C1.87 77.31, -1.09 51.31, 0 3.61 C-1.28 0.17, -0.85 2.04, 3.61 0" stroke="none" stroke-width="0" fill="#e03131"></path><path d="M3.61 0 C5.64 -0.56, 7.38 -0.58, 10.84 0 M3.61 0 C5.6 0.11, 6.84 -0.37, 10.84 0 M10.84 0 C13.01 0.48, 14.1 0.45, 14.46 3.61 M10.84 0 C11.31 -0.42, 15.12 -0.12, 14.46 3.61 M14.46 3.61 C15.07 34.39, 13.28 63.68, 14.46 101.74 M14.46 3.61 C14.46 42.16, 15 82.12, 14.46 101.74 M14.46 101.74 C13.78 104.66, 11.47 105.77, 10.84 105.35 M14.46 101.74 C12.82 101.93, 12.36 106.7, 10.84 105.35 M10.84 105.35 C9.33 104.83, 6.97 104.69, 3.61 105.35 M10.84 105.35 C9.24 105.59, 6.92 105.15, 3.61 105.35 M3.61 105.35 C-0.34 103.44, -0.06 102.67, 0 101.74 M3.61 105.35 C-0.14 103.53, -0.27 105.49, 0 101.74 M0 101.74 C1.13 65.48, -0.45 30.68, 0 3.61 M0 101.74 C-0.49 79.76, -1.41 56.25, 0 3.61 M0 3.61 C-1.31 2.99, 1.07 -1.08, 3.61 0 M0 3.61 C-0.52 3.35, -1.03 1.07, 3.61 0" stroke="#e03131" stroke-width="2" fill="none"></path></g><g stroke-linecap="round" transform="translate(321.18000386052427 262.79172231553775) rotate(0 7.2279460611412105 52.67639477892328)"><path d="M3.61 0 C6.16 1.3, 10.33 0.58, 10.84 0 C15.18 -1.08, 17.47 1.11, 14.46 3.61 C12.52 31.08, 14.63 56.03, 14.46 101.74 C13.83 107.22, 11.73 104.52, 10.84 105.35 C9.18 104.67, 5.58 105.11, 3.61 105.35 C3.81 108, 0.17 100.78, 0 101.74 C-0.27 77.52, -0.34 50.58, 0 3.61 C-1.54 0.68, 1.61 3.11, 3.61 0" stroke="none" stroke-width="0" fill="#e03131"></path><path d="M3.61 0 C5.72 -0.36, 7.52 0.11, 10.84 0 M3.61 0 C5.41 0.29, 6.82 -0.18, 10.84 0 M10.84 0 C13.31 -1.02, 15.67 0.99, 14.46 3.61 M10.84 0 C14.91 0.47, 13.48 -0.58, 14.46 3.61 M14.46 3.61 C12.62 25.41, 12.75 47.14, 14.46 101.74 M14.46 3.61 C13.72 26.17, 14.73 49.65, 14.46 101.74 M14.46 101.74 C15.6 104.36, 14.8 104.13, 10.84 105.35 M14.46 101.74 C13.26 104.65, 13.24 107.14, 10.84 105.35 M10.84 105.35 C9.34 105.45, 7.04 104.85, 3.61 105.35 M10.84 105.35 C8.93 105.37, 6.18 105.52, 3.61 105.35 M3.61 105.35 C2.78 105.41, -0.53 103.99, 0 101.74 M3.61 105.35 C-0.57 104.77, 0.64 106.41, 0 101.74 M0 101.74 C2.14 78.79, -0.24 55.95, 0 3.61 M0 101.74 C0.87 74.69, 1.27 46.6, 0 3.61 M0 3.61 C-1.71 1.57, 2.09 1.05, 3.61 0 M0 3.61 C-0.12 1.02, 3.38 0.09, 3.61 0" stroke="#e03131" stroke-width="2" fill="none"></path></g><g stroke-linecap="round"><g transform="translate(131.1191607259566 138.27392426224083) rotate(0 -0.9370885263548416 57.28675773283703)"><path d="M0.52 0.75 C0.13 19.87, -1.02 95.58, -1.45 114.47 M-0.67 0.1 C-1.29 18.89, -1.98 93.45, -2.39 112.7" stroke="#1e1e1e" stroke-width="2" fill="none"></path></g><g transform="translate(131.1191607259566 138.27392426224083) rotate(0 -0.9370885263548416 57.28675773283703)"><path d="M-10.59 89.08 C-6.34 97.86, -3.44 105.62, -2.39 112.7 M-10.59 89.08 C-8.6 97.05, -6.3 103.58, -2.39 112.7" stroke="#1e1e1e" stroke-width="2" fill="none"></path></g><g transform="translate(131.1191607259566 138.27392426224083) rotate(0 -0.9370885263548416 57.28675773283703)"><path d="M6.51 89.34 C4.41 98.09, 0.95 105.76, -2.39 112.7 M6.51 89.34 C2.95 97.28, -0.31 103.72, -2.39 112.7" stroke="#1e1e1e" stroke-width="2" fill="none"></path></g></g><mask></mask><g stroke-linecap="round"><g transform="translate(127.71071645461893 368.4377722085601) rotate(0 0.7305921954125552 60.78866062766974)"><path d="M1.18 0.48 C1.35 20.45, 1.1 100.28, 0.83 120.48 M0.34 -0.31 C0.42 19.78, 0.54 101.86, 0.23 121.88" stroke="#1e1e1e" stroke-width="2" fill="none"></path></g><g transform="translate(127.71071645461893 368.4377722085601) rotate(0 0.7305921954125552 60.78866062766974)"><path d="M-8.19 98.34 C-4.83 106.12, -3.64 110.74, 0.23 121.88 M-8.19 98.34 C-4.71 107.75, -2.51 116.94, 0.23 121.88" stroke="#1e1e1e" stroke-width="2" fill="none"></path></g><g transform="translate(127.71071645461893 368.4377722085601) rotate(0 0.7305921954125552 60.78866062766974)"><path d="M8.91 98.44 C7.36 106.35, 3.64 110.95, 0.23 121.88 M8.91 98.44 C5.89 107.69, 1.59 116.85, 0.23 121.88" stroke="#1e1e1e" stroke-width="2" fill="none"></path></g></g><mask></mask><g stroke-linecap="round"><g transform="translate(143.92056844619174 251.25077555833832) rotate(0 88.29786543513228 0.14198481899018134)"><path d="M-0.33 -0.85 C28.88 -1.01, 145.52 -0.86, 174.67 -1.03 M1.7 1.31 C31.34 1.36, 147.72 0.9, 176.93 0.51" stroke="#1e1e1e" stroke-width="2" fill="none"></path></g><g transform="translate(143.92056844619174 251.25077555833832) rotate(0 88.29786543513228 0.14198481899018134)"><path d="M153.5 9.24 C157.94 5.68, 165.22 3.28, 176.93 0.51 M153.5 9.24 C159.26 7.38, 163.8 4.84, 176.93 0.51" stroke="#1e1e1e" stroke-width="2" fill="none"></path></g><g transform="translate(143.92056844619174 251.25077555833832) rotate(0 88.29786543513228 0.14198481899018134)"><path d="M153.37 -7.86 C157.83 -7.14, 165.14 -5.28, 176.93 0.51 M153.37 -7.86 C159.1 -5.79, 163.66 -4.41, 176.93 0.51" stroke="#1e1e1e" stroke-width="2" fill="none"></path></g></g><mask></mask><g stroke-linecap="round"><g transform="translate(307.39128486328855 266.8571865123847) rotate(0 -0.19602649050648324 54.11729282100305)"><path d="M-0.63 0.51 C-0.98 18.57, -1.7 90.82, -1.63 108.5 M1.24 -0.26 C1.23 17.47, 0.98 89.01, 0.67 106.96" stroke="#1e1e1e" stroke-width="2" fill="none"></path></g><g transform="translate(307.39128486328855 266.8571865123847) rotate(0 -0.19602649050648324 54.11729282100305)"><path d="M-7.66 83.39 C-3.94 90.14, -0.1 100.51, 0.67 106.96 M-7.66 83.39 C-6.58 87.96, -4.56 94.96, 0.67 106.96" stroke="#1e1e1e" stroke-width="2" fill="none"></path></g><g transform="translate(307.39128486328855 266.8571865123847) rotate(0 -0.19602649050648324 54.11729282100305)"><path d="M9.44 83.55 C7.34 90.15, 5.36 100.48, 0.67 106.96 M9.44 83.55 C6.58 88.03, 4.65 94.99, 0.67 106.96" stroke="#1e1e1e" stroke-width="2" fill="none"></path></g></g><mask></mask><g stroke-linecap="round"><g transform="translate(290.80958188730847 364.80548972457154) rotate(0 -77.87681998756238 -0.3589334837537308)"><path d="M1.04 -0.62 C-25.08 -0.63, -130.47 -0.71, -156.79 -0.75 M0.12 1.66 C-25.63 1.4, -128.84 -1.65, -154.63 -2.38" stroke="#1e1e1e" stroke-width="2" fill="none"></path></g><g transform="translate(290.80958188730847 364.80548972457154) rotate(0 -77.87681998756238 -0.3589334837537308)"><path d="M-130.91 -10.25 C-138.96 -9.5, -143.33 -7.39, -154.63 -2.38 M-130.91 -10.25 C-138.91 -6.76, -147.97 -4.77, -154.63 -2.38" stroke="#1e1e1e" stroke-width="2" fill="none"></path></g><g transform="translate(290.80958188730847 364.80548972457154) rotate(0 -77.87681998756238 -0.3589334837537308)"><path d="M-131.4 6.84 C-139.2 2.57, -143.42 -0.33, -154.63 -2.38 M-131.4 6.84 C-139.22 3.97, -148.1 -0.39, -154.63 -2.38" stroke="#1e1e1e" stroke-width="2" fill="none"></path></g></g><mask></mask><g stroke-linecap="round" transform="translate(493.21187738311755 60.62742432232585) rotate(0 74.44877646664213 31.617021310001746)"><path d="M15.81 0 C52.06 0.37, 89.62 -1.02, 133.09 0 M15.81 0 C59.66 0.42, 103.09 0.17, 133.09 0 M133.09 0 C142.82 0.1, 149.75 6.89, 148.9 15.81 M133.09 0 C145.46 -0.17, 146.99 7.45, 148.9 15.81 M148.9 15.81 C147.99 27.68, 147.17 38.7, 148.9 47.43 M148.9 15.81 C147.99 25.04, 149.13 35.41, 148.9 47.43 M148.9 47.43 C150.3 56.12, 143.29 62.31, 133.09 63.23 M148.9 47.43 C147.7 58.96, 144.85 62.5, 133.09 63.23 M133.09 63.23 C108.29 65.23, 82.61 64.33, 15.81 63.23 M133.09 63.23 C102.52 62.82, 71.74 61.76, 15.81 63.23 M15.81 63.23 C6.7 61.81, 0.71 59.18, 0 47.43 M15.81 63.23 C6.64 63.87, -0.84 58.32, 0 47.43 M0 47.43 C-1.13 34.32, 0.33 21.98, 0 15.81 M0 47.43 C0.58 38.87, -0.68 31.92, 0 15.81 M0 15.81 C-0.32 6.95, 3.49 1.83, 15.81 0 M0 15.81 C-2.01 4.37, 3.69 -1.56, 15.81 0" stroke="#1971c2" stroke-width="2" fill="none"></path></g><g transform="translate(510.23877884975946 75.44444563232764) rotate(0 57.421875 16.799999999999955)"><text x="57.421875" y="27.0375" font-family="Cascadia, Segoe UI Emoji" font-size="28px" fill="#1971c2" text-anchor="middle" style="white-space: pre;" direction="ltr" dominant-baseline="alphabetic">Program</text></g><g stroke-linecap="round" transform="translate(712.1776334126557 60.487618789228236) rotate(0 74.44877646664213 31.617021310001746)"><path d="M15.81 0 C53.28 0.21, 88.15 0.47, 133.09 0 M15.81 0 C58.28 -0.43, 101.98 0.33, 133.09 0 M133.09 0 C145.22 -0.15, 147.24 7.17, 148.9 15.81 M133.09 0 C145.09 -2.03, 146.7 4.55, 148.9 15.81 M148.9 15.81 C149.1 24.83, 148.44 34.49, 148.9 47.43 M148.9 15.81 C149.73 21.41, 148.85 28.39, 148.9 47.43 M148.9 47.43 C147.86 58.83, 144.69 62.6, 133.09 63.23 M148.9 47.43 C147.05 57.14, 144.07 64.36, 133.09 63.23 M133.09 63.23 C86.73 63.72, 40.58 63.32, 15.81 63.23 M133.09 63.23 C93.6 61.78, 53.03 63.1, 15.81 63.23 M15.81 63.23 C6.46 63.79, -0.73 58.28, 0 47.43 M15.81 63.23 C6.95 64, 0.81 56.78, 0 47.43 M0 47.43 C-1.27 41.18, -1.02 34.15, 0 15.81 M0 47.43 C0 41.84, -0.73 35.49, 0 15.81 M0 15.81 C-1.75 4.49, 3.89 -1.35, 15.81 0 M0 15.81 C2 4.03, 5.13 -0.45, 15.81 0" stroke="#1971c2" stroke-width="2" fill="none"></path></g><g transform="translate(737.4076598792976 75.30464009923003) rotate(0 49.21875 16.799999999999955)"><text x="49.21875" y="27.0375" font-family="Cascadia, Segoe UI Emoji" font-size="28px" fill="#1971c2" text-anchor="middle" style="white-space: pre;" direction="ltr" dominant-baseline="alphabetic">Task A</text></g><g stroke-linecap="round"><g transform="translate(568.5810402759857 133.5092137721672) rotate(0 0.4551255715703064 183.95623944428178)"><path d="M-0.37 1.84 C-0.32 63, -0.54 306.76, -0.42 367.55 M-4.02 0.36 C-3.01 60.62, 4.6 301.6, 4.93 363.16" stroke="#1e1e1e" stroke-width="2" fill="none"></path></g></g><mask></mask><g stroke-linecap="round"><g transform="translate(790.6146065083517 139.0814277111108) rotate(0 -0.8220523184966169 181.79462982047835)"><path d="M-1.94 1.14 C-2.05 60.93, -1.53 300.33, -0.99 360.59 M2.2 -0.71 C1.65 59.41, -3.5 304.44, -3.84 364.3" stroke="#1e1e1e" stroke-width="2" fill="none"></path></g></g><mask></mask><g stroke-linecap="round" transform="translate(561.7631904452637 154.3635391258788) rotate(0 5.648143537139276 158.36471761620373)"><path d="M2.82 0 C4.49 -0.95, 6.29 0.58, 8.47 0 C8.76 2.23, 11.11 1.47, 11.3 2.82 C9.56 124.42, 8.96 247.99, 11.3 313.91 C10.66 312.82, 10.86 314.4, 8.47 316.73 C6.8 316.34, 4.25 317.26, 2.82 316.73 C2.75 313.36, -0.37 312.88, 0 313.91 C0.59 195.3, -1.86 79.54, 0 2.82 C-2.17 0.11, 3.64 -0.88, 2.82 0" stroke="none" stroke-width="0" fill="#1971c2"></path><path d="M2.82 0 C4.15 0.26, 5.89 0.47, 8.47 0 M2.82 0 C4.66 -0.3, 5.86 -0.14, 8.47 0 M8.47 0 C10.73 -1.45, 11.21 1.38, 11.3 2.82 M8.47 0 C9.14 -0.26, 9.58 -1.21, 11.3 2.82 M11.3 2.82 C8.33 108.35, 8.99 213.63, 11.3 313.91 M11.3 2.82 C11.9 109.39, 12.61 216.83, 11.3 313.91 M11.3 313.91 C13.06 316.86, 11.22 315.91, 8.47 316.73 M11.3 313.91 C11.26 314.13, 9.87 317.71, 8.47 316.73 M8.47 316.73 C6.73 316.97, 6.13 317.11, 2.82 316.73 M8.47 316.73 C6.83 316.83, 4.87 316.59, 2.82 316.73 M2.82 316.73 C-0.38 317.16, -1.87 314.59, 0 313.91 M2.82 316.73 C2.27 315.63, 1.75 313.56, 0 313.91 M0 313.91 C1.93 234.77, 2.03 156.92, 0 2.82 M0 313.91 C2.15 232.31, 1.49 151.35, 0 2.82 M0 2.82 C-0.52 2.62, 0.43 -1.81, 2.82 0 M0 2.82 C-0.4 -0.19, -0.42 1.73, 2.82 0" stroke="#1971c2" stroke-width="2" fill="none"></path></g><g stroke-linecap="round" transform="translate(783.7510760819264 261.39632517311384) rotate(0 6.065230044213649 102.66852332237443)"><path d="M3.03 0 C3.84 0.61, 5.55 0.09, 9.1 0 C14.61 -0.29, 8.86 -0.97, 12.13 3.03 C8.7 45.38, 9.84 91.33, 12.13 202.3 C13.85 205.06, 13.75 206.36, 9.1 205.34 C8.11 204.36, 5.91 204.5, 3.03 205.34 C3.65 205.42, 2.76 205.28, 0 202.3 C0.3 161.08, 5.17 120.63, 0 3.03 C-0.91 3.42, 1.29 0.17, 3.03 0" stroke="none" stroke-width="0" fill="#1971c2"></path><path d="M3.03 0 C5.07 -0.55, 7.76 0.34, 9.1 0 M3.03 0 C4.37 -0.2, 5.59 0.08, 9.1 0 M9.1 0 C10.06 -0.23, 10.64 -0.86, 12.13 3.03 M9.1 0 C12.04 -1.7, 13.74 -1.11, 12.13 3.03 M12.13 3.03 C12.07 60.49, 10.57 114.22, 12.13 202.3 M12.13 3.03 C13.4 56.23, 12.95 107.95, 12.13 202.3 M12.13 202.3 C12.1 202.89, 10.7 206.19, 9.1 205.34 M12.13 202.3 C10.7 202.86, 12.77 203.7, 9.1 205.34 M9.1 205.34 C7.23 205.15, 5.12 205.82, 3.03 205.34 M9.1 205.34 C6.88 205.37, 4.77 205.12, 3.03 205.34 M3.03 205.34 C2.16 204.38, 1.52 202.39, 0 202.3 M3.03 205.34 C-0.13 204.58, -0.37 206.26, 0 202.3 M0 202.3 C-2.6 158.86, -3.17 119.91, 0 3.03 M0 202.3 C-0.14 154.08, -0.13 103.27, 0 3.03 M0 3.03 C-0.35 0.03, -0.17 1.51, 3.03 0 M0 3.03 C-0.83 0.04, 2.23 0.39, 3.03 0" stroke="#1971c2" stroke-width="2" fill="none"></path></g><g stroke-linecap="round"><g transform="translate(586.266116424496 129.44087275902962) rotate(0 -0.4317066805272134 139.16998014908916)"><path d="M-0.99 1.14 C-1.32 47.27, -0.68 230.63, -1 276.67 M0.69 0.69 C0.18 46.94, -1.33 231.35, -1.55 277.65" stroke="#1e1e1e" stroke-width="2" fill="none"></path></g><g transform="translate(586.266116424496 129.44087275902962) rotate(0 -0.4317066805272134 139.16998014908916)"><path d="M-9.94 254.1 C-4.87 264.38, -5.35 270.14, -1.55 277.65 M-9.94 254.1 C-7.68 260.7, -5.92 266.7, -1.55 277.65" stroke="#1e1e1e" stroke-width="2" fill="none"></path></g><g transform="translate(586.266116424496 129.44087275902962) rotate(0 -0.4317066805272134 139.16998014908916)"><path d="M7.16 254.21 C5.73 264.31, -1.24 270.02, -1.55 277.65 M7.16 254.21 C4.82 260.66, 2 266.63, -1.55 277.65" stroke="#1e1e1e" stroke-width="2" fill="none"></path></g></g><mask></mask><g stroke-linecap="round"><g transform="translate(588.5033287423807 264.94971580600895) rotate(0 87.78577349497073 -1.9348350385297408)"><path d="M-1.15 -0.38 C28.18 -0.78, 147.12 -3.16, 176.72 -3.49 M0.45 -1.62 C29.57 -1.8, 146.69 -2.53, 175.89 -2.41" stroke="#1e1e1e" stroke-width="2" fill="none"></path></g><g transform="translate(588.5033287423807 264.94971580600895) rotate(0 87.78577349497073 -1.9348350385297408)"><path d="M152.42 6.18 C160.4 3.66, 168.11 0.08, 175.89 -2.41 M152.42 6.18 C159.27 2.51, 167.97 -0.06, 175.89 -2.41" stroke="#1e1e1e" stroke-width="2" fill="none"></path></g><g transform="translate(588.5033287423807 264.94971580600895) rotate(0 87.78577349497073 -1.9348350385297408)"><path d="M152.38 -10.92 C160.22 -7.22, 167.95 -4.6, 175.89 -2.41 M152.38 -10.92 C159.16 -9.09, 167.86 -6.16, 175.89 -2.41" stroke="#1e1e1e" stroke-width="2" fill="none"></path></g></g><mask></mask><g stroke-linecap="round"><g transform="translate(770.5075986637708 268.60242885007324) rotate(0 1.0023659129012685 105.14696264355462)"><path d="M0.23 -0.87 C0.94 34.39, 2.73 175.89, 3.12 211.16 M-1.11 1.29 C-0.46 36.2, 1.72 174.06, 2.14 209.18" stroke="#1e1e1e" stroke-width="2" fill="none"></path></g><g transform="translate(770.5075986637708 268.60242885007324) rotate(0 1.0023659129012685 105.14696264355462)"><path d="M-6.74 185.81 C-6.45 190.48, -2.75 194.28, 2.14 209.18 M-6.74 185.81 C-3.95 191.9, -1.08 198.46, 2.14 209.18" stroke="#1e1e1e" stroke-width="2" fill="none"></path></g><g transform="translate(770.5075986637708 268.60242885007324) rotate(0 1.0023659129012685 105.14696264355462)"><path d="M10.36 185.56 C7.16 190.32, 7.36 194.17, 2.14 209.18 M10.36 185.56 C8.21 191.57, 6.14 198.2, 2.14 209.18" stroke="#1e1e1e" stroke-width="2" fill="none"></path></g></g><mask></mask><g transform="translate(482.78587975237133 10) rotate(0 196.875 16.799999999999955)"><text x="0" y="27.0375" font-family="Cascadia, Segoe UI Emoji" font-size="28px" fill="#1971c2" text-anchor="start" style="white-space: pre;" direction="ltr" dominant-baseline="alphabetic">Asynchronous Programming</text></g><g transform="translate(10 10) rotate(0 188.671875 16.799999999999955)"><text x="0" y="27.0375" font-family="Cascadia, Segoe UI Emoji" font-size="28px" fill="#e03131" text-anchor="start" style="white-space: pre;" direction="ltr" dominant-baseline="alphabetic">Synchronous Programming</text></g><g stroke-linecap="round"><g transform="translate(110.13611930118213 494.1039160571479) rotate(0 -0.9515764463253618 19.058736809337233)"><path d="M-0.57 0.98 C-0.99 7.45, -3.12 31.5, -3.23 37.68 M1.33 0.44 C1.33 6.68, -0.64 29.96, -1.13 35.93" stroke="#e03131" stroke-width="2" fill="none"></path></g><g transform="translate(110.13611930118213 494.1039160571479) rotate(0 -0.9515764463253618 19.058736809337233)"><path d="M-4.52 16.27 C-3.94 23.58, -2.23 26.21, 0.64 36.71 M-6.04 17.89 C-4.9 21.4, -2.94 25.14, -1.25 35.32" stroke="#e03131" stroke-width="2" fill="none"></path></g><g transform="translate(110.13611930118213 494.1039160571479) rotate(0 -0.9515764463253618 19.058736809337233)"><path d="M8.1 17.3 C5.69 24.31, 4.39 26.69, 0.64 36.71 M6.58 18.92 C4.99 22.25, 4.23 25.76, -1.25 35.32" stroke="#e03131" stroke-width="2" fill="none"></path></g></g><mask></mask><g stroke-linecap="round"><g transform="translate(329.69886913737537 483.6174476943861) rotate(0 0.7710405295247256 19.143217002049255)"><path d="M-0.26 1.15 C-0.12 7.07, 1.3 30.45, 1.64 36.57 M1.8 0.71 C1.76 7.26, 1.04 31.14, 0.95 37.58" stroke="#e03131" stroke-width="2" fill="none"></path></g><g transform="translate(329.69886913737537 483.6174476943861) rotate(0 0.7710405295247256 19.143217002049255)"><path d="M-3.28 20.57 C-4.3 27.27, -0.02 32.81, 0.58 37.54 M-5.2 19.16 C-3.1 23.79, -2.12 28.14, 0.62 38.24" stroke="#e03131" stroke-width="2" fill="none"></path></g><g transform="translate(329.69886913737537 483.6174476943861) rotate(0 0.7710405295247256 19.143217002049255)"><path d="M9.58 20.86 C3.84 27.43, 3.41 32.86, 0.58 37.54 M7.66 19.45 C6.6 23.91, 4.42 28.2, 0.62 38.24" stroke="#e03131" stroke-width="2" fill="none"></path></g></g><mask></mask><g stroke-linecap="round"><g transform="translate(569.9490379065323 485.29076529625127) rotate(0 1.0484465918978003 21.833689883901798)"><path d="M-0.65 -1.17 C-0.3 6.23, 2.05 37.11, 2.75 44.84 M1.2 0.83 C1.37 7.83, 1.57 35.86, 1.94 42.94" stroke="#1971c2" stroke-width="2" fill="none"></path></g><g transform="translate(569.9490379065323 485.29076529625127) rotate(0 1.0484465918978003 21.833689883901798)"><path d="M-8.17 22.68 C-2.57 31.35, 0.92 38.66, -0.05 43.62 M-6.8 22.98 C-4.1 26.25, -1.97 31.26, 2.63 42.45" stroke="#1971c2" stroke-width="2" fill="none"></path></g><g transform="translate(569.9490379065323 485.29076529625127) rotate(0 1.0484465918978003 21.833689883901798)"><path d="M7.04 22.27 C7.31 31.01, 5.49 38.46, -0.05 43.62 M8.41 22.58 C7.76 25.8, 6.56 30.9, 2.63 42.45" stroke="#1971c2" stroke-width="2" fill="none"></path></g></g><mask></mask><g stroke-linecap="round"><g transform="translate(787.7941921101806 489.08442891505024) rotate(0 -0.16746468990027097 17.595273269122345)"><path d="M0.32 -0.26 C0.47 6, 0.62 30.77, 0.63 36.64 M-0.96 -1.45 C-0.9 4.55, -0.07 28.66, 0.07 34.87" stroke="#1971c2" stroke-width="2" fill="none"></path></g><g transform="translate(787.7941921101806 489.08442891505024) rotate(0 -0.16746468990027097 17.595273269122345)"><path d="M-6.97 19.25 C-3.84 23.57, -4.46 28.93, 0.36 36.13 M-6.67 17.86 C-4.65 22.62, -2.31 29.26, -0.48 34.44" stroke="#1971c2" stroke-width="2" fill="none"></path></g><g transform="translate(787.7941921101806 489.08442891505024) rotate(0 -0.16746468990027097 17.595273269122345)"><path d="M5.33 18.89 C5 23.35, 0.91 28.81, 0.36 36.13 M5.63 17.5 C3.79 22.37, 2.26 29.12, -0.48 34.44" stroke="#1971c2" stroke-width="2" fill="none"></path></g></g><mask></mask></svg>